solid Standard Male Figure
  facet normal 0.10830572180590155 0.993736456527953 -0.02752681585963957
    outer loop
      vertex 0.1862410008907318 0.30292398855090247 0.1602325439453125
      vertex 0.20784902572631836 0.3005749881267558 0.16044998168945312
      vertex 0.20153701305389404 0.3008399866521369 0.14518165588378906
    endloop
  endfacet
  facet normal 0.10898482180949062 0.9936812931850738 -0.026829017671041216
    outer loop
      vertex 0.1862410008907318 0.30292398855090247 0.1602325439453125
      vertex 0.20153701305389404 0.3008399866521369 0.14518165588378906
      vertex 0.18626302480697632 0.3023409880697738 0.13872909545898438
    endloop
  endfacet
  facet normal 0.1078661880325369 0.9938032251961584 -0.02683346919507482
    outer loop
      vertex 0.1862410008907318 0.30292398855090247 0.1602325439453125
      vertex 0.18626302480697632 0.3023409880697738 0.13872909545898438
      vertex 0.17097800970077515 0.3041659891605388 0.14487648010253906
    endloop
  endfacet
  facet normal 0.10836482319624853 0.9937353199619158 -0.027334574330594344
    outer loop
      vertex 0.1862410008907318 0.30292398855090247 0.1602325439453125
      vertex 0.17097800970077515 0.3041659891605388 0.14487648010253906
      vertex 0.1646360158920288 0.3052739873528491 0.16001510620117188
    endloop
  endfacet
  facet normal 0.10838469869645799 0.9936488663256391 -0.030243801650089993
    outer loop
      vertex 0.1862410008907318 0.30292398855090247 0.1602325439453125
      vertex 0.1646360158920288 0.3052739873528491 0.16001510620117188
      vertex 0.17094901204109192 0.3050499893724929 0.1752796173095703
    endloop
  endfacet
  facet normal 0.10769527162328159 0.9937020200343483 -0.030951960352185115
    outer loop
      vertex 0.1862410008907318 0.30292398855090247 0.1602325439453125
      vertex 0.17094901204109192 0.3050499893724929 0.1752796173095703
      vertex 0.1862190067768097 0.3035959862172614 0.1817302703857422
    endloop
  endfacet
  facet normal 0.10832535422121246 0.9936503139542744 -0.030408406920139668
    outer loop
      vertex 0.20150402188301086 0.30172998830676184 0.17558860778808594
      vertex 0.20784902572631836 0.3005749881267558 0.16044998168945312
      vertex 0.1862410008907318 0.30292398855090247 0.1602325439453125
    endloop
  endfacet
  facet normal 0.10886114928809111 0.993575133379952 -0.030946801202814796
    outer loop
      vertex 0.20150402188301086 0.30172998830676184 0.17558860778808594
      vertex 0.1862410008907318 0.30292398855090247 0.1602325439453125
      vertex 0.1862190067768097 0.3035959862172614 0.1817302703857422
    endloop
  endfacet
  facet normal -0.10600254312882745 -0.9935149464103213 0.0411279966630706
    outer loop
      vertex 0.15835201740264893 0.0901749730110179 0.1764373779296875
      vertex 0.16279801726341248 0.08951798081398116 0.1720256805419922
      vertex 0.167231023311615 0.08923000097274886 0.17649459838867188
    endloop
  endfacet
  facet normal -0.10600361060411362 -0.9934924515881636 0.041665131419831754
    outer loop
      vertex 0.15835201740264893 0.0901749730110179 0.1764373779296875
      vertex 0.167231023311615 0.08923000097274886 0.17649459838867188
      vertex 0.1627880036830902 0.08977997303009139 0.17830467224121094
    endloop
  endfacet
  facet normal -0.10657058887609142 -0.993477933968316 0.040550022252147336
    outer loop
      vertex 0.15836602449417114 0.08981099724769698 0.1675567626953125
      vertex 0.16279801726341248 0.08951798081398116 0.1720256805419922
      vertex 0.15835201740264893 0.0901749730110179 0.1764373779296875
    endloop
  endfacet
  facet normal -0.10454608820535735 -0.9936925272613459 0.040562010624685556
    outer loop
      vertex 0.15836602449417114 0.08981099724769698 0.1675567626953125
      vertex 0.15835201740264893 0.0901749730110179 0.1764373779296875
      vertex 0.15652000904083252 0.09018599987030135 0.17198562622070312
    endloop
  endfacet
  facet normal -0.10595766540850529 -0.9935215931426216 0.04108305125628056
    outer loop
      vertex 0.16907700896263123 0.08884999155998335 0.17206573486328125
      vertex 0.167231023311615 0.08923000097274886 0.17649459838867188
      vertex 0.16279801726341248 0.08951798081398116 0.1720256805419922
    endloop
  endfacet
  facet normal -0.10595554820581168 -0.9935647414905517 0.04003156593513644
    outer loop
      vertex 0.16907700896263123 0.08884999155998335 0.17206573486328125
      vertex 0.16279801726341248 0.08951798081398116 0.1720256805419922
      vertex 0.16724500060081482 0.08886599540710555 0.16761398315429688
    endloop
  endfacet
  facet normal -0.10600381350538803 -0.9935615710813861 0.03998244605576838
    outer loop
      vertex 0.16724500060081482 0.08886599540710555 0.16761398315429688
      vertex 0.16279801726341248 0.08951798081398116 0.1720256805419922
      vertex 0.15836602449417114 0.08981099724769698 0.1675567626953125
    endloop
  endfacet
  facet normal -0.10600160212815819 -0.9936019129924589 0.03897305279279204
    outer loop
      vertex 0.16724500060081482 0.08886599540710555 0.16761398315429688
      vertex 0.15836602449417114 0.08981099724769698 0.1675567626953125
      vertex 0.16280901432037354 0.0892660021781932 0.16574668884277344
    endloop
  endfacet
  facet normal 0.17749510452816172 0.9732241784971679 0.14604857499150647
    outer loop
      vertex 0.20150402188301086 0.30172998830676184 0.17558860778808594
      vertex 0.1862190067768097 0.3035959862172614 0.1817302703857422
      vertex 0.1852940022945404 0.29726498574018584 0.22504234313964844
    endloop
  endfacet
  facet normal 0.18065405224225012 0.9724966442785864 0.14701833312666368
    outer loop
      vertex 0.20150402188301086 0.30172998830676184 0.17558860778808594
      vertex 0.1852940022945404 0.29726498574018584 0.22504234313964844
      vertex 0.23097902536392212 0.2915519885718833 0.206695556640625
    endloop
  endfacet
  facet normal 0.031213934109236754 0.9883608680504529 0.14889084869117855
    outer loop
      vertex 0.1862190067768097 0.3035959862172614 0.1817302703857422
      vertex 0.17094901204109192 0.3050499893724929 0.1752796173095703
      vertex 0.1396610140800476 0.3014459870755683 0.2057628631591797
    endloop
  endfacet
  facet normal 0.029272744205135984 0.9889714208885311 0.14518483086197495
    outer loop
      vertex 0.1862190067768097 0.3035959862172614 0.1817302703857422
      vertex 0.1396610140800476 0.3014459870755683 0.2057628631591797
      vertex 0.1852940022945404 0.29726498574018584 0.22504234313964844
    endloop
  endfacet
  facet normal -0.07498952758119212 0.9961397195543518 0.04563145712473923
    outer loop
      vertex 0.17094901204109192 0.3050499893724929 0.1752796173095703
      vertex 0.1646360158920288 0.3052739873528491 0.16001510620117188
      vertex 0.12078800797462463 0.3019669875502597 0.16014862060546875
    endloop
  endfacet
  facet normal -0.07389549023697957 0.9963830756744827 0.04195501200207569
    outer loop
      vertex 0.17094901204109192 0.3050499893724929 0.1752796173095703
      vertex 0.12078800797462463 0.3019669875502597 0.16014862060546875
      vertex 0.1396610140800476 0.3014459870755683 0.2057628631591797
    endloop
  endfacet
  facet normal -0.07242000630068125 0.9920470217060879 -0.1029468280788198
    outer loop
      vertex 0.1646360158920288 0.3052739873528491 0.16001510620117188
      vertex 0.17097800970077515 0.3041659891605388 0.14487648010253906
      vertex 0.13973501324653625 0.2987729869782935 0.11488533020019531
    endloop
  endfacet
  facet normal -0.07512518098713683 0.9920003104504103 -0.10144748024440856
    outer loop
      vertex 0.1646360158920288 0.3052739873528491 0.16001510620117188
      vertex 0.13973501324653625 0.2987729869782935 0.11488533020019531
      vertex 0.12078800797462463 0.3019669875502597 0.16014862060546875
    endloop
  endfacet
  facet normal 0.0335395180584016 0.9777897421387515 -0.20688721781841424
    outer loop
      vertex 0.17097800970077515 0.3041659891605388 0.14487648010253906
      vertex 0.18626302480697632 0.3023409880697738 0.13872909545898438
      vertex 0.18542802333831787 0.2934329882264148 0.09649276733398438
    endloop
  endfacet
  facet normal 0.030643547357315642 0.9777053790829062 -0.20773339817590908
    outer loop
      vertex 0.17097800970077515 0.3041659891605388 0.14487648010253906
      vertex 0.18542802333831787 0.2934329882264148 0.09649276733398438
      vertex 0.13973501324653625 0.2987729869782935 0.11488533020019531
    endloop
  endfacet
  facet normal 0.1826966333223426 0.9607012841140252 -0.2089856044667779
    outer loop
      vertex 0.18626302480697632 0.3023409880697738 0.13872909545898438
      vertex 0.20153701305389404 0.3008399866521369 0.14518165588378906
      vertex 0.23109400272369385 0.28882198780775176 0.11577415466308594
    endloop
  endfacet
  facet normal 0.18414957977333765 0.9609992470295687 -0.20632348261384392
    outer loop
      vertex 0.18626302480697632 0.3023409880697738 0.13872909545898438
      vertex 0.23109400272369385 0.28882198780775176 0.11577415466308594
      vertex 0.18542802333831787 0.2934329882264148 0.09649276733398438
    endloop
  endfacet
  facet normal 0.2883140906937548 0.9520159606526633 -0.10266740363922694
    outer loop
      vertex 0.20153701305389404 0.3008399866521369 0.14518165588378906
      vertex 0.20784902572631836 0.3005749881267558 0.16044998168945312
      vertex 0.2499600201845169 0.28792798519134627 0.16143417358398438
    endloop
  endfacet
  facet normal 0.287608621853557 0.9524935870950868 -0.10018606279434272
    outer loop
      vertex 0.20153701305389404 0.3008399866521369 0.14518165588378906
      vertex 0.2499600201845169 0.28792798519134627 0.16143417358398438
      vertex 0.23109400272369385 0.28882198780775176 0.11577415466308594
    endloop
  endfacet
  facet normal 0.2828607548829273 0.9580831882839161 0.04545764704410728
    outer loop
      vertex 0.20784902572631836 0.3005749881267558 0.16044998168945312
      vertex 0.20150402188301086 0.30172998830676184 0.17558860778808594
      vertex 0.23097902536392212 0.2915519885718833 0.206695556640625
    endloop
  endfacet
  facet normal 0.28642943221890227 0.9571140741960857 0.04348366744568456
    outer loop
      vertex 0.20784902572631836 0.3005749881267558 0.16044998168945312
      vertex 0.23097902536392212 0.2915519885718833 0.206695556640625
      vertex 0.2499600201845169 0.28792798519134627 0.16143417358398438
    endloop
  endfacet
  facet normal 0.29357337029804537 0.8311656580347554 0.4722058080493067
    outer loop
      vertex 0.23097902536392212 0.2915519885718833 0.206695556640625
      vertex 0.1852940022945404 0.29726498574018584 0.22504234313964844
      vertex 0.1814740002155304 0.26622398942709075 0.2820549011230469
    endloop
  endfacet
  facet normal 0.29824543457582203 0.8282985056813235 0.4743113389333696
    outer loop
      vertex 0.23097902536392212 0.2915519885718833 0.206695556640625
      vertex 0.1814740002155304 0.26622398942709075 0.2820549011230469
      vertex 0.2660210132598877 0.255239985883237 0.24807357788085938
    endloop
  endfacet
  facet normal -0.12066542188818798 0.8718494761402495 0.4746770975247467
    outer loop
      vertex 0.1852940022945404 0.29726498574018584 0.22504234313964844
      vertex 0.1396610140800476 0.3014459870755683 0.2057628631591797
      vertex 0.09704601764678955 0.27342998981475936 0.24638748168945312
    endloop
  endfacet
  facet normal -0.12309752804784684 0.8750239525584105 0.4681667235478898
    outer loop
      vertex 0.1852940022945404 0.29726498574018584 0.22504234313964844
      vertex 0.09704601764678955 0.27342998981475936 0.24638748168945312
      vertex 0.1814740002155304 0.26622398942709075 0.2820549011230469
    endloop
  endfacet
  facet normal -0.4199930872868491 0.88869447080947 0.1839237455684763
    outer loop
      vertex 0.1396610140800476 0.3014459870755683 0.2057628631591797
      vertex 0.12078800797462463 0.3019669875502597 0.16014862060546875
      vertex 0.06211501359939575 0.2738629877567302 0.16196250915527344
    endloop
  endfacet
  facet normal -0.41714014314590314 0.8914072404178349 0.17716442280231023
    outer loop
      vertex 0.1396610140800476 0.3014459870755683 0.2057628631591797
      vertex 0.06211501359939575 0.2738629877567302 0.16196250915527344
      vertex 0.09704601764678955 0.27342998981475936 0.24638748168945312
    endloop
  endfacet
  facet normal -0.4227371675605777 0.8742655594015895 -0.23864831616226814
    outer loop
      vertex 0.12078800797462463 0.3019669875502597 0.16014862060546875
      vertex 0.13973501324653625 0.2987729869782935 0.11488533020019531
      vertex 0.09716302156448364 0.2681529894471179 0.07812309265136719
    endloop
  endfacet
  facet normal -0.42560422834095885 0.8732164655054013 -0.23739006969237617
    outer loop
      vertex 0.12078800797462463 0.3019669875502597 0.16014862060546875
      vertex 0.09716302156448364 0.2681529894471179 0.07812309265136719
      vertex 0.06211501359939575 0.2738629877567302 0.16196250915527344
    endloop
  endfacet
  facet normal -0.12168275252918839 0.8305788059705774 -0.5434447118239445
    outer loop
      vertex 0.13973501324653625 0.2987729869782935 0.11488533020019531
      vertex 0.18542802333831787 0.2934329882264148 0.09649276733398438
      vertex 0.181738018989563 0.25853698700666533 0.04398536682128906
    endloop
  endfacet
  facet normal -0.12569897615127362 0.8290053536673868 -0.5449310882903751
    outer loop
      vertex 0.13973501324653625 0.2987729869782935 0.11488533020019531
      vertex 0.181738018989563 0.25853698700666533 0.04398536682128906
      vertex 0.09716302156448364 0.2681529894471179 0.07812309265136719
    endloop
  endfacet
  facet normal 0.30838504202256434 0.78056064504956 -0.5437129254087637
    outer loop
      vertex 0.18542802333831787 0.2934329882264148 0.09649276733398438
      vertex 0.23109400272369385 0.28882198780775176 0.11577415466308594
      vertex 0.266275018453598 0.2497629895806323 0.07965469360351562
    endloop
  endfacet
  facet normal 0.3095390674919487 0.7817714662363677 -0.5413122391696444
    outer loop
      vertex 0.18542802333831787 0.2934329882264148 0.09649276733398438
      vertex 0.266275018453598 0.2497629895806323 0.07965469360351562
      vertex 0.181738018989563 0.25853698700666533 0.04398536682128906
    endloop
  endfacet
  facet normal 0.6058901535275183 0.7599032296814028 -0.23546592827450405
    outer loop
      vertex 0.23109400272369385 0.28882198780775176 0.11577415466308594
      vertex 0.2499600201845169 0.28792798519134627 0.16143417358398438
      vertex 0.3011790066957474 0.24795798957347975 0.16423606872558594
    endloop
  endfacet
  facet normal 0.6052058367430903 0.7610519494880533 -0.23350765587562541
    outer loop
      vertex 0.23109400272369385 0.28882198780775176 0.11577415466308594
      vertex 0.3011790066957474 0.24795798957347975 0.16423606872558594
      vertex 0.266275018453598 0.2497629895806323 0.07965469360351562
    endloop
  endfacet
  facet normal 0.5926988049757511 0.7836988279625549 0.1858070871372631
    outer loop
      vertex 0.2499600201845169 0.28792798519134627 0.16143417358398438
      vertex 0.23097902536392212 0.2915519885718833 0.206695556640625
      vertex 0.2660210132598877 0.255239985883237 0.24807357788085938
    endloop
  endfacet
  facet normal 0.5985448161265727 0.779843950897389 0.18326896992332864
    outer loop
      vertex 0.2499600201845169 0.28792798519134627 0.16143417358398438
      vertex 0.2660210132598877 0.255239985883237 0.24807357788085938
      vertex 0.3011790066957474 0.24795798957347975 0.16423606872558594
    endloop
  endfacet
  facet normal 0.3690242127446138 0.5704605389808409 0.7337546619094877
    outer loop
      vertex 0.2660210132598877 0.255239985883237 0.24807357788085938
      vertex 0.1814740002155304 0.26622398942709075 0.2820549011230469
      vertex 0.17581701278686523 0.21844698488712416 0.32204437255859375
    endloop
  endfacet
  facet normal 0.37263330000109723 0.5655626616865046 0.7357195793482516
    outer loop
      vertex 0.2660210132598877 0.255239985883237 0.24807357788085938
      vertex 0.17581701278686523 0.21844698488712416 0.32204437255859375
      vertex 0.28643201291561127 0.20355398952961073 0.2774677276611328
    endloop
  endfacet
  facet normal -0.2547657219104213 0.6330843507736299 0.7309573392100209
    outer loop
      vertex 0.1814740002155304 0.26622398942709075 0.2820549011230469
      vertex 0.09704601764678955 0.27342998981475936 0.24638748168945312
      vertex 0.06537902355194092 0.22717098891735182 0.27541542053222656
    endloop
  endfacet
  facet normal -0.25616956829663595 0.6380826963979588 0.7261044173094015
    outer loop
      vertex 0.1814740002155304 0.26622398942709075 0.2820549011230469
      vertex 0.06537902355194092 0.22717098891735182 0.27541542053222656
      vertex 0.17581701278686523 0.21844698488712416 0.32204437255859375
    endloop
  endfacet
  facet normal -0.6998295386616309 0.651498114692466 0.2928972915013237
    outer loop
      vertex 0.09704601764678955 0.27342998981475936 0.24638748168945312
      vertex 0.06211501359939575 0.2738629877567302 0.16196250915527344
      vertex 0.019688010215759277 0.22696799039840804 0.1648998260498047
    endloop
  endfacet
  facet normal -0.6969748151857489 0.6571816582323968 0.2869466415201759
    outer loop
      vertex 0.09704601764678955 0.27342998981475936 0.24638748168945312
      vertex 0.019688010215759277 0.22696799039840804 0.1648998260498047
      vertex 0.06537902355194092 0.22717098891735182 0.27541542053222656
    endloop
  endfacet
  facet normal -0.7072121937838862 0.6210075565890453 -0.33793568563069326
    outer loop
      vertex 0.06211501359939575 0.2738629877567302 0.16196250915527344
      vertex 0.09716302156448364 0.2681529894471179 0.07812309265136719
      vertex 0.0655440092086792 0.21958899497985945 0.055049896240234375
    endloop
  endfacet
  facet normal -0.7084861662342563 0.6198512958691935 -0.33738957195498376
    outer loop
      vertex 0.06211501359939575 0.2738629877567302 0.16196250915527344
      vertex 0.0655440092086792 0.21958899497985945 0.055049896240234375
      vertex 0.019688010215759277 0.22696799039840804 0.1648998260498047
    endloop
  endfacet
  facet normal -0.2577838617969252 0.5508301439222479 -0.7938095698236823
    outer loop
      vertex 0.09716302156448364 0.2681529894471179 0.07812309265136719
      vertex 0.181738018989563 0.25853698700666533 0.04398536682128906
      vertex 0.17620402574539185 0.20727299153804882 0.010210037231445312
    endloop
  endfacet
  facet normal -0.2611381514323638 0.5476816129367889 -0.7948910093323771
    outer loop
      vertex 0.09716302156448364 0.2681529894471179 0.07812309265136719
      vertex 0.17620402574539185 0.20727299153804882 0.010210037231445312
      vertex 0.0655440092086792 0.21958899497985945 0.055049896240234375
    endloop
  endfacet
  facet normal 0.38304619373921694 0.4785285650607585 -0.7901177291282543
    outer loop
      vertex 0.181738018989563 0.25853698700666533 0.04398536682128906
      vertex 0.266275018453598 0.2497629895806323 0.07965469360351562
      vertex 0.28680701553821564 0.19563698768615828 0.056827545166015625
    endloop
  endfacet
  facet normal 0.38325861671240363 0.47895751198231273 -0.7897547305533582
    outer loop
      vertex 0.181738018989563 0.25853698700666533 0.04398536682128906
      vertex 0.28680701553821564 0.19563698768615828 0.056827545166015625
      vertex 0.17620402574539185 0.20727299153804882 0.010210037231445312
    endloop
  endfacet
  facet normal 0.8276140555584709 0.45267854215609754 -0.3318691195539145
    outer loop
      vertex 0.266275018453598 0.2497629895806323 0.07965469360351562
      vertex 0.3011790066957474 0.24795798957347975 0.16423606872558594
      vertex 0.33245401084423065 0.19324998557567702 0.16760635375976562
    endloop
  endfacet
  facet normal 0.8274219763288344 0.4535401414872453 -0.33117097268301676
    outer loop
      vertex 0.266275018453598 0.2497629895806323 0.07965469360351562
      vertex 0.33245401084423065 0.19324998557567702 0.16760635375976562
      vertex 0.28680701553821564 0.19563698768615828 0.056827545166015625
    endloop
  endfacet
  facet normal 0.8167826896735384 0.49299432226718054 0.299704247654222
    outer loop
      vertex 0.3011790066957474 0.24795798957347975 0.16423606872558594
      vertex 0.2660210132598877 0.255239985883237 0.24807357788085938
      vertex 0.28643201291561127 0.20355398952961073 0.2774677276611328
    endloop
  endfacet
  facet normal 0.820665148025305 0.48751283494956565 0.2980603136548745
    outer loop
      vertex 0.3011790066957474 0.24795798957347975 0.16423606872558594
      vertex 0.28643201291561127 0.20355398952961073 0.2774677276611328
      vertex 0.33245401084423065 0.19324998557567702 0.16760635375976562
    endloop
  endfacet
  facet normal 0.38970186931172274 0.21191257512711414 0.8962284940560328
    outer loop
      vertex 0.28643201291561127 0.20355398952961073 0.2774677276611328
      vertex 0.17581701278686523 0.21844698488712416 0.32204437255859375
      vertex 0.1692180037498474 0.16067698597908125 0.3385734558105469
    endloop
  endfacet
  facet normal 0.3915338183838624 0.2073029806983983 0.8965080832069011
    outer loop
      vertex 0.28643201291561127 0.20355398952961073 0.2774677276611328
      vertex 0.1692180037498474 0.16067698597908125 0.3385734558105469
      vertex 0.28913500905036926 0.1441319882869731 0.2900276184082031
    endloop
  endfacet
  facet normal -0.35226727720279905 0.2924367381266854 0.8890379742204215
    outer loop
      vertex 0.17581701278686523 0.21844698488712416 0.32204437255859375
      vertex 0.06537902355194092 0.22717098891735182 0.27541542053222656
      vertex 0.049505025148391724 0.16954699158668624 0.28808021545410156
    endloop
  endfacet
  facet normal -0.3528025849148958 0.2944224012641002 0.8881699081320246
    outer loop
      vertex 0.17581701278686523 0.21844698488712416 0.32204437255859375
      vertex 0.049505025148391724 0.16954699158668624 0.28808021545410156
      vertex 0.1692180037498474 0.16067698597908125 0.3385734558105469
    endloop
  endfacet
  facet normal -0.8769980836517544 0.3159579063863553 0.3620013296427261
    outer loop
      vertex 0.06537902355194092 0.22717098891735182 0.27541542053222656
      vertex 0.019688010215759277 0.22696799039840804 0.1648998260498047
      vertex 0 0.16860099136829482 0.16814613342285156
    endloop
  endfacet
  facet normal -0.8765049774471684 0.320416403925066 0.359266408958683
    outer loop
      vertex 0.06537902355194092 0.22717098891735182 0.27541542053222656
      vertex 0 0.16860099136829482 0.16814613342285156
      vertex 0.049505025148391724 0.16954699158668624 0.28808021545410156
    endloop
  endfacet
  facet normal -0.8802276102433174 0.27606570213387116 -0.385988448364289
    outer loop
      vertex 0.019688010215759277 0.22696799039840804 0.1648998260498047
      vertex 0.0655440092086792 0.21958899497985945 0.055049896240234375
      vertex 0.04974201321601868 0.1604949831962596 0.04882049560546875
    endloop
  endfacet
  facet normal -0.8804907662186433 0.2755464297997485 -0.38575921975802335
    outer loop
      vertex 0.019688010215759277 0.22696799039840804 0.1648998260498047
      vertex 0.04974201321601868 0.1604949831962596 0.04882049560546875
      vertex 0 0.16860099136829482 0.16814613342285156
    endloop
  endfacet
  facet normal -0.34980575466816793 0.19388959769416622 -0.9165384650449909
    outer loop
      vertex 0.0655440092086792 0.21958899497985945 0.055049896240234375
      vertex 0.17620402574539185 0.20727299153804882 0.010210037231445312
      vertex 0.16970402002334595 0.1472819894552241 0
    endloop
  endfacet
  facet normal -0.3519346474691738 0.19071024802693723 -0.916390530946415
    outer loop
      vertex 0.0655440092086792 0.21958899497985945 0.055049896240234375
      vertex 0.16970402002334595 0.1472819894552241 0
      vertex 0.04974201321601868 0.1604949831962596 0.04882049560546875
    endloop
  endfacet
  facet normal 0.3959820347085016 0.11306445415870382 -0.9112709023083694
    outer loop
      vertex 0.17620402574539185 0.20727299153804882 0.010210037231445312
      vertex 0.28680701553821564 0.19563698768615828 0.056827545166015625
      vertex 0.2895750105381012 0.13468998670578108 0.05046844482421875
    endloop
  endfacet
  facet normal 0.39557563048014066 0.11227784956773972 -0.9115446259326435
    outer loop
      vertex 0.17620402574539185 0.20727299153804882 0.010210037231445312
      vertex 0.2895750105381012 0.13468998670578108 0.05046844482421875
      vertex 0.16970402002334595 0.1472819894552241 0
    endloop
  endfacet
  facet normal 0.9221949427384066 0.08046576339657434 -0.37826148166144713
    outer loop
      vertex 0.28680701553821564 0.19563698768615828 0.056827545166015625
      vertex 0.33245401084423065 0.19324998557567702 0.16760635375976562
      vertex 0.3390340209007263 0.13229198753833876 0.17068099975585938
    endloop
  endfacet
  facet normal 0.9222947104677673 0.08131020634362163 -0.37783742189933334
    outer loop
      vertex 0.28680701553821564 0.19563698768615828 0.056827545166015625
      vertex 0.3390340209007263 0.13229198753833876 0.17068099975585938
      vertex 0.2895750105381012 0.13468998670578108 0.05046844482421875
    endloop
  endfacet
  facet normal 0.9195687940936691 0.12085585824393705 0.3738811234299437
    outer loop
      vertex 0.33245401084423065 0.19324998557567702 0.16760635375976562
      vertex 0.28643201291561127 0.20355398952961073 0.2774677276611328
      vertex 0.28913500905036926 0.1441319882869731 0.2900276184082031
    endloop
  endfacet
  facet normal 0.9202610757072903 0.11815179094967258 0.3730411597041881
    outer loop
      vertex 0.33245401084423065 0.19324998557567702 0.16760635375976562
      vertex 0.28913500905036926 0.1441319882869731 0.2900276184082031
      vertex 0.3390340209007263 0.13229198753833876 0.17068099975585938
    endloop
  endfacet
  facet normal 0.34575179035904513 -0.19011784115138008 0.9188639213395274
    outer loop
      vertex 0.28913500905036926 0.1441319882869731 0.2900276184082031
      vertex 0.1692180037498474 0.16067698597908125 0.3385734558105469
      vertex 0.1627190113067627 0.10101398825645552 0.32867431640625
    endloop
  endfacet
  facet normal 0.3465608485428807 -0.19337223468202824 0.917879489427298
    outer loop
      vertex 0.28913500905036926 0.1441319882869731 0.2900276184082031
      vertex 0.1627190113067627 0.10101398825645552 0.32867431640625
      vertex 0.2736490070819855 0.08563199639320479 0.2835502624511719
    endloop
  endfacet
  facet normal -0.3931292693737349 -0.10745208375207801 0.9131831290924126
    outer loop
      vertex 0.1692180037498474 0.16067698597908125 0.3385734558105469
      vertex 0.049505025148391724 0.16954699158668624 0.28808021545410156
      vertex 0.051979005336761475 0.1090299934148799 0.2820243835449219
    endloop
  endfacet
  facet normal -0.3925895207845699 -0.10876179128287727 0.9132602810409974
    outer loop
      vertex 0.1692180037498474 0.16067698597908125 0.3385734558105469
      vertex 0.051979005336761475 0.1090299934148799 0.2820243835449219
      vertex 0.1627190113067627 0.10101398825645552 0.32867431640625
    endloop
  endfacet
  facet normal -0.9214200951367011 -0.07662558668327113 0.38093769535675687
    outer loop
      vertex 0.049505025148391724 0.16954699158668624 0.28808021545410156
      vertex 0 0.16860099136829482 0.16814613342285156
      vertex 0.00621601939201355 0.1077639907598506 0.1709442138671875
    endloop
  endfacet
  facet normal -0.9216458248139289 -0.07576001342506829 0.380564572666566
    outer loop
      vertex 0.049505025148391724 0.16954699158668624 0.28808021545410156
      vertex 0.00621601939201355 0.1077639907598506 0.1709442138671875
      vertex 0.051979005336761475 0.1090299934148799 0.2820243835449219
    endloop
  endfacet
  facet normal -0.9200458700731625 -0.10997945878169937 -0.37605865979578473
    outer loop
      vertex 0 0.16860099136829482 0.16814613342285156
      vertex 0.04974201321601868 0.1604949831962596 0.04882049560546875
      vertex 0.052265018224716187 0.09993100166320906 0.060359954833984375
    endloop
  endfacet
  facet normal -0.9201980271493992 -0.11128251964572679 -0.3753022670483779
    outer loop
      vertex 0 0.16860099136829482 0.16814613342285156
      vertex 0.052265018224716187 0.09993100166320906 0.060359954833984375
      vertex 0.00621601939201355 0.1077639907598506 0.1709442138671875
    endloop
  endfacet
  facet normal -0.3878649583062642 -0.18554044718438992 -0.902848556833701
    outer loop
      vertex 0.04974201321601868 0.1604949831962596 0.04882049560546875
      vertex 0.16970402002334595 0.1472819894552241 0
      vertex 0.16322702169418335 0.08762997388839827 0.015041351318359375
    endloop
  endfacet
  facet normal -0.3891462192481899 -0.18803069371611625 -0.9017813916163252
    outer loop
      vertex 0.04974201321601868 0.1604949831962596 0.04882049560546875
      vertex 0.16322702169418335 0.08762997388839827 0.015041351318359375
      vertex 0.052265018224716187 0.09993100166320906 0.060359954833984375
    endloop
  endfacet
  facet normal 0.3503954143729529 -0.26493549129906785 -0.8983497309158212
    outer loop
      vertex 0.16970402002334595 0.1472819894552241 0
      vertex 0.2895750105381012 0.13468998670578108 0.05046844482421875
      vertex 0.2740730196237564 0.07620400190353499 0.06167030334472656
    endloop
  endfacet
  facet normal 0.3506327648498631 -0.26459395667580726 -0.8983577807891362
    outer loop
      vertex 0.16970402002334595 0.1472819894552241 0
      vertex 0.2740730196237564 0.07620400190353499 0.06167030334472656
      vertex 0.16322702169418335 0.08762997388839827 0.015041351318359375
    endloop
  endfacet
  facet normal 0.8782606095110945 -0.3060085151399158 -0.3674467178286732
    outer loop
      vertex 0.2895750105381012 0.13468998670578108 0.05046844482421875
      vertex 0.3390340209007263 0.13229198753833876 0.17068099975585938
      vertex 0.31980401277542114 0.07437998056411849 0.17294692993164062
    endloop
  endfacet
  facet normal 0.8796012321862597 -0.30333065367307643 -0.36645898389680354
    outer loop
      vertex 0.2895750105381012 0.13468998670578108 0.05046844482421875
      vertex 0.31980401277542114 0.07437998056411849 0.17294692993164062
      vertex 0.2740730196237564 0.07620400190353499 0.06167030334472656
    endloop
  endfacet
  facet normal 0.8768023007071003 -0.27572468827393454 0.39394621682531406
    outer loop
      vertex 0.3390340209007263 0.13229198753833876 0.17068099975585938
      vertex 0.28913500905036926 0.1441319882869731 0.2900276184082031
      vertex 0.2736490070819855 0.08563199639320479 0.2835502624511719
    endloop
  endfacet
  facet normal 0.876801448393411 -0.2757330323328777 0.39394227365914003
    outer loop
      vertex 0.3390340209007263 0.13229198753833876 0.17068099975585938
      vertex 0.2736490070819855 0.08563199639320479 0.2835502624511719
      vertex 0.31980401277542114 0.07437998056411849 0.17294692993164062
    endloop
  endfacet
  facet normal 0.24753655637280492 -0.5515745502249025 0.7965495394533161
    outer loop
      vertex 0.2736490070819855 0.08563199639320479 0.2835502624511719
      vertex 0.1627190113067627 0.10101398825645552 0.32867431640625
      vertex 0.15730801224708557 0.048321992158890825 0.2938690185546875
    endloop
  endfacet
  facet normal 0.24848024360274507 -0.5553195438170226 0.7936483936819719
    outer loop
      vertex 0.2736490070819855 0.08563199639320479 0.2835502624511719
      vertex 0.15730801224708557 0.048321992158890825 0.2938690185546875
      vertex 0.24229401350021362 0.03675100207328902 0.25916481018066406
    endloop
  endfacet
  facet normal -0.368870132549762 -0.4863796306565186 0.7920667144850548
    outer loop
      vertex 0.1627190113067627 0.10101398825645552 0.32867431640625
      vertex 0.051979005336761475 0.1090299934148799 0.2820243835449219
      vertex 0.07246401906013489 0.05464297533035384 0.2581672668457031
    endloop
  endfacet
  facet normal -0.3695712918574186 -0.48541637212443867 0.7923307427510228
    outer loop
      vertex 0.1627190113067627 0.10101398825645552 0.32867431640625
      vertex 0.07246401906013489 0.05464297533035384 0.2581672668457031
      vertex 0.15730801224708557 0.048321992158890825 0.2938690185546875
    endloop
  endfacet
  facet normal -0.8192296166399773 -0.45976833206668155 0.3427475981659651
    outer loop
      vertex 0.051979005336761475 0.1090299934148799 0.2820243835449219
      vertex 0.00621601939201355 0.1077639907598506 0.1709442138671875
      vertex 0.03742501139640808 0.05367198586464034 0.17297935485839844
    endloop
  endfacet
  facet normal -0.8198010306608766 -0.4589876393090945 0.34242753552953215
    outer loop
      vertex 0.051979005336761475 0.1090299934148799 0.2820243835449219
      vertex 0.03742501139640808 0.05367198586464034 0.17297935485839844
      vertex 0.07246401906013489 0.05464297533035384 0.2581672668457031
    endloop
  endfacet
  facet normal -0.8209112268136419 -0.48102355717086964 -0.30776792415390586
    outer loop
      vertex 0.00621601939201355 0.1077639907598506 0.1709442138671875
      vertex 0.052265018224716187 0.09993100166320906 0.060359954833984375
      vertex 0.07272902131080627 0.04723399877548323 0.08813858032226562
    endloop
  endfacet
  facet normal -0.8200450339371198 -0.48458934732567277 -0.30446560852343624
    outer loop
      vertex 0.00621601939201355 0.1077639907598506 0.1709442138671875
      vertex 0.07272902131080627 0.04723399877548323 0.08813858032226562
      vertex 0.03742501139640808 0.05367198586464034 0.17297935485839844
    endloop
  endfacet
  facet normal -0.36901661629988824 -0.5388645760489067 -0.7572659411159417
    outer loop
      vertex 0.052265018224716187 0.09993100166320906 0.060359954833984375
      vertex 0.16322702169418335 0.08762997388839827 0.015041351318359375
      vertex 0.15773102641105652 0.037573993206025225 0.05333900451660156
    endloop
  endfacet
  facet normal -0.3704741997612648 -0.5416328584180908 -0.7545745251418834
    outer loop
      vertex 0.052265018224716187 0.09993100166320906 0.060359954833984375
      vertex 0.15773102641105652 0.037573993206025225 0.05333900451660156
      vertex 0.07272902131080627 0.04723399877548323 0.08813858032226562
    endloop
  endfacet
  facet normal 0.2540083589972325 -0.6074262130362656 -0.7526706778372294
    outer loop
      vertex 0.16322702169418335 0.08762997388839827 0.015041351318359375
      vertex 0.2740730196237564 0.07620400190353499 0.06167030334472656
      vertex 0.24262401461601257 0.02915197610855208 0.08902931213378906
    endloop
  endfacet
  facet normal 0.25687470596881645 -0.6048885155933398 -0.753740850118076
    outer loop
      vertex 0.16322702169418335 0.08762997388839827 0.015041351318359375
      vertex 0.24262401461601257 0.02915197610855208 0.08902931213378906
      vertex 0.15773102641105652 0.037573993206025225 0.05333900451660156
    endloop
  endfacet
  facet normal 0.7004059365577604 -0.6483414050009602 -0.2984710146664624
    outer loop
      vertex 0.2740730196237564 0.07620400190353499 0.06167030334472656
      vertex 0.31980401277542114 0.07437998056411849 0.17294692993164062
      vertex 0.2776480168104172 0.028209984302521807 0.17431259155273438
    endloop
  endfacet
  facet normal 0.7052236532147625 -0.6439018028503818 -0.29673231578723
    outer loop
      vertex 0.2740730196237564 0.07620400190353499 0.06167030334472656
      vertex 0.2776480168104172 0.028209984302521807 0.17431259155273438
      vertex 0.24262401461601257 0.02915197610855208 0.08902931213378906
    endloop
  endfacet
  facet normal 0.6968061780033387 -0.6236854814923508 0.35422813337174963
    outer loop
      vertex 0.31980401277542114 0.07437998056411849 0.17294692993164062
      vertex 0.2736490070819855 0.08563199639320479 0.2835502624511719
      vertex 0.24229401350021362 0.03675100207328902 0.25916481018066406
    endloop
  endfacet
  facet normal 0.6961222565440822 -0.6251612054642233 0.35296922121694174
    outer loop
      vertex 0.31980401277542114 0.07437998056411849 0.17294692993164062
      vertex 0.24229401350021362 0.03675100207328902 0.25916481018066406
      vertex 0.2776480168104172 0.028209984302521807 0.17431259155273438
    endloop
  endfacet
  facet normal 0.40837709317543286 -0.8765981915990761 0.2545658269580049
    outer loop
      vertex 0.24229401350021362 0.03675100207328902 0.25916481018066406
      vertex 0.20111000537872314 0.006765991449357134 0.22197914123535156
      vertex 0.22071900963783264 0.00222098827362166 0.17487144470214844
    endloop
  endfacet
  facet normal 0.40347504210831936 -0.8782978129717766 0.256516748234271
    outer loop
      vertex 0.24229401350021362 0.03675100207328902 0.25916481018066406
      vertex 0.22071900963783264 0.00222098827362166 0.17487144470214844
      vertex 0.2776480168104172 0.028209984302521807 0.17431259155273438
    endloop
  endfacet
  facet normal 0.40774667057466696 -0.8968572580980771 -0.17143427671289385
    outer loop
      vertex 0.2776480168104172 0.028209984302521807 0.17431259155273438
      vertex 0.22071900963783264 0.00222098827362166 0.17487144470214844
      vertex 0.201291024684906 0.0024330019950877246 0.12755393981933594
    endloop
  endfacet
  facet normal 0.41120766271542974 -0.8938443715393978 -0.17874702121001193
    outer loop
      vertex 0.2776480168104172 0.028209984302521807 0.17431259155273438
      vertex 0.201291024684906 0.0024330019950877246 0.12755393981933594
      vertex 0.24262401461601257 0.02915197610855208 0.08902931213378906
    endloop
  endfacet
  facet normal 0.11890463821860588 -0.8710643569191079 -0.4765590971906883
    outer loop
      vertex 0.24262401461601257 0.02915197610855208 0.08902931213378906
      vertex 0.201291024684906 0.0024330019950877246 0.12755393981933594
      vertex 0.15420502424240112 0.006832987070084673 0.10776329040527344
    endloop
  endfacet
  facet normal 0.11682256685371009 -0.8679637234862976 -0.48269189198236223
    outer loop
      vertex 0.24262401461601257 0.02915197610855208 0.08902931213378906
      vertex 0.15420502424240112 0.006832987070084673 0.10776329040527344
      vertex 0.15773102641105652 0.037573993206025225 0.05333900451660156
    endloop
  endfacet
  facet normal -0.29577926085514356 -0.8234123915581903 -0.48425887939861934
    outer loop
      vertex 0.15773102641105652 0.037573993206025225 0.05333900451660156
      vertex 0.15420502424240112 0.006832987070084673 0.10776329040527344
      vertex 0.1070530116558075 0.012403994798661333 0.1270904541015625
    endloop
  endfacet
  facet normal -0.2912859418439178 -0.8262523780958385 -0.4821405477400476
    outer loop
      vertex 0.15773102641105652 0.037573993206025225 0.05333900451660156
      vertex 0.1070530116558075 0.012403994798661333 0.1270904541015625
      vertex 0.07272902131080627 0.04723399877548323 0.08813858032226562
    endloop
  endfacet
  facet normal -0.5914836572487489 -0.7856659217872158 -0.18131779435535011
    outer loop
      vertex 0.07272902131080627 0.04723399877548323 0.08813858032226562
      vertex 0.1070530116558075 0.012403994798661333 0.1270904541015625
      vertex 0.08745700120925903 0.01628598570823775 0.1741943359375
    endloop
  endfacet
  facet normal -0.5855274561160463 -0.7895559707682696 -0.18373613460189864
    outer loop
      vertex 0.07272902131080627 0.04723399877548323 0.08813858032226562
      vertex 0.08745700120925903 0.01628598570823775 0.1741943359375
      vertex 0.03742501139640808 0.05367198586464034 0.17297935485839844
    endloop
  endfacet
  facet normal -0.5839638112393372 -0.7734851171655195 0.24638798811279386
    outer loop
      vertex 0.03742501139640808 0.05367198586464034 0.17297935485839844
      vertex 0.08745700120925903 0.01628598570823775 0.1741943359375
      vertex 0.10688900947570801 0.01668000221252547 0.22148704528808594
    endloop
  endfacet
  facet normal -0.5851199469891731 -0.771623413840963 0.24946333367411958
    outer loop
      vertex 0.03742501139640808 0.05367198586464034 0.17297935485839844
      vertex 0.10688900947570801 0.01668000221252547 0.22148704528808594
      vertex 0.07246401906013489 0.05464297533035384 0.2581672668457031
    endloop
  endfacet
  facet normal -0.2907295398208925 -0.7880022001210134 0.5427051384315194
    outer loop
      vertex 0.07246401906013489 0.05464297533035384 0.2581672668457031
      vertex 0.10688900947570801 0.01668000221252547 0.22148704528808594
      vertex 0.15396201610565186 0.012943983078003984 0.24127960205078125
    endloop
  endfacet
  facet normal -0.2887084217514632 -0.7857844733500282 0.5469828229951998
    outer loop
      vertex 0.07246401906013489 0.05464297533035384 0.2581672668457031
      vertex 0.15396201610565186 0.012943983078003984 0.24127960205078125
      vertex 0.15730801224708557 0.048321992158890825 0.2938690185546875
    endloop
  endfacet
  facet normal 0.1164174966477588 -0.8274973166061202 0.5492678376565837
    outer loop
      vertex 0.15730801224708557 0.048321992158890825 0.2938690185546875
      vertex 0.15396201610565186 0.012943983078003984 0.24127960205078125
      vertex 0.20111000537872314 0.006765991449357134 0.22197914123535156
    endloop
  endfacet
  facet normal 0.11035827895425838 -0.8298635568719605 0.546943806292815
    outer loop
      vertex 0.15730801224708557 0.048321992158890825 0.2938690185546875
      vertex 0.20111000537872314 0.006765991449357134 0.22197914123535156
      vertex 0.24229401350021362 0.03675100207328902 0.25916481018066406
    endloop
  endfacet
  facet normal -0.2224371125122753 -0.9440762551378575 -0.2433962930327421
    outer loop
      vertex 0.19362002611160278 0.003817975521088701 0.21486663818359375
      vertex 0.153624027967453 0.009018987417222124 0.2312450408935547
      vertex 0.15482699871063232 0.01778998970985518 0.19612503051757812
    endloop
  endfacet
  facet normal -0.2204371543360621 -0.9435681201687474 -0.24715716374290136
    outer loop
      vertex 0.19362002611160278 0.003817975521088701 0.21486663818359375
      vertex 0.15482699871063232 0.01778998970985518 0.19612503051757812
      vertex 0.17021602392196655 0.01584500074386702 0.18982505798339844
    endloop
  endfacet
  facet normal 0.02427538051915728 -0.9696643831097672 -0.2432317619658351
    outer loop
      vertex 0.153624027967453 0.009018987417222124 0.2312450408935547
      vertex 0.11369100213050842 0.012230992317200762 0.21445465087890625
      vertex 0.13946300745010376 0.019094973802567583 0.18966293334960938
    endloop
  endfacet
  facet normal 0.019227818236575284 -0.9701762414480603 -0.24163681742560747
    outer loop
      vertex 0.153624027967453 0.009018987417222124 0.2312450408935547
      vertex 0.13946300745010376 0.019094973802567583 0.18966293334960938
      vertex 0.15482699871063232 0.01778998970985518 0.19612503051757812
    endloop
  endfacet
  facet normal 0.19367905989158324 -0.9784042949172364 -0.07220427582226491
    outer loop
      vertex 0.11369100213050842 0.012230992317200762 0.21445465087890625
      vertex 0.09720802307128906 0.011928975582123857 0.1743335723876953
      vertex 0.13312101364135742 0.019045978784562212 0.1742267608642578
    endloop
  endfacet
  facet normal 0.18904951978009904 -0.9791325407862719 -0.07456370862781127
    outer loop
      vertex 0.11369100213050842 0.012230992317200762 0.21445465087890625
      vertex 0.13312101364135742 0.019045978784562212 0.1742267608642578
      vertex 0.13946300745010376 0.019094973802567583 0.18966293334960938
    endloop
  endfacet
  facet normal 0.1911607238730503 -0.96835943569653 0.1604293643502635
    outer loop
      vertex 0.09720802307128906 0.011928975582123857 0.1743335723876953
      vertex 0.113832026720047 0.00858998298645125 0.1343708038330078
      vertex 0.13951802253723145 0.017716974020005327 0.15885543823242188
    endloop
  endfacet
  facet normal 0.19224030438243855 -0.9676043370400903 0.16366280063641436
    outer loop
      vertex 0.09720802307128906 0.011928975582123857 0.1743335723876953
      vertex 0.13951802253723145 0.017716974020005327 0.15885543823242188
      vertex 0.13312101364135742 0.019045978784562212 0.1742267608642578
    endloop
  endfacet
  facet normal 0.02170159142506902 -0.9446294402017246 0.32742061882812995
    outer loop
      vertex 0.113832026720047 0.00858998298645125 0.1343708038330078
      vertex 0.15383100509643555 0.0038259923458109912 0.11797523498535156
      vertex 0.1549070179462433 0.015836000442505938 0.15255355834960938
    endloop
  endfacet
  facet normal 0.020077586415754172 -0.9435383073262058 0.33065443159243535
    outer loop
      vertex 0.113832026720047 0.00858998298645125 0.1343708038330078
      vertex 0.1549070179462433 0.015836000442505938 0.15255355834960938
      vertex 0.13951802253723145 0.017716974020005327 0.15885543823242188
    endloop
  endfacet
  facet normal -0.22231066928811172 -0.9184797394381798 0.32706717133066837
    outer loop
      vertex 0.15383100509643555 0.0038259923458109912 0.11797523498535156
      vertex 0.19377300143241882 0.00013598799705610842 0.13476181030273438
      vertex 0.17027300596237183 0.014459997415543657 0.1590137481689453
    endloop
  endfacet
  facet normal -0.2194741711880223 -0.9194739000477933 0.3261883433113931
    outer loop
      vertex 0.15383100509643555 0.0038259923458109912 0.11797523498535156
      vertex 0.17027300596237183 0.014459997415543657 0.1590137481689453
      vertex 0.1549070179462433 0.015836000442505938 0.15255355834960938
    endloop
  endfacet
  facet normal -0.39141150969179167 -0.9066149972508237 0.15762701811771085
    outer loop
      vertex 0.19377300143241882 0.00013598799705610842 0.13476181030273438
      vertex 0.21025300025939941 1.0547118733938987e-15 0.17490196228027344
      vertex 0.17661401629447937 0.014444977045060259 0.1744537353515625
    endloop
  endfacet
  facet normal -0.3890882508592713 -0.9073905652842844 0.15891096587819065
    outer loop
      vertex 0.19377300143241882 0.00013598799705610842 0.13476181030273438
      vertex 0.17661401629447937 0.014444977045060259 0.1744537353515625
      vertex 0.17027300596237183 0.014459997415543657 0.1590137481689453
    endloop
  endfacet
  facet normal -0.39102892207285167 -0.917308562948103 -0.07510913689179187
    outer loop
      vertex 0.21025300025939941 1.0547118733938987e-15 0.17490196228027344
      vertex 0.19362002611160278 0.003817975521088701 0.21486663818359375
      vertex 0.17021602392196655 0.01584500074386702 0.18982505798339844
    endloop
  endfacet
  facet normal -0.3924120704572666 -0.9163147513686385 -0.07987517376301326
    outer loop
      vertex 0.21025300025939941 1.0547118733938987e-15 0.17490196228027344
      vertex 0.17021602392196655 0.01584500074386702 0.18982505798339844
      vertex 0.17661401629447937 0.014444977045060259 0.1744537353515625
    endloop
  endfacet
  facet normal -0.9210577924449408 -0.10555622479046158 -0.3748472040504475
    outer loop
      vertex 0.17021602392196655 0.01584500074386702 0.18982505798339844
      vertex 0.167231023311615 0.08923000097274886 0.17649459838867188
      vertex 0.16907700896263123 0.08884999155998335 0.17206573486328125
    endloop
  endfacet
  facet normal -0.9214509530240453 -0.10534171642481538 -0.37394018766609255
    outer loop
      vertex 0.17021602392196655 0.01584500074386702 0.18982505798339844
      vertex 0.16907700896263123 0.08884999155998335 0.17206573486328125
      vertex 0.17661401629447937 0.014444977045060259 0.1744537353515625
    endloop
  endfacet
  facet normal -0.3901670579563423 -0.1803584111524327 -0.9029067008347331
    outer loop
      vertex 0.15482699871063232 0.01778998970985518 0.19612503051757812
      vertex 0.1627880036830902 0.08977997303009139 0.17830467224121094
      vertex 0.167231023311615 0.08923000097274886 0.17649459838867188
    endloop
  endfacet
  facet normal -0.3920672145708033 -0.17983113678045046 -0.902188484465936
    outer loop
      vertex 0.15482699871063232 0.01778998970985518 0.19612503051757812
      vertex 0.167231023311615 0.08923000097274886 0.17649459838867188
      vertex 0.17021602392196655 0.01584500074386702 0.18982505798339844
    endloop
  endfacet
  facet normal 0.3546370440843372 -0.2612837163014992 -0.8977546360553097
    outer loop
      vertex 0.13946300745010376 0.019094973802567583 0.18966293334960938
      vertex 0.15835201740264893 0.0901749730110179 0.1764373779296875
      vertex 0.1627880036830902 0.08977997303009139 0.17830467224121094
    endloop
  endfacet
  facet normal 0.3552652265316568 -0.2614436093949095 -0.8974596692464639
    outer loop
      vertex 0.13946300745010376 0.019094973802567583 0.18966293334960938
      vertex 0.1627880036830902 0.08977997303009139 0.17830467224121094
      vertex 0.15482699871063232 0.01778998970985518 0.19612503051757812
    endloop
  endfacet
  facet normal 0.8814934972312065 -0.3013876294809742 -0.36350338531427195
    outer loop
      vertex 0.13312101364135742 0.019045978784562212 0.1742267608642578
      vertex 0.15652000904083252 0.09018599987030135 0.17198562622070312
      vertex 0.15835201740264893 0.0901749730110179 0.1764373779296875
    endloop
  endfacet
  facet normal 0.8822088456636292 -0.30170363285827323 -0.36150030505238445
    outer loop
      vertex 0.13312101364135742 0.019045978784562212 0.1742267608642578
      vertex 0.15835201740264893 0.0901749730110179 0.1764373779296875
      vertex 0.13946300745010376 0.019094973802567583 0.18966293334960938
    endloop
  endfacet
  facet normal 0.20479636565189074 -0.9626313851595509 0.17719837731080187
    outer loop
      vertex 0.19362002611160278 0.003817975521088701 0.21486663818359375
      vertex 0.21025300025939941 1.0547118733938987e-15 0.17490196228027344
      vertex 0.22071900963783264 0.00222098827362166 0.17487144470214844
    endloop
  endfacet
  facet normal 0.20809785702268874 -0.9615166243514298 0.17939081079697514
    outer loop
      vertex 0.19362002611160278 0.003817975521088701 0.21486663818359375
      vertex 0.22071900963783264 0.00222098827362166 0.17487144470214844
      vertex 0.20111000537872314 0.006765991449357134 0.22197914123535156
    endloop
  endfacet
  facet normal 0.21111755832006993 -0.9733108601352601 -0.08997414135034636
    outer loop
      vertex 0.21025300025939941 1.0547118733938987e-15 0.17490196228027344
      vertex 0.19377300143241882 0.00013598799705610842 0.13476181030273438
      vertex 0.201291024684906 0.0024330019950877246 0.12755393981933594
    endloop
  endfacet
  facet normal 0.2065115309236702 -0.974373660005988 -0.08915693064533654
    outer loop
      vertex 0.21025300025939941 1.0547118733938987e-15 0.17490196228027344
      vertex 0.201291024684906 0.0024330019950877246 0.12755393981933594
      vertex 0.22071900963783264 0.00222098827362166 0.17487144470214844
    endloop
  endfacet
  facet normal 0.029631591546775738 -0.9591492424771126 -0.28134444980839
    outer loop
      vertex 0.19377300143241882 0.00013598799705610842 0.13476181030273438
      vertex 0.15383100509643555 0.0038259923458109912 0.11797523498535156
      vertex 0.15420502424240112 0.006832987070084673 0.10776329040527344
    endloop
  endfacet
  facet normal 0.027036484241902504 -0.9602539999990161 -0.27781519757876216
    outer loop
      vertex 0.19377300143241882 0.00013598799705610842 0.13476181030273438
      vertex 0.15420502424240112 0.006832987070084673 0.10776329040527344
      vertex 0.201291024684906 0.0024330019950877246 0.12755393981933594
    endloop
  endfacet
  facet normal -0.22553568055867573 -0.9334310134902905 -0.2789985660347097
    outer loop
      vertex 0.15383100509643555 0.0038259923458109912 0.11797523498535156
      vertex 0.113832026720047 0.00858998298645125 0.1343708038330078
      vertex 0.1070530116558075 0.012403994798661333 0.1270904541015625
    endloop
  endfacet
  facet normal -0.2260393780725911 -0.9321747482925375 -0.2827656948894269
    outer loop
      vertex 0.15383100509643555 0.0038259923458109912 0.11797523498535156
      vertex 0.1070530116558075 0.012403994798661333 0.1270904541015625
      vertex 0.15420502424240112 0.006832987070084673 0.10776329040527344
    endloop
  endfacet
  facet normal 0.025870544976699106 -0.9328258987025415 0.3593974924959889
    outer loop
      vertex 0.153624027967453 0.009018987417222124 0.2312450408935547
      vertex 0.19362002611160278 0.003817975521088701 0.21486663818359375
      vertex 0.20111000537872314 0.006765991449357134 0.22197914123535156
    endloop
  endfacet
  facet normal 0.026718234368313297 -0.9312647749884925 0.3633621538050881
    outer loop
      vertex 0.153624027967453 0.009018987417222124 0.2312450408935547
      vertex 0.20111000537872314 0.006765991449357134 0.22197914123535156
      vertex 0.15396201610565186 0.012943983078003984 0.24127960205078125
    endloop
  endfacet
  facet normal -0.22478377076615624 -0.9048669976257414 0.361507915553622
    outer loop
      vertex 0.11369100213050842 0.012230992317200762 0.21445465087890625
      vertex 0.153624027967453 0.009018987417222124 0.2312450408935547
      vertex 0.15396201610565186 0.012943983078003984 0.24127960205078125
    endloop
  endfacet
  facet normal -0.22260936496369274 -0.90668188483072 0.3582918228906074
    outer loop
      vertex 0.11369100213050842 0.012230992317200762 0.21445465087890625
      vertex 0.15396201610565186 0.012943983078003984 0.24127960205078125
      vertex 0.10688900947570801 0.01668000221252547 0.22148704528808594
    endloop
  endfacet
  facet normal -0.4068104407570541 -0.8968113539093363 0.17388116859037506
    outer loop
      vertex 0.09720802307128906 0.011928975582123857 0.1743335723876953
      vertex 0.11369100213050842 0.012230992317200762 0.21445465087890625
      vertex 0.10688900947570801 0.01668000221252547 0.22148704528808594
    endloop
  endfacet
  facet normal -0.40383547318275054 -0.8982450688946757 0.1734148402117396
    outer loop
      vertex 0.09720802307128906 0.011928975582123857 0.1743335723876953
      vertex 0.10688900947570801 0.01668000221252547 0.22148704528808594
      vertex 0.08745700120925903 0.01628598570823775 0.1741943359375
    endloop
  endfacet
  facet normal -0.40510206734631277 -0.909578154631438 -0.09251970411221358
    outer loop
      vertex 0.113832026720047 0.00858998298645125 0.1343708038330078
      vertex 0.09720802307128906 0.011928975582123857 0.1743335723876953
      vertex 0.08745700120925903 0.01628598570823775 0.1741943359375
    endloop
  endfacet
  facet normal -0.40854264866252427 -0.9077663025237038 -0.09514853769897133
    outer loop
      vertex 0.113832026720047 0.00858998298645125 0.1343708038330078
      vertex 0.08745700120925903 0.01628598570823775 0.1741943359375
      vertex 0.1070530116558075 0.012403994798661333 0.1270904541015625
    endloop
  endfacet
  facet normal -0.9218042509494758 -0.08121045026695396 0.3790538031716797
    outer loop
      vertex 0.17661401629447937 0.014444977045060259 0.1744537353515625
      vertex 0.16907700896263123 0.08884999155998335 0.17206573486328125
      vertex 0.16724500060081482 0.08886599540710555 0.16761398315429688
    endloop
  endfacet
  facet normal -0.9219957569676354 -0.08127873911463729 0.3785730982275576
    outer loop
      vertex 0.17661401629447937 0.014444977045060259 0.1744537353515625
      vertex 0.16724500060081482 0.08886599540710555 0.16761398315429688
      vertex 0.17027300596237183 0.014459997415543657 0.1590137481689453
    endloop
  endfacet
  facet normal -0.39437860005961367 -0.12133637880418591 0.9109023015635137
    outer loop
      vertex 0.17027300596237183 0.014459997415543657 0.1590137481689453
      vertex 0.16724500060081482 0.08886599540710555 0.16761398315429688
      vertex 0.16280901432037354 0.0892660021781932 0.16574668884277344
    endloop
  endfacet
  facet normal -0.3939121989970916 -0.12130834032503428 0.9111078235032675
    outer loop
      vertex 0.17027300596237183 0.014459997415543657 0.1590137481689453
      vertex 0.16280901432037354 0.0892660021781932 0.16574668884277344
      vertex 0.1549070179462433 0.015836000442505938 0.15255355834960938
    endloop
  endfacet
  facet normal 0.3481717319250834 -0.20194096492828986 0.9154213738886148
    outer loop
      vertex 0.1549070179462433 0.015836000442505938 0.15255355834960938
      vertex 0.16280901432037354 0.0892660021781932 0.16574668884277344
      vertex 0.15836602449417114 0.08981099724769698 0.1675567626953125
    endloop
  endfacet
  facet normal 0.3499243942454611 -0.20188962845123956 0.9147641752035153
    outer loop
      vertex 0.1549070179462433 0.015836000442505938 0.15255355834960938
      vertex 0.15836602449417114 0.08981099724769698 0.1675567626953125
      vertex 0.13951802253723145 0.017716974020005327 0.15885543823242188
    endloop
  endfacet
  facet normal 0.8784515840255545 -0.2766790689063991 0.38957862794573656
    outer loop
      vertex 0.13951802253723145 0.017716974020005327 0.15885543823242188
      vertex 0.15836602449417114 0.08981099724769698 0.1675567626953125
      vertex 0.15652000904083252 0.09018599987030135 0.17198562622070312
    endloop
  endfacet
  facet normal 0.8784814100956809 -0.27667447149822016 0.3895146325075409
    outer loop
      vertex 0.13951802253723145 0.017716974020005327 0.15885543823242188
      vertex 0.15652000904083252 0.09018599987030135 0.17198562622070312
      vertex 0.13312101364135742 0.019045978784562212 0.1742267608642578
    endloop
  endfacet
endsolid Standard Male Figure
