solid Standard Male Figure
  facet normal -0.10943669663272096 0.9936011482100295 -0.02793506230221756
    outer loop
      vertex 0.15278500318527222 0.30237400904297934 0.13874244689941406
      vertex 0.1375100016593933 0.30087301135063277 0.14519500732421875
      vertex 0.1311970055103302 0.3006070107221614 0.16046524047851562
    endloop
  endfacet
  facet normal -0.1083364664475503 0.9937521797356543 -0.026829373982532486
    outer loop
      vertex 0.15278500318527222 0.30237400904297934 0.13874244689941406
      vertex 0.1311970055103302 0.3006070107221614 0.16046524047851562
      vertex 0.15280699729919434 0.30295700952410803 0.160247802734375
    endloop
  endfacet
  facet normal -0.10751018716822502 0.9938183549806797 -0.0276882097389667
    outer loop
      vertex 0.1744149923324585 0.3053070083260547 0.16003036499023438
      vertex 0.16807201504707336 0.30419901013374434 0.14488983154296875
      vertex 0.15278500318527222 0.30237400904297934 0.13874244689941406
    endloop
  endfacet
  facet normal -0.10834636003654498 0.9937511021724561 -0.026829334651837802
    outer loop
      vertex 0.1744149923324585 0.3053070083260547 0.16003036499023438
      vertex 0.15278500318527222 0.30237400904297934 0.13874244689941406
      vertex 0.15280699729919434 0.30295700952410803 0.160247802734375
    endloop
  endfacet
  facet normal -0.10716256480471709 0.9937984762137222 -0.02967782639882507
    outer loop
      vertex 0.15283000469207764 0.303628008812667 0.1817474365234375
      vertex 0.1681010127067566 0.30508200824260817 0.1752948760986328
      vertex 0.1744149923324585 0.3053070083260547 0.16003036499023438
    endloop
  endfacet
  facet normal -0.10837410042217435 0.9936299875286128 -0.030895019688831942
    outer loop
      vertex 0.15283000469207764 0.303628008812667 0.1817474365234375
      vertex 0.1744149923324585 0.3053070083260547 0.16003036499023438
      vertex 0.15280699729919434 0.30295700952410803 0.160247802734375
    endloop
  endfacet
  facet normal -0.10836420435888544 0.9936310654558841 -0.03089506392079679
    outer loop
      vertex 0.15283000469207764 0.303628008812667 0.1817474365234375
      vertex 0.15280699729919434 0.30295700952410803 0.160247802734375
      vertex 0.1311970055103302 0.3006070107221614 0.16046524047851562
    endloop
  endfacet
  facet normal -0.10923161553470699 0.9935633996731812 -0.030003749724794932
    outer loop
      vertex 0.15283000469207764 0.303628008812667 0.1817474365234375
      vertex 0.1311970055103302 0.3006070107221614 0.16046524047851562
      vertex 0.13754400610923767 0.3017620109021674 0.17560577392578125
    endloop
  endfacet
  facet normal 0.10631232711139998 -0.9934692594823821 0.041430901120855
    outer loop
      vertex 0.1762630045413971 0.08979001641273604 0.17832374572753906
      vertex 0.1718200147151947 0.08923900127410994 0.1765117645263672
      vertex 0.17625299096107483 0.08952701091766463 0.1720428466796875
    endloop
  endfacet
  facet normal 0.10567731441325184 -0.993536847446622 0.041434743684865494
    outer loop
      vertex 0.1762630045413971 0.08979001641273604 0.17832374572753906
      vertex 0.17625299096107483 0.08952701091766463 0.1720428466796875
      vertex 0.18070000410079956 0.09018400311470137 0.1764545440673828
    endloop
  endfacet
  facet normal 0.1061155110178563 -0.993508637836104 0.040988838315671274
    outer loop
      vertex 0.18253201246261597 0.09019601345062361 0.17200279235839844
      vertex 0.18070000410079956 0.09018400311470137 0.1764545440673828
      vertex 0.17625299096107483 0.08952701091766463 0.1720428466796875
    endloop
  endfacet
  facet normal 0.10611330654043423 -0.9935533185772317 0.039896983836198115
    outer loop
      vertex 0.18253201246261597 0.09019601345062361 0.17200279235839844
      vertex 0.17625299096107483 0.08952701091766463 0.1720428466796875
      vertex 0.18068599700927734 0.08982101082801924 0.1675739288330078
    endloop
  endfacet
  facet normal 0.10544277105339746 -0.9935978584526597 0.04056005067636215
    outer loop
      vertex 0.17180600762367249 0.08887499570846663 0.1676311492919922
      vertex 0.17625299096107483 0.08952701091766463 0.1720428466796875
      vertex 0.1718200147151947 0.08923900127410994 0.1765117645263672
    endloop
  endfacet
  facet normal 0.10719687333243104 -0.9934105695531027 0.04054960724755475
    outer loop
      vertex 0.17180600762367249 0.08887499570846663 0.1676311492919922
      vertex 0.1718200147151947 0.08923900127410994 0.1765117645263672
      vertex 0.16997399926185608 0.08885902166366683 0.17208290100097656
    endloop
  endfacet
  facet normal 0.10592574509105326 -0.9935808585559763 0.03970911782039789
    outer loop
      vertex 0.17624300718307495 0.08927500247955428 0.16576385498046875
      vertex 0.18068599700927734 0.08982101082801924 0.1675739288330078
      vertex 0.17625299096107483 0.08952701091766463 0.1720428466796875
    endloop
  endfacet
  facet normal 0.10628097701889266 -0.9935430063122146 0.03970703378491215
    outer loop
      vertex 0.17624300718307495 0.08927500247955428 0.16576385498046875
      vertex 0.17625299096107483 0.08952701091766463 0.1720428466796875
      vertex 0.17180600762367249 0.08887499570846663 0.1676311492919922
    endloop
  endfacet
  facet normal -0.18029154240913015 0.9727085168005213 0.14605855359911948
    outer loop
      vertex 0.10806599259376526 0.2915820106863986 0.20671463012695312
      vertex 0.15375500917434692 0.29729500785470114 0.2250652313232422
      vertex 0.15283000469207764 0.303628008812667 0.1817474365234375
    endloop
  endfacet
  facet normal -0.17859982948073852 0.9725706222199315 0.14902511769559676
    outer loop
      vertex 0.10806599259376526 0.2915820106863986 0.20671463012695312
      vertex 0.15283000469207764 0.303628008812667 0.1817474365234375
      vertex 0.13754400610923767 0.3017620109021674 0.17560577392578125
    endloop
  endfacet
  facet normal -0.028741551524202928 0.9888045326967305 0.14642240038457896
    outer loop
      vertex 0.15375500917434692 0.29729500785470114 0.2250652313232422
      vertex 0.19939199090003967 0.3014770112931739 0.2057819366455078
      vertex 0.1681010127067566 0.30508200824260817 0.1752948760986328
    endloop
  endfacet
  facet normal -0.03277025619249905 0.9888494657678175 0.1452681808235366
    outer loop
      vertex 0.15375500917434692 0.29729500785470114 0.2250652313232422
      vertex 0.1681010127067566 0.30508200824260817 0.1752948760986328
      vertex 0.15283000469207764 0.303628008812667 0.1817474365234375
    endloop
  endfacet
  facet normal 0.07502551379193789 0.9962779593765362 0.04244290212486285
    outer loop
      vertex 0.19939199090003967 0.3014770112931739 0.2057819366455078
      vertex 0.21826699376106262 0.30199901014566527 0.16016387939453125
      vertex 0.1744149923324585 0.3053070083260547 0.16003036499023438
    endloop
  endfacet
  facet normal 0.07162391006218194 0.9964468270835796 0.04431406438673045
    outer loop
      vertex 0.19939199090003967 0.3014770112931739 0.2057819366455078
      vertex 0.1744149923324585 0.3053070083260547 0.16003036499023438
      vertex 0.1681010127067566 0.30508200824260817 0.1752948760986328
    endloop
  endfacet
  facet normal 0.07422610427975918 0.9921106085993244 -0.10102982603235675
    outer loop
      vertex 0.21826699376106262 0.30199901014566527 0.16016387939453125
      vertex 0.19931799173355103 0.2988070100545894 0.11489677429199219
      vertex 0.16807201504707336 0.30419901013374434 0.14488983154296875
    endloop
  endfacet
  facet normal 0.07512849146471061 0.9917304515920622 -0.10405008964552286
    outer loop
      vertex 0.21826699376106262 0.30199901014566527 0.16016387939453125
      vertex 0.16807201504707336 0.30419901013374434 0.14488983154296875
      vertex 0.1744149923324585 0.3053070083260547 0.16003036499023438
    endloop
  endfacet
  facet normal -0.031022411685203203 0.9778876967649303 -0.20681697824166573
    outer loop
      vertex 0.19931799173355103 0.2988070100545894 0.11489677429199219
      vertex 0.15362101793289185 0.29346701130271063 0.09650230407714844
      vertex 0.15278500318527222 0.30237400904297934 0.13874244689941406
    endloop
  endfacet
  facet normal -0.03243238052713765 0.9772755933854361 -0.2094768609333413
    outer loop
      vertex 0.19931799173355103 0.2988070100545894 0.11489677429199219
      vertex 0.15278500318527222 0.30237400904297934 0.13874244689941406
      vertex 0.16807201504707336 0.30419901013374434 0.14488983154296875
    endloop
  endfacet
  facet normal -0.18451467072245004 0.9607455907561757 -0.2071768474775899
    outer loop
      vertex 0.15362101793289185 0.29346701130271063 0.09650230407714844
      vertex 0.10795000195503235 0.28885401040315734 0.11578559875488281
      vertex 0.1375100016593933 0.30087301135063277 0.14519500732421875
    endloop
  endfacet
  facet normal -0.18164127404388558 0.961473634258739 -0.2063368561091469
    outer loop
      vertex 0.15362101793289185 0.29346701130271063 0.09650230407714844
      vertex 0.1375100016593933 0.30087301135063277 0.14519500732421875
      vertex 0.15278500318527222 0.30237400904297934 0.13874244689941406
    endloop
  endfacet
  facet normal -0.2883375575867429 0.9522437971261054 -0.10046493776322317
    outer loop
      vertex 0.10795000195503235 0.28885401040315734 0.11578559875488281
      vertex 0.0890830010175705 0.28795900940895186 0.1614513397216797
      vertex 0.1311970055103302 0.3006070107221614 0.16046524047851562
    endloop
  endfacet
  facet normal -0.2861881192052548 0.9527589638693016 -0.10171881434844661
    outer loop
      vertex 0.10795000195503235 0.28885401040315734 0.11578559875488281
      vertex 0.1311970055103302 0.3006070107221614 0.16046524047851562
      vertex 0.1375100016593933 0.30087301135063277 0.14519500732421875
    endloop
  endfacet
  facet normal -0.28527636407320484 0.9574801080510456 0.04300277651187904
    outer loop
      vertex 0.0890830010175705 0.28795900940895186 0.1614513397216797
      vertex 0.10806599259376526 0.2915820106863986 0.20671463012695312
      vertex 0.13754400610923767 0.3017620109021674 0.17560577392578125
    endloop
  endfacet
  facet normal -0.2863076748680144 0.9569833929319173 0.047018091881603594
    outer loop
      vertex 0.0890830010175705 0.28795900940895186 0.1614513397216797
      vertex 0.13754400610923767 0.3017620109021674 0.17560577392578125
      vertex 0.1311970055103302 0.3006070107221614 0.16046524047851562
    endloop
  endfacet
  facet normal -0.29747256220232415 0.8299663048762611 0.4718749913979651
    outer loop
      vertex 0.07301999628543854 0.25526400655508147 0.24809646606445312
      vertex 0.15757599472999573 0.26624801009893523 0.28208160400390625
      vertex 0.15375500917434692 0.29729500785470114 0.2250652313232422
    endloop
  endfacet
  facet normal -0.2950435640140068 0.8280075953761532 0.47681518152562313
    outer loop
      vertex 0.07301999628543854 0.25526400655508147 0.24809646606445312
      vertex 0.15375500917434692 0.29729500785470114 0.2250652313232422
      vertex 0.10806599259376526 0.2915820106863986 0.20671463012695312
    endloop
  endfacet
  facet normal 0.12459783401804708 0.873073386794272 0.4714002980796581
    outer loop
      vertex 0.15757599472999573 0.26624801009893523 0.28208160400390625
      vertex 0.24201199412345886 0.2734570130705844 0.2464122772216797
      vertex 0.19939199090003967 0.3014770112931739 0.2057819366455078
    endloop
  endfacet
  facet normal 0.11786048495914758 0.8754123884266688 0.46878785849711363
    outer loop
      vertex 0.15757599472999573 0.26624801009893523 0.28208160400390625
      vertex 0.19939199090003967 0.3014770112931739 0.2057819366455078
      vertex 0.15375500917434692 0.29729500785470114 0.2250652313232422
    endloop
  endfacet
  facet normal 0.4205548363296594 0.8895176160440975 0.1785834269661071
    outer loop
      vertex 0.24201199412345886 0.2734570130705844 0.2464122772216797
      vertex 0.2769460082054138 0.2738920077681552 0.16197776794433594
      vertex 0.21826699376106262 0.30199901014566527 0.16016387939453125
    endloop
  endfacet
  facet normal 0.4136579239113809 0.8921849013572339 0.18136489124279012
    outer loop
      vertex 0.24201199412345886 0.2734570130705844 0.2464122772216797
      vertex 0.21826699376106262 0.30199901014566527 0.16016387939453125
      vertex 0.19939199090003967 0.3014770112931739 0.2057819366455078
    endloop
  endfacet
  facet normal 0.4241689508330667 0.8740676209400963 -0.2368258752191061
    outer loop
      vertex 0.2769460082054138 0.2738920077681552 0.16197776794433594
      vertex 0.24189400672912598 0.2681840062141429 0.07813072204589844
      vertex 0.19931799173355103 0.2988070100545894 0.11489677429199219
    endloop
  endfacet
  facet normal 0.4254241674515019 0.8726943751432307 -0.23962221378987944
    outer loop
      vertex 0.2769460082054138 0.2738920077681552 0.16197776794433594
      vertex 0.19931799173355103 0.2988070100545894 0.11489677429199219
      vertex 0.21826699376106262 0.30199901014566527 0.16016387939453125
    endloop
  endfacet
  facet normal 0.12480657584813197 0.830362210121725 -0.5430671400727806
    outer loop
      vertex 0.24189400672912598 0.2681840062141429 0.07813072204589844
      vertex 0.15731200575828552 0.2585680112242709 0.04398918151855469
      vertex 0.15362101793289185 0.29346701130271063 0.09650230407714844
    endloop
  endfacet
  facet normal 0.12336324956927673 0.8280824321212464 -0.5468646946620981
    outer loop
      vertex 0.24189400672912598 0.2681840062141429 0.07813072204589844
      vertex 0.15362101793289185 0.29346701130271063 0.09650230407714844
      vertex 0.19931799173355103 0.2988070100545894 0.11489677429199219
    endloop
  endfacet
  facet normal -0.3099392475181875 0.7808141133564686 -0.5424638082224581
    outer loop
      vertex 0.15731200575828552 0.2585680112242709 0.04398918151855469
      vertex 0.07276700437068939 0.24979200959205733 0.07966232299804688
      vertex 0.10795000195503235 0.28885401040315734 0.11578559875488281
    endloop
  endfacet
  facet normal -0.3076751667739225 0.7823413773635943 -0.5415514389376811
    outer loop
      vertex 0.15731200575828552 0.2585680112242709 0.04398918151855469
      vertex 0.10795000195503235 0.28885401040315734 0.11578559875488281
      vertex 0.15362101793289185 0.29346701130271063 0.09650230407714844
    endloop
  endfacet
  facet normal -0.6060835242854122 0.7602441146033904 -0.23386245487611113
    outer loop
      vertex 0.07276700437068939 0.24979200959205733 0.07966232299804688
      vertex 0.037859007716178894 0.2479840070009242 0.16425323486328125
      vertex 0.0890830010175705 0.28795900940895186 0.1614513397216797
    endloop
  endfacet
  facet normal -0.6043060911807454 0.7613848480845116 -0.234749358399919
    outer loop
      vertex 0.07276700437068939 0.24979200959205733 0.07966232299804688
      vertex 0.0890830010175705 0.28795900940895186 0.1614513397216797
      vertex 0.10795000195503235 0.28885401040315734 0.11578559875488281
    endloop
  endfacet
  facet normal -0.5958075359047466 0.7822475906655121 0.18193978964788302
    outer loop
      vertex 0.037859007716178894 0.2479840070009242 0.16425323486328125
      vertex 0.07301999628543854 0.25526400655508147 0.24809646606445312
      vertex 0.10806599259376526 0.2915820106863986 0.20671463012695312
    endloop
  endfacet
  facet normal -0.5977927171997108 0.7792128094541872 0.1883381661944789
    outer loop
      vertex 0.037859007716178894 0.2479840070009242 0.16425323486328125
      vertex 0.10806599259376526 0.2915820106863986 0.20671463012695312
      vertex 0.0890830010175705 0.28795900940895186 0.1614513397216797
    endloop
  endfacet
  facet normal -0.3720515212972486 0.5694597597547387 0.7330028973479424
    outer loop
      vertex 0.05260699987411499 0.2035720050334941 0.2774944305419922
      vertex 0.16323301196098328 0.21846501529216872 0.32207489013671875
      vertex 0.15757599472999573 0.26624801009893523 0.28208160400390625
    endloop
  endfacet
  facet normal -0.36978629238078525 0.5653501945431616 0.7373176082918962
    outer loop
      vertex 0.05260699987411499 0.2035720050334941 0.2774944305419922
      vertex 0.15757599472999573 0.26624801009893523 0.28208160400390625
      vertex 0.07301999628543854 0.25526400655508147 0.24809646606445312
    endloop
  endfacet
  facet normal 0.2577685888716457 0.6339551942209071 0.7291475614108932
    outer loop
      vertex 0.16323301196098328 0.21846501529216872 0.32207489013671875
      vertex 0.27368199825286865 0.22719100862741576 0.27544212341308594
      vertex 0.24201199412345886 0.2734570130705844 0.2464122772216797
    endloop
  endfacet
  facet normal 0.2526257927523997 0.6384268016762541 0.7270429339025658
    outer loop
      vertex 0.16323301196098328 0.21846501529216872 0.32207489013671875
      vertex 0.24201199412345886 0.2734570130705844 0.2464122772216797
      vertex 0.15757599472999573 0.26624801009893523 0.28208160400390625
    endloop
  endfacet
  facet normal 0.7009280887269022 0.6522278233315437 0.28861510858901473
    outer loop
      vertex 0.27368199825286865 0.22719100862741576 0.27544212341308594
      vertex 0.31937700510025024 0.2269930094480525 0.1649150848388672
      vertex 0.2769460082054138 0.2738920077681552 0.16197776794433594
    endloop
  endfacet
  facet normal 0.6946447814619127 0.6579576240753964 0.29079269679410963
    outer loop
      vertex 0.27368199825286865 0.22719100862741576 0.27544212341308594
      vertex 0.2769460082054138 0.2738920077681552 0.16197776794433594
      vertex 0.24201199412345886 0.2734570130705844 0.2464122772216797
    endloop
  endfacet
  facet normal 0.707675953139627 0.6209251902971764 -0.3371151930755066
    outer loop
      vertex 0.31937700510025024 0.2269930094480525 0.1649150848388672
      vertex 0.2735159993171692 0.2196160107851039 0.05505561828613281
      vertex 0.24189400672912598 0.2681840062141429 0.07813072204589844
    endloop
  endfacet
  facet normal 0.7082744069278877 0.6196118378801558 -0.3382728704015804
    outer loop
      vertex 0.31937700510025024 0.2269930094480525 0.1649150848388672
      vertex 0.24189400672912598 0.2681840062141429 0.07813072204589844
      vertex 0.2769460082054138 0.2738920077681552 0.16197776794433594
    endloop
  endfacet
  facet normal 0.26011592364581476 0.5506495239398028 -0.793173882607561
    outer loop
      vertex 0.2735159993171692 0.2196160107851039 0.05505561828613281
      vertex 0.16284599900245667 0.20730000734329326 0.010211944580078125
      vertex 0.15731200575828552 0.2585680112242709 0.04398918151855469
    endloop
  endfacet
  facet normal 0.2591463890497352 0.5469391112849964 -0.7960532379114234
    outer loop
      vertex 0.2735159993171692 0.2196160107851039 0.05505561828613281
      vertex 0.15731200575828552 0.2585680112242709 0.04398918151855469
      vertex 0.24189400672912598 0.2681840062141429 0.07813072204589844
    endloop
  endfacet
  facet normal -0.3833261708820049 0.4785436006635912 -0.7899728280016124
    outer loop
      vertex 0.16284599900245667 0.20730000734329326 0.010211944580078125
      vertex 0.0522330105304718 0.19566100835800276 0.056835174560546875
      vertex 0.07276700437068939 0.24979200959205733 0.07966232299804688
    endloop
  endfacet
  facet normal -0.38299144359539616 0.47903336467781316 -0.7898383313426665
    outer loop
      vertex 0.16284599900245667 0.20730000734329326 0.010211944580078125
      vertex 0.07276700437068939 0.24979200959205733 0.07966232299804688
      vertex 0.15731200575828552 0.2585680112242709 0.04398918151855469
    endloop
  endfacet
  facet normal -0.8277645699095658 0.45280212829729377 -0.33132468880521504
    outer loop
      vertex 0.0522330105304718 0.19566100835800276 0.056835174560546875
      vertex 0.006581008434295654 0.19327101111412154 0.16762351989746094
      vertex 0.037859007716178894 0.2479840070009242 0.16425323486328125
    endloop
  endfacet
  facet normal -0.8271749523608593 0.4536383984705441 -0.33165313449429357
    outer loop
      vertex 0.0522330105304718 0.19566100835800276 0.056835174560546875
      vertex 0.037859007716178894 0.2479840070009242 0.16425323486328125
      vertex 0.07276700437068939 0.24979200959205733 0.07966232299804688
    endloop
  endfacet
  facet normal -0.8184767452225924 0.4919753089274809 0.29674250274529446
    outer loop
      vertex 0.006581008434295654 0.19327101111412154 0.16762351989746094
      vertex 0.05260699987411499 0.2035720050334941 0.2774944305419922
      vertex 0.07301999628543854 0.25526400655508147 0.24809646606445312
    endloop
  endfacet
  facet normal -0.8196517868572888 0.4871419129553533 0.3014360710728768
    outer loop
      vertex 0.006581008434295654 0.19327101111412154 0.16762351989746094
      vertex 0.07301999628543854 0.25526400655508147 0.24809646606445312
      vertex 0.037859007716178894 0.2479840070009242 0.16425323486328125
    endloop
  endfacet
  facet normal -0.39168080609464184 0.21146355601257347 0.8954715576809622
    outer loop
      vertex 0.04990500211715698 0.14414201676845656 0.2900562286376953
      vertex 0.1698330044746399 0.16068701446056471 0.3386058807373047
      vertex 0.16323301196098328 0.21846501529216872 0.32207489013671875
    endloop
  endfacet
  facet normal -0.3895394951219426 0.2073861259726553 0.8973572178871669
    outer loop
      vertex 0.04990500211715698 0.14414201676845656 0.2900562286376953
      vertex 0.16323301196098328 0.21846501529216872 0.32207489013671875
      vertex 0.05260699987411499 0.2035720050334941 0.2774944305419922
    endloop
  endfacet
  facet normal 0.3531251973407502 0.2925921804594033 0.8886463925190199
    outer loop
      vertex 0.1698330044746399 0.16068701446056471 0.3386058807373047
      vertex 0.28955700993537903 0.16956101357936965 0.28810882568359375
      vertex 0.27368199825286865 0.22719100862741576 0.27544212341308594
    endloop
  endfacet
  facet normal 0.3518885499369178 0.2944167966168872 0.8885342977584736
    outer loop
      vertex 0.1698330044746399 0.16068701446056471 0.3386058807373047
      vertex 0.27368199825286865 0.22719100862741576 0.27544212341308594
      vertex 0.16323301196098328 0.21846501529216872 0.32207489013671875
    endloop
  endfacet
  facet normal 0.8778218714818712 0.3161203460839266 0.35985648353176014
    outer loop
      vertex 0.28955700993537903 0.16956101357936965 0.28810882568359375
      vertex 0.3390670120716095 0.16861900687217818 0.16816329956054688
      vertex 0.31937700510025024 0.2269930094480525 0.1649150848388672
    endloop
  endfacet
  facet normal 0.8755522066204666 0.3206176699385369 0.36140371221836526
    outer loop
      vertex 0.28955700993537903 0.16956101357936965 0.28810882568359375
      vertex 0.31937700510025024 0.2269930094480525 0.1649150848388672
      vertex 0.27368199825286865 0.22719100862741576 0.27544212341308594
    endloop
  endfacet
  facet normal 0.8803414464749248 0.27607018888683077 -0.3857255350977257
    outer loop
      vertex 0.3390670120716095 0.16861900687217818 0.16816329956054688
      vertex 0.2893199920654297 0.16051600873470412 0.04882621765136719
      vertex 0.2735159993171692 0.2196160107851039 0.05505561828613281
    endloop
  endfacet
  facet normal 0.8803954819896613 0.27548417361335353 -0.3860210685710814
    outer loop
      vertex 0.3390670120716095 0.16861900687217818 0.16816329956054688
      vertex 0.2735159993171692 0.2196160107851039 0.05505561828613281
      vertex 0.31937700510025024 0.2269930094480525 0.1649150848388672
    endloop
  endfacet
  facet normal 0.3513930702569604 0.193970964483679 -0.9159138469925313
    outer loop
      vertex 0.2893199920654297 0.16051600873470412 0.04882621765136719
      vertex 0.16934701800346375 0.14730301499366863 0
      vertex 0.16284599900245667 0.20730000734329326 0.010211944580078125
    endloop
  endfacet
  facet normal 0.3504049674424267 0.19036312455375934 -0.9170486571615498
    outer loop
      vertex 0.2893199920654297 0.16051600873470412 0.04882621765136719
      vertex 0.16284599900245667 0.20730000734329326 0.010211944580078125
      vertex 0.2735159993171692 0.2196160107851039 0.05505561828613281
    endloop
  endfacet
  facet normal -0.39561755527178055 0.11308809643771255 -0.9114262627359793
    outer loop
      vertex 0.16934701800346375 0.14730301499366863 0
      vertex 0.04946400225162506 0.13470801711082564 0.05047416687011719
      vertex 0.0522330105304718 0.19566100835800276 0.056835174560546875
    endloop
  endfacet
  facet normal -0.3959563288089089 0.11222074766176847 -0.9113863557626947
    outer loop
      vertex 0.16934701800346375 0.14730301499366863 0
      vertex 0.0522330105304718 0.19566100835800276 0.056835174560546875
      vertex 0.16284599900245667 0.20730000734329326 0.010211944580078125
    endloop
  endfacet
  facet normal -0.9223494629100644 0.0805077629727371 -0.37787559906752555
    outer loop
      vertex 0.04946400225162506 0.13470801711082564 0.05047416687011719
      vertex 0 0.13230600953102217 0.1706981658935547
      vertex 0.006581008434295654 0.19327101111412154 0.16762351989746094
    endloop
  endfacet
  facet normal -0.9221320062861856 0.08136223363684225 -0.3782231483135821
    outer loop
      vertex 0.04946400225162506 0.13470801711082564 0.05047416687011719
      vertex 0.006581008434295654 0.19327101111412154 0.16762351989746094
      vertex 0.0522330105304718 0.19566100835800276 0.056835174560546875
    endloop
  endfacet
  facet normal -0.9200674162461753 0.12061557375519892 0.3727302415015333
    outer loop
      vertex 0 0.13230600953102217 0.1706981658935547
      vertex 0.04990500211715698 0.14414201676845656 0.2900562286376953
      vertex 0.05260699987411499 0.2035720050334941 0.2774944305419922
    endloop
  endfacet
  facet normal -0.9197787140747901 0.1181609738377532 0.37422600310058535
    outer loop
      vertex 0 0.13230600953102217 0.1706981658935547
      vertex 0.05260699987411499 0.2035720050334941 0.2774944305419922
      vertex 0.006581008434295654 0.19327101111412154 0.16762351989746094
    endloop
  endfacet
  facet normal -0.34718452960091395 -0.19016353689519852 0.9183140702620757
    outer loop
      vertex 0.06539200246334076 0.08563700318336592 0.28357887268066406
      vertex 0.1763319969177246 0.10101801156997786 0.3287067413330078
      vertex 0.1698330044746399 0.16068701446056471 0.3386058807373047
    endloop
  endfacet
  facet normal -0.34518156275363654 -0.19306120732022025 0.9184645115425072
    outer loop
      vertex 0.06539200246334076 0.08563700318336592 0.28357887268066406
      vertex 0.1698330044746399 0.16068701446056471 0.3386058807373047
      vertex 0.04990500211715698 0.14414201676845656 0.2900562286376953
    endloop
  endfacet
  facet normal 0.39256042764929516 -0.1074412010739758 0.9134290880826951
    outer loop
      vertex 0.1763319969177246 0.10101801156997786 0.3287067413330078
      vertex 0.2870829999446869 0.1090370118618022 0.28205299377441406
      vertex 0.28955700993537903 0.16956101357936965 0.28810882568359375
    endloop
  endfacet
  facet normal 0.3931508648181006 -0.10865181035532005 0.9130318623132991
    outer loop
      vertex 0.1763319969177246 0.10101801156997786 0.3287067413330078
      vertex 0.28955700993537903 0.16956101357936965 0.28810882568359375
      vertex 0.1698330044746399 0.16068701446056471 0.3386058807373047
    endloop
  endfacet
  facet normal 0.9215799178672105 -0.07665540291238768 0.3805448780212464
    outer loop
      vertex 0.2870829999446869 0.1090370118618022 0.28205299377441406
      vertex 0.33285000920295715 0.10777601599693404 0.17096328735351562
      vertex 0.3390670120716095 0.16861900687217818 0.16816329956054688
    endloop
  endfacet
  facet normal 0.9214821050713937 -0.0757841752540332 0.3809560195275285
    outer loop
      vertex 0.2870829999446869 0.1090370118618022 0.28205299377441406
      vertex 0.3390670120716095 0.16861900687217818 0.16816329956054688
      vertex 0.28955700993537903 0.16956101357936965 0.28810882568359375
    endloop
  endfacet
  facet normal 0.9203125567400472 -0.10985962766184991 -0.3754406212926316
    outer loop
      vertex 0.33285000920295715 0.10777601599693404 0.17096328735351562
      vertex 0.28679701685905457 0.09994500875473128 0.06036567687988281
      vertex 0.2893199920654297 0.16051600873470412 0.04882621765136719
    endloop
  endfacet
  facet normal 0.9199395794505105 -0.11130068037818837 -0.37592995186306966
    outer loop
      vertex 0.33285000920295715 0.10777601599693404 0.17096328735351562
      vertex 0.2893199920654297 0.16051600873470412 0.04882621765136719
      vertex 0.3390670120716095 0.16861900687217818 0.16816329956054688
    endloop
  endfacet
  facet normal 0.3890813065211633 -0.18529007381543094 -0.9023764876487291
    outer loop
      vertex 0.28679701685905457 0.09994500875473128 0.06036567687988281
      vertex 0.17582499980926514 0.08764401078224288 0.015043258666992188
      vertex 0.16934701800346375 0.14730301499366863 0
    endloop
  endfacet
  facet normal 0.3879269144250973 -0.18805693951789726 -0.9023011119154098
    outer loop
      vertex 0.28679701685905457 0.09994500875473128 0.06036567687988281
      vertex 0.16934701800346375 0.14730301499366863 0
      vertex 0.2893199920654297 0.16051600873470412 0.04882621765136719
    endloop
  endfacet
  facet normal -0.35056224901042077 -0.26497452679796923 -0.8982731264581769
    outer loop
      vertex 0.17582499980926514 0.08764401078224288 0.015043258666992188
      vertex 0.06496800482273102 0.07621499896049605 0.06167793273925781
      vertex 0.04946400225162506 0.13470801711082564 0.05047416687011719
    endloop
  endfacet
  facet normal -0.35046326432156605 -0.26459561189836667 -0.8984234316430093
    outer loop
      vertex 0.17582499980926514 0.08764401078224288 0.015043258666992188
      vertex 0.04946400225162506 0.13470801711082564 0.05047416687011719
      vertex 0.16934701800346375 0.14730301499366863 0
    endloop
  endfacet
  facet normal -0.8787524257989578 -0.3061302675250903 -0.3661672206212125
    outer loop
      vertex 0.06496800482273102 0.07621499896049605 0.06167793273925781
      vertex 0.01923300325870514 0.07438701391220198 0.17296409606933594
      vertex 0 0.13230600953102217 0.1706981658935547
    endloop
  endfacet
  facet normal -0.8790377928412847 -0.3034298456131482 -0.3677266478621095
    outer loop
      vertex 0.06496800482273102 0.07621499896049605 0.06167793273925781
      vertex 0 0.13230600953102217 0.1706981658935547
      vertex 0.04946400225162506 0.13470801711082564 0.05047416687011719
    endloop
  endfacet
  facet normal -0.8768117355341364 -0.27571677044527937 0.39393075904889774
    outer loop
      vertex 0.01923300325870514 0.07438701391220198 0.17296409606933594
      vertex 0.06539200246334076 0.08563700318336592 0.28357887268066406
      vertex 0.04990500211715698 0.14414201676845656 0.2900562286376953
    endloop
  endfacet
  facet normal -0.8767976536974715 -0.27574380783456093 0.39394317726228706
    outer loop
      vertex 0.01923300325870514 0.07438701391220198 0.17296409606933594
      vertex 0.04990500211715698 0.14414201676845656 0.2900562286376953
      vertex 0 0.13230600953102217 0.1706981658935547
    endloop
  endfacet
  facet normal -0.24992911212083094 -0.5514185557961259 0.7959101803835706
    outer loop
      vertex 0.09675000607967377 0.03675100207328902 0.25919151306152344
      vertex 0.18174400925636292 0.04832202196121321 0.2938976287841797
      vertex 0.1763319969177246 0.10101801156997786 0.3287067413330078
    endloop
  endfacet
  facet normal -0.24642438551411072 -0.5545707418425407 0.7948121252951587
    outer loop
      vertex 0.09675000607967377 0.03675100207328902 0.25919151306152344
      vertex 0.1763319969177246 0.10101801156997786 0.3287067413330078
      vertex 0.06539200246334076 0.08563700318336592 0.28357887268066406
    endloop
  endfacet
  facet normal 0.3694164723359921 -0.48646756802080116 0.7917580282073297
    outer loop
      vertex 0.18174400925636292 0.04832202196121321 0.2938976287841797
      vertex 0.2665970027446747 0.0546450018882762 0.2581920623779297
      vertex 0.2870829999446869 0.1090370118618022 0.28205299377441406
    endloop
  endfacet
  facet normal 0.36899543388798667 -0.485594256376893 0.7924901185147918
    outer loop
      vertex 0.18174400925636292 0.04832202196121321 0.2938976287841797
      vertex 0.2870829999446869 0.1090370118618022 0.28205299377441406
      vertex 0.1763319969177246 0.10101801156997786 0.3287067413330078
    endloop
  endfacet
  facet normal 0.8193862722989562 -0.4598608410591895 0.3422486575990553
    outer loop
      vertex 0.2665970027446747 0.0546450018882762 0.2581920623779297
      vertex 0.30163899064064026 0.05367702245712386 0.17299652099609375
      vertex 0.33285000920295715 0.10777601599693404 0.17096328735351562
    endloop
  endfacet
  facet normal 0.8195665275322594 -0.4590849426509568 0.34285816656437057
    outer loop
      vertex 0.2665970027446747 0.0546450018882762 0.2581920623779297
      vertex 0.33285000920295715 0.10777601599693404 0.17096328735351562
      vertex 0.2870829999446869 0.1090370118618022 0.28205299377441406
    endloop
  endfacet
  facet normal 0.8220821191467913 -0.4803665554058056 -0.30566151512200834
    outer loop
      vertex 0.30163899064064026 0.05367702245712386 0.17299652099609375
      vertex 0.2663310170173645 0.04724201560020552 0.08814811706542969
      vertex 0.28679701685905457 0.09994500875473128 0.06036567687988281
    endloop
  endfacet
  facet normal 0.8193491177353178 -0.48423639836834803 -0.3068910780091318
    outer loop
      vertex 0.30163899064064026 0.05367702245712386 0.17299652099609375
      vertex 0.28679701685905457 0.09994500875473128 0.06036567687988281
      vertex 0.33285000920295715 0.10777601599693404 0.17096328735351562
    endloop
  endfacet
  facet normal 0.3709779100106107 -0.5382456365929523 -0.7567476626807689
    outer loop
      vertex 0.2663310170173645 0.04724201560020552 0.08814811706542969
      vertex 0.18132099509239197 0.037582010030747515 0.0533447265625
      vertex 0.17582499980926514 0.08764401078224288 0.015043258666992188
    endloop
  endfacet
  facet normal 0.3686187367538778 -0.5414625173962071 -0.7556047704778853
    outer loop
      vertex 0.2663310170173645 0.04724201560020552 0.08814811706542969
      vertex 0.17582499980926514 0.08764401078224288 0.015043258666992188
      vertex 0.28679701685905457 0.09994500875473128 0.06036567687988281
    endloop
  endfacet
  facet normal -0.2556957782566084 -0.6079554429325047 -0.7516713699420042
    outer loop
      vertex 0.18132099509239197 0.037582010030747515 0.0533447265625
      vertex 0.09642000496387482 0.029157996177674395 0.08903884887695312
      vertex 0.06496800482273102 0.07621499896049605 0.06167793273925781
    endloop
  endfacet
  facet normal -0.2549204045458863 -0.6050605208862107 -0.7542661025202373
    outer loop
      vertex 0.18132099509239197 0.037582010030747515 0.0533447265625
      vertex 0.06496800482273102 0.07621499896049605 0.06167793273925781
      vertex 0.17582499980926514 0.08764401078224288 0.015043258666992188
    endloop
  endfacet
  facet normal -0.7012081056680031 -0.6489926484288613 -0.29515374778373243
    outer loop
      vertex 0.09642000496387482 0.029157996177674395 0.08903884887695312
      vertex 0.06139300763607025 0.02821302413940535 0.1743316650390625
      vertex 0.01923300325870514 0.07438701391220198 0.17296409606933594
    endloop
  endfacet
  facet normal -0.7034758973515158 -0.6444429697102804 -0.2996913756458036
    outer loop
      vertex 0.09642000496387482 0.029157996177674395 0.08903884887695312
      vertex 0.01923300325870514 0.07438701391220198 0.17296409606933594
      vertex 0.06496800482273102 0.07621499896049605 0.06167793273925781
    endloop
  endfacet
  facet normal -0.6973720002219804 -0.6235788483192504 0.35330116506350695
    outer loop
      vertex 0.06139300763607025 0.02821302413940535 0.1743316650390625
      vertex 0.09675000607967377 0.03675100207328902 0.25919151306152344
      vertex 0.06539200246334076 0.08563700318336592 0.28357887268066406
    endloop
  endfacet
  facet normal -0.6958702526944032 -0.6248942093725008 0.3539375912611497
    outer loop
      vertex 0.06139300763607025 0.02821302413940535 0.1743316650390625
      vertex 0.06539200246334076 0.08563700318336592 0.28357887268066406
      vertex 0.01923300325870514 0.07438701391220198 0.17296409606933594
    endloop
  endfacet
  facet normal -0.4038440230494328 -0.8791780129309186 0.25289528786849885
    outer loop
      vertex 0.06139300763607025 0.02821302413940535 0.1743316650390625
      vertex 0.11832699179649353 0.002221018075944048 0.17488861083984375
      vertex 0.137937992811203 0.00676500797271834 0.2220020294189453
    endloop
  endfacet
  facet normal -0.40599609182073804 -0.8768811107105386 0.257384325679205
    outer loop
      vertex 0.06139300763607025 0.02821302413940535 0.1743316650390625
      vertex 0.137937992811203 0.00676500797271834 0.2220020294189453
      vertex 0.09675000607967377 0.03675100207328902 0.25919151306152344
    endloop
  endfacet
  facet normal -0.4148117990867121 -0.8930454359812441 -0.1743588845213091
    outer loop
      vertex 0.09642000496387482 0.029157996177674395 0.08903884887695312
      vertex 0.13775700330734253 0.0024349987506877002 0.12756729125976562
      vertex 0.11832699179649353 0.002221018075944048 0.17488861083984375
    endloop
  endfacet
  facet normal -0.40729158681487493 -0.8959453412223165 -0.177187778505878
    outer loop
      vertex 0.09642000496387482 0.029157996177674395 0.08903884887695312
      vertex 0.11832699179649353 0.002221018075944048 0.17488861083984375
      vertex 0.06139300763607025 0.02821302413940535 0.1743316650390625
    endloop
  endfacet
  facet normal -0.12159029179423618 -0.8675836675701916 -0.4821974499174045
    outer loop
      vertex 0.18132099509239197 0.037582010030747515 0.0533447265625
      vertex 0.18484699726104736 0.00683599710464583 0.10777473449707031
      vertex 0.13775700330734253 0.0024349987506877002 0.12756729125976562
    endloop
  endfacet
  facet normal -0.1153253808934889 -0.8698732829370256 -0.4796045539338977
    outer loop
      vertex 0.18132099509239197 0.037582010030747515 0.0533447265625
      vertex 0.13775700330734253 0.0024349987506877002 0.12756729125976562
      vertex 0.09642000496387482 0.029157996177674395 0.08903884887695312
    endloop
  endfacet
  facet normal 0.2943049990511826 -0.8265532272560274 -0.47978571263234676
    outer loop
      vertex 0.2663310170173645 0.04724201560020552 0.08814811706542969
      vertex 0.23200401663780212 0.01240700483322249 0.1271038055419922
      vertex 0.18484699726104736 0.00683599710464583 0.10777473449707031
    endloop
  endfacet
  facet normal 0.2921088909813335 -0.8244893170857077 -0.484654270404377
    outer loop
      vertex 0.2663310170173645 0.04724201560020552 0.08814811706542969
      vertex 0.18484699726104736 0.00683599710464583 0.10777473449707031
      vertex 0.18132099509239197 0.037582010030747515 0.0533447265625
    endloop
  endfacet
  facet normal 0.586152947511996 -0.7902338962955509 -0.1787599263497048
    outer loop
      vertex 0.30163899064064026 0.05367702245712386 0.17299652099609375
      vertex 0.2516019940376282 0.01628699898719893 0.17421340942382812
      vertex 0.23200401663780212 0.01240700483322249 0.1271038055419922
    endloop
  endfacet
  facet normal 0.588486139639922 -0.7870104263020007 -0.18519895340861206
    outer loop
      vertex 0.30163899064064026 0.05367702245712386 0.17299652099609375
      vertex 0.23200401663780212 0.01240700483322249 0.1271038055419922
      vertex 0.2663310170173645 0.04724201560020552 0.08814811706542969
    endloop
  endfacet
  facet normal 0.5866373846199608 -0.7711145383174565 0.24746504351465132
    outer loop
      vertex 0.2665970027446747 0.0546450018882762 0.2581920623779297
      vertex 0.23216798901557922 0.01668000221252547 0.22150802612304688
      vertex 0.2516019940376282 0.01628699898719893 0.17421340942382812
    endloop
  endfacet
  facet normal 0.5836354102362769 -0.7729482757901347 0.2488386442484179
    outer loop
      vertex 0.2665970027446747 0.0546450018882762 0.2581920623779297
      vertex 0.2516019940376282 0.01628699898719893 0.17421340942382812
      vertex 0.30163899064064026 0.05367702245712386 0.17299652099609375
    endloop
  endfacet
  facet normal 0.29211870835074966 -0.784834342093212 0.5465361064949
    outer loop
      vertex 0.18174400925636292 0.04832202196121321 0.2938976287841797
      vertex 0.18509000539779663 0.01294299960136519 0.2413043975830078
      vertex 0.23216798901557922 0.01668000221252547 0.22150802612304688
    endloop
  endfacet
  facet normal 0.2879440603333367 -0.7875644190512407 0.5448215340487503
    outer loop
      vertex 0.18174400925636292 0.04832202196121321 0.2938976287841797
      vertex 0.23216798901557922 0.01668000221252547 0.22150802612304688
      vertex 0.2665970027446747 0.0546450018882762 0.2581920623779297
    endloop
  endfacet
  facet normal -0.11384246797761394 -0.8312328963709561 0.5441431470445228
    outer loop
      vertex 0.09675000607967377 0.03675100207328902 0.25919151306152344
      vertex 0.137937992811203 0.00676500797271834 0.2220020294189453
      vertex 0.18509000539779663 0.01294299960136519 0.2413043975830078
    endloop
  endfacet
  facet normal -0.11178550820238477 -0.8278144568718316 0.5497519669359344
    outer loop
      vertex 0.09675000607967377 0.03675100207328902 0.25919151306152344
      vertex 0.18509000539779663 0.01294299960136519 0.2413043975830078
      vertex 0.18174400925636292 0.04832202196121321 0.2938976287841797
    endloop
  endfacet
  facet normal 0.21908768354883856 -0.9448314232451552 -0.24350393952816907
    outer loop
      vertex 0.16883501410484314 0.015846014022828203 0.18984413146972656
      vertex 0.18422499299049377 0.017791002988816362 0.19614410400390625
      vertex 0.18542900681495667 0.00901800394058333 0.23126792907714844
    endloop
  endfacet
  facet normal 0.2229488297342 -0.9435809254026776 -0.2448445558642813
    outer loop
      vertex 0.16883501410484314 0.015846014022828203 0.18984413146972656
      vertex 0.18542900681495667 0.00901800394058333 0.23126792907714844
      vertex 0.14542800188064575 0.003817021846772295 0.2148876190185547
    endloop
  endfacet
  facet normal -0.02122691644352373 -0.9689604344494053 -0.24630285116075942
    outer loop
      vertex 0.18422499299049377 0.017791002988816362 0.19614410400390625
      vertex 0.1995910108089447 0.019097000360489946 0.1896820068359375
      vertex 0.22536501288414001 0.012230008840561968 0.2144756317138672
    endloop
  endfacet
  facet normal -0.023521892225788554 -0.9701150345232805 -0.24150267157531202
    outer loop
      vertex 0.18422499299049377 0.017791002988816362 0.19614410400390625
      vertex 0.22536501288414001 0.012230008840561968 0.2144756317138672
      vertex 0.18542900681495667 0.00901800394058333 0.23126792907714844
    endloop
  endfacet
  facet normal -0.19361448980184373 -0.9780950713669019 -0.07644253205216847
    outer loop
      vertex 0.1995910108089447 0.019097000360489946 0.1896820068359375
      vertex 0.20593300461769104 0.019048005342484575 0.17424583435058594
      vertex 0.24184998869895935 0.011930018663407427 0.17435073852539062
    endloop
  endfacet
  facet normal -0.19195618440104106 -0.9787921285264799 -0.0715457364543587
    outer loop
      vertex 0.1995910108089447 0.019097000360489946 0.1896820068359375
      vertex 0.24184998869895935 0.011930018663407427 0.17435073852539062
      vertex 0.22536501288414001 0.012230008840561968 0.2144756317138672
    endloop
  endfacet
  facet normal -0.18921406965761245 -0.968404486896765 0.1624524102677991
    outer loop
      vertex 0.20593300461769104 0.019048005342484575 0.17424583435058594
      vertex 0.19953599572181702 0.01771900057792769 0.1588726043701172
      vertex 0.22522500157356262 0.008592009544373613 0.1343860626220703
    endloop
  endfacet
  facet normal -0.19231861421992236 -0.9680588233853259 0.16085914674132534
    outer loop
      vertex 0.20593300461769104 0.019048005342484575 0.17424583435058594
      vertex 0.22522500157356262 0.008592009544373613 0.1343860626220703
      vertex 0.24184998869895935 0.011930018663407427 0.17435073852539062
    endloop
  endfacet
  facet normal -0.018669761974050406 -0.9446778165719514 0.3274679570044722
    outer loop
      vertex 0.19953599572181702 0.01771900057792769 0.1588726043701172
      vertex 0.1841450035572052 0.015837997198105913 0.15256881713867188
      vertex 0.18522101640701294 0.0038290023803721485 0.11798667907714844
    endloop
  endfacet
  facet normal -0.022275103965918617 -0.9442157664016052 0.32857328896600363
    outer loop
      vertex 0.19953599572181702 0.01771900057792769 0.1588726043701172
      vertex 0.18522101640701294 0.0038290023803721485 0.11798667907714844
      vertex 0.22522500157356262 0.008592009544373613 0.1343860626220703
    endloop
  endfacet
  facet normal 0.22046345300842005 -0.9183326831140618 0.32872625239267456
    outer loop
      vertex 0.1841450035572052 0.015837997198105913 0.15256881713867188
      vertex 0.16877800226211548 0.01446202397346602 0.15903091430664062
      vertex 0.1452760100364685 0.0001380145549784717 0.13477706909179688
    endloop
  endfacet
  facet normal 0.2219489727154804 -0.9189404028803235 0.326017161303959
    outer loop
      vertex 0.1841450035572052 0.015837997198105913 0.15256881713867188
      vertex 0.1452760100364685 0.0001380145549784717 0.13477706909179688
      vertex 0.18522101640701294 0.0038290023803721485 0.11798667907714844
    endloop
  endfacet
  facet normal 0.39131198254440913 -0.9062686315921149 0.15985024150535232
    outer loop
      vertex 0.16877800226211548 0.01446202397346602 0.15903091430664062
      vertex 0.16243600845336914 0.014447003602982622 0.1744709014892578
      vertex 0.12879401445388794 1.0547118733938987e-15 0.17491912841796875
    endloop
  endfacet
  facet normal 0.3905578816357562 -0.9070500171476243 0.15724123977088467
    outer loop
      vertex 0.16877800226211548 0.01446202397346602 0.15903091430664062
      vertex 0.12879401445388794 1.0547118733938987e-15 0.17491912841796875
      vertex 0.1452760100364685 0.0001380145549784717 0.13477706909179688
    endloop
  endfacet
  facet normal 0.38833131649766833 -0.9182059530652197 -0.07808083236479577
    outer loop
      vertex 0.16243600845336914 0.014447003602982622 0.1744709014892578
      vertex 0.16883501410484314 0.015846014022828203 0.18984413146972656
      vertex 0.14542800188064575 0.003817021846772295 0.2148876190185547
    endloop
  endfacet
  facet normal 0.392598102329923 -0.9165765026348073 -0.07585673908551933
    outer loop
      vertex 0.16243600845336914 0.014447003602982622 0.1744709014892578
      vertex 0.14542800188064575 0.003817021846772295 0.2148876190185547
      vertex 0.12879401445388794 1.0547118733938987e-15 0.17491912841796875
    endloop
  endfacet
  facet normal 0.9210704010164611 -0.10533553570065018 -0.37487830197283045
    outer loop
      vertex 0.16243600845336914 0.014447003602982622 0.1744709014892578
      vertex 0.16997399926185608 0.08885902166366683 0.17208290100097656
      vertex 0.1718200147151947 0.08923900127410994 0.1765117645263672
    endloop
  endfacet
  facet normal 0.9214392313822977 -0.10540712542535319 -0.373950639495595
    outer loop
      vertex 0.16243600845336914 0.014447003602982622 0.1744709014892578
      vertex 0.1718200147151947 0.08923900127410994 0.1765117645263672
      vertex 0.16883501410484314 0.015846014022828203 0.18984413146972656
    endloop
  endfacet
  facet normal 0.3905178725528879 -0.17989182579054697 -0.9028481169225032
    outer loop
      vertex 0.16883501410484314 0.015846014022828203 0.18984413146972656
      vertex 0.1718200147151947 0.08923900127410994 0.1765117645263672
      vertex 0.1762630045413971 0.08979001641273604 0.17832374572753906
    endloop
  endfacet
  facet normal 0.3920507536711369 -0.17994074969417623 -0.9021737821203802
    outer loop
      vertex 0.16883501410484314 0.015846014022828203 0.18984413146972656
      vertex 0.1762630045413971 0.08979001641273604 0.17832374572753906
      vertex 0.18422499299049377 0.017791002988816362 0.19614410400390625
    endloop
  endfacet
  facet normal -0.35492607187434894 -0.26141354518540166 -0.8976026080050373
    outer loop
      vertex 0.18422499299049377 0.017791002988816362 0.19614410400390625
      vertex 0.1762630045413971 0.08979001641273604 0.17832374572753906
      vertex 0.18070000410079956 0.09018400311470137 0.1764545440673828
    endloop
  endfacet
  facet normal -0.35521846515709715 -0.26139758613048814 -0.8974915843486165
    outer loop
      vertex 0.18422499299049377 0.017791002988816362 0.19614410400390625
      vertex 0.18070000410079956 0.09018400311470137 0.1764545440673828
      vertex 0.1995910108089447 0.019097000360489946 0.1896820068359375
    endloop
  endfacet
  facet normal -0.8813345460276986 -0.30184921900539835 -0.36350580045438263
    outer loop
      vertex 0.1995910108089447 0.019097000360489946 0.1896820068359375
      vertex 0.18070000410079956 0.09018400311470137 0.1764545440673828
      vertex 0.18253201246261597 0.09019601345062361 0.17200279235839844
    endloop
  endfacet
  facet normal -0.8822468107483131 -0.3015734037590873 -0.36151631646384724
    outer loop
      vertex 0.1995910108089447 0.019097000360489946 0.1896820068359375
      vertex 0.18253201246261597 0.09019601345062361 0.17200279235839844
      vertex 0.20593300461769104 0.019048005342484575 0.17424583435058594
    endloop
  endfacet
  facet normal -0.20475024826691157 -0.962482766571554 0.17805690070144983
    outer loop
      vertex 0.137937992811203 0.00676500797271834 0.2220020294189453
      vertex 0.11832699179649353 0.002221018075944048 0.17488861083984375
      vertex 0.12879401445388794 1.0547118733938987e-15 0.17491912841796875
    endloop
  endfacet
  facet normal -0.2087144271381879 -0.9615139296552216 0.1786875792643449
    outer loop
      vertex 0.137937992811203 0.00676500797271834 0.2220020294189453
      vertex 0.12879401445388794 1.0547118733938987e-15 0.17491912841796875
      vertex 0.14542800188064575 0.003817021846772295 0.2148876190185547
    endloop
  endfacet
  facet normal -0.21033474597791119 -0.9734069532920797 -0.09076451904262016
    outer loop
      vertex 0.11832699179649353 0.002221018075944048 0.17488861083984375
      vertex 0.13775700330734253 0.0024349987506877002 0.12756729125976562
      vertex 0.1452760100364685 0.0001380145549784717 0.13477706909179688
    endloop
  endfacet
  facet normal -0.20651658606259307 -0.9744647110303778 -0.08814435113797042
    outer loop
      vertex 0.11832699179649353 0.002221018075944048 0.17488861083984375
      vertex 0.1452760100364685 0.0001380145549784717 0.13477706909179688
      vertex 0.12879401445388794 1.0547118733938987e-15 0.17491912841796875
    endloop
  endfacet
  facet normal -0.02862743146528695 -0.9591673830402596 -0.2813865694723185
    outer loop
      vertex 0.13775700330734253 0.0024349987506877002 0.12756729125976562
      vertex 0.18484699726104736 0.00683599710464583 0.10777473449707031
      vertex 0.18522101640701294 0.0038290023803721485 0.11798667907714844
    endloop
  endfacet
  facet normal -0.02772090349260812 -0.9604464330345418 -0.277081577844466
    outer loop
      vertex 0.13775700330734253 0.0024349987506877002 0.12756729125976562
      vertex 0.18522101640701294 0.0038290023803721485 0.11798667907714844
      vertex 0.1452760100364685 0.0001380145549784717 0.13477706909179688
    endloop
  endfacet
  facet normal 0.2248883398583178 -0.9333964409426144 -0.27963604673115794
    outer loop
      vertex 0.18484699726104736 0.00683599710464583 0.10777473449707031
      vertex 0.23200401663780212 0.01240700483322249 0.1271038055419922
      vertex 0.22522500157356262 0.008592009544373613 0.1343860626220703
    endloop
  endfacet
  facet normal 0.22687179227369939 -0.9319806005279048 -0.28273901412816216
    outer loop
      vertex 0.18484699726104736 0.00683599710464583 0.10777473449707031
      vertex 0.22522500157356262 0.008592009544373613 0.1343860626220703
      vertex 0.18522101640701294 0.0038290023803721485 0.11798667907714844
    endloop
  endfacet
  facet normal -0.025160417303559647 -0.9326274425299024 0.3599625075493897
    outer loop
      vertex 0.18509000539779663 0.01294299960136519 0.2413043975830078
      vertex 0.137937992811203 0.00676500797271834 0.2220020294189453
      vertex 0.14542800188064575 0.003817021846772295 0.2148876190185547
    endloop
  endfacet
  facet normal -0.027669431511220807 -0.931275837713729 0.363262600126187
    outer loop
      vertex 0.18509000539779663 0.01294299960136519 0.2413043975830078
      vertex 0.14542800188064575 0.003817021846772295 0.2148876190185547
      vertex 0.18542900681495667 0.00901800394058333 0.23126792907714844
    endloop
  endfacet
  facet normal 0.22386426378021992 -0.9050907527523328 0.36151835456081033
    outer loop
      vertex 0.23216798901557922 0.01668000221252547 0.22150802612304688
      vertex 0.18509000539779663 0.01294299960136519 0.2413043975830078
      vertex 0.18542900681495667 0.00901800394058333 0.23126792907714844
    endloop
  endfacet
  facet normal 0.22333857068228552 -0.9067310339459959 0.35771317410017034
    outer loop
      vertex 0.23216798901557922 0.01668000221252547 0.22150802612304688
      vertex 0.18542900681495667 0.00901800394058333 0.23126792907714844
      vertex 0.22536501288414001 0.012230008840561968 0.2144756317138672
    endloop
  endfacet
  facet normal 0.406368813482693 -0.8969039228521788 0.17443549123111798
    outer loop
      vertex 0.2516019940376282 0.01628699898719893 0.17421340942382812
      vertex 0.23216798901557922 0.01668000221252547 0.22150802612304688
      vertex 0.22536501288414001 0.012230008840561968 0.2144756317138672
    endloop
  endfacet
  facet normal 0.40381852557463216 -0.8984053314020229 0.1726223013146087
    outer loop
      vertex 0.2516019940376282 0.01628699898719893 0.17421340942382812
      vertex 0.22536501288414001 0.012230008840561968 0.2144756317138672
      vertex 0.24184998869895935 0.011930018663407427 0.17435073852539062
    endloop
  endfacet
  facet normal 0.40502753106272016 -0.9095021325033595 -0.09358723231872294
    outer loop
      vertex 0.23200401663780212 0.01240700483322249 0.1271038055419922
      vertex 0.2516019940376282 0.01628699898719893 0.17421340942382812
      vertex 0.24184998869895935 0.011930018663407427 0.17435073852539062
    endloop
  endfacet
  facet normal 0.4092586912926603 -0.9075167887695926 -0.09444893701225808
    outer loop
      vertex 0.23200401663780212 0.01240700483322249 0.1271038055419922
      vertex 0.24184998869895935 0.011930018663407427 0.17435073852539062
      vertex 0.22522500157356262 0.008592009544373613 0.1343860626220703
    endloop
  endfacet
  facet normal 0.9217960727724335 -0.08131818277928067 0.37905059473742314
    outer loop
      vertex 0.16877800226211548 0.01446202397346602 0.15903091430664062
      vertex 0.17180600762367249 0.08887499570846663 0.1676311492919922
      vertex 0.16997399926185608 0.08885902166366683 0.17208290100097656
    endloop
  endfacet
  facet normal 0.921977555136391 -0.08124632668275489 0.37862438144588906
    outer loop
      vertex 0.16877800226211548 0.01446202397346602 0.15903091430664062
      vertex 0.16997399926185608 0.08885902166366683 0.17208290100097656
      vertex 0.16243600845336914 0.014447003602982622 0.1744709014892578
    endloop
  endfacet
  facet normal 0.39429992190845264 -0.12124997447138225 0.910947866386259
    outer loop
      vertex 0.1841450035572052 0.015837997198105913 0.15256881713867188
      vertex 0.17624300718307495 0.08927500247955428 0.16576385498046875
      vertex 0.17180600762367249 0.08887499570846663 0.1676311492919922
    endloop
  endfacet
  facet normal 0.39398628996200746 -0.12132877963892649 0.911073065430705
    outer loop
      vertex 0.1841450035572052 0.015837997198105913 0.15256881713867188
      vertex 0.17180600762367249 0.08887499570846663 0.1676311492919922
      vertex 0.16877800226211548 0.01446202397346602 0.15903091430664062
    endloop
  endfacet
  facet normal -0.34820982457340705 -0.20151752939749656 0.9155001930180499
    outer loop
      vertex 0.19953599572181702 0.01771900057792769 0.1588726043701172
      vertex 0.18068599700927734 0.08982101082801924 0.1675739288330078
      vertex 0.17624300718307495 0.08927500247955428 0.16576385498046875
    endloop
  endfacet
  facet normal -0.3499602261351119 -0.2020125065946897 0.9147233392139897
    outer loop
      vertex 0.19953599572181702 0.01771900057792769 0.1588726043701172
      vertex 0.17624300718307495 0.08927500247955428 0.16576385498046875
      vertex 0.1841450035572052 0.015837997198105913 0.15256881713867188
    endloop
  endfacet
  facet normal -0.8784606104268943 -0.2766487281672573 0.3895798212585546
    outer loop
      vertex 0.20593300461769104 0.019048005342484575 0.17424583435058594
      vertex 0.18253201246261597 0.09019601345062361 0.17200279235839844
      vertex 0.18068599700927734 0.08982101082801924 0.1675739288330078
    endloop
  endfacet
  facet normal -0.8785000074108864 -0.27667276802332075 0.3894738969602278
    outer loop
      vertex 0.20593300461769104 0.019048005342484575 0.17424583435058594
      vertex 0.18068599700927734 0.08982101082801924 0.1675739288330078
      vertex 0.19953599572181702 0.01771900057792769 0.1588726043701172
    endloop
  endfacet
endsolid Standard Male Figure
