solid Standard Male Figure
  facet normal -0.10950548719861554 0.9935986150539141 -0.027755007410157358
    outer loop
      vertex 0.15438900887966156 0.32175599038601027 0.14019203186035156
      vertex 0.13895399868488312 0.32023699209094153 0.1467113494873047
      vertex 0.13257502019405365 0.31996499001979933 0.1621417999267578
    endloop
  endfacet
  facet normal -0.10834865897086231 0.9937572201965464 -0.026592393770562817
    outer loop
      vertex 0.15438900887966156 0.32175599038601027 0.14019203186035156
      vertex 0.13257502019405365 0.31996499001979933 0.1621417999267578
      vertex 0.15441201627254486 0.32233999297022925 0.16192245483398438
    endloop
  endfacet
  facet normal -0.10751229720543273 0.993822942851504 -0.027514799864567986
    outer loop
      vertex 0.17624600231647491 0.32471599057316886 0.16170120239257812
      vertex 0.16983599960803986 0.32359899207949744 0.14640235900878906
      vertex 0.15438900887966156 0.32175599038601027 0.14019203186035156
    endloop
  endfacet
  facet normal -0.10841045462497266 0.9937504873079422 -0.026592147397943147
    outer loop
      vertex 0.17624600231647491 0.32471599057316886 0.16170120239257812
      vertex 0.15438900887966156 0.32175599038601027 0.14019203186035156
      vertex 0.15441201627254486 0.32233999297022925 0.16192245483398438
    endloop
  endfacet
  facet normal -0.10710477370292038 0.9938122336705699 -0.029424677683174767
    outer loop
      vertex 0.15443401038646698 0.32301499322056876 0.18364524841308594
      vertex 0.16986499726772308 0.32448499277234183 0.1771259307861328
      vertex 0.17624600231647491 0.32471599057316886 0.16170120239257812
    endloop
  endfacet
  facet normal -0.1084392954766679 0.9936268922629827 -0.030765535398089235
    outer loop
      vertex 0.15443401038646698 0.32301499322056876 0.18364524841308594
      vertex 0.17624600231647491 0.32471599057316886 0.16170120239257812
      vertex 0.15441201627254486 0.32233999297022925 0.16192245483398438
    endloop
  endfacet
  facet normal -0.10837714155683786 0.9936336649883104 -0.030765808779671645
    outer loop
      vertex 0.15443401038646698 0.32301499322056876 0.18364524841308594
      vertex 0.15441201627254486 0.32233999297022925 0.16192245483398438
      vertex 0.13257502019405365 0.31996499001979933 0.1621417999267578
    endloop
  endfacet
  facet normal -0.10925768164546629 0.9935648357504722 -0.02986094709809346
    outer loop
      vertex 0.15443401038646698 0.32301499322056876 0.18364524841308594
      vertex 0.13257502019405365 0.31996499001979933 0.1621417999267578
      vertex 0.13898800313472748 0.32112999260425673 0.17744064331054688
    endloop
  endfacet
  facet normal -0.11417161735735165 -0.8242719271667915 0.5545634606379598
    outer loop
      vertex 0.18365801870822906 0.06502899527549849 0.29698753356933594
      vertex 0.09776701033115387 0.053326994180680376 0.26191139221191406
      vertex 0.13966600596904755 0.022127985954285723 0.2241649627685547
    endloop
  endfacet
  facet normal -0.12014544601027079 -0.8219205113873129 0.5567869832923636
    outer loop
      vertex 0.18365801870822906 0.06502899527549849 0.29698753356933594
      vertex 0.13966600596904755 0.022127985954285723 0.2241649627685547
      vertex 0.18713600933551788 0.02835398912429915 0.24359893798828125
    endloop
  endfacet
  facet normal 0.2913264563673833 -0.7795396196845791 0.5544789240020266
    outer loop
      vertex 0.26940400898456573 0.07140800356865035 0.26090431213378906
      vertex 0.18365801870822906 0.06502899527549849 0.29698753356933594
      vertex 0.18713600933551788 0.02835398912429915 0.24359893798828125
    endloop
  endfacet
  facet normal 0.2935017313441156 -0.7818948431593665 0.5499974435747826
    outer loop
      vertex 0.26940400898456573 0.07140800356865035 0.26090431213378906
      vertex 0.18713600933551788 0.02835398912429915 0.24359893798828125
      vertex 0.23452802002429962 0.03212597966194258 0.22367095947265625
    endloop
  endfacet
  facet normal 0.5923516237942016 -0.7651296402191896 0.25238103622583474
    outer loop
      vertex 0.30481599271297455 0.0704250037670146 0.17481040954589844
      vertex 0.26940400898456573 0.07140800356865035 0.26090431213378906
      vertex 0.23452802002429962 0.03212597966194258 0.22367095947265625
    endloop
  endfacet
  facet normal 0.5911514395321822 -0.7671364947846537 0.24908146038704568
    outer loop
      vertex 0.30481599271297455 0.0704250037670146 0.17481040954589844
      vertex 0.23452802002429962 0.03212597966194258 0.22367095947265625
      vertex 0.2540910094976425 0.031740993261338335 0.176055908203125
    endloop
  endfacet
  facet normal 0.5927470907156279 -0.7832821897320354 -0.18740303545232867
    outer loop
      vertex 0.2691359966993332 0.06393900513649092 0.0890655517578125
      vertex 0.30481599271297455 0.0704250037670146 0.17481040954589844
      vertex 0.2540910094976425 0.031740993261338335 0.176055908203125
    endloop
  endfacet
  facet normal 0.5985856272054488 -0.7794129983408468 -0.18496114435305216
    outer loop
      vertex 0.2691359966993332 0.06393900513649092 0.0890655517578125
      vertex 0.2540910094976425 0.031740993261338335 0.176055908203125
      vertex 0.23436100780963898 0.02784398198127852 0.12862586975097656
    endloop
  endfacet
  facet normal -0.18031655777919214 0.9726820537323754 0.14620383489372477
    outer loop
      vertex 0.10920099914073944 0.31083699315786467 0.2088775634765625
      vertex 0.15536899864673615 0.31660899147391425 0.2274169921875
      vertex 0.15443401038646698 0.32301499322056876 0.18364524841308594
    endloop
  endfacet
  facet normal -0.17861508768795556 0.9725430179153282 0.14918689203267768
    outer loop
      vertex 0.10920099914073944 0.31083699315786467 0.2088775634765625
      vertex 0.15443401038646698 0.32301499322056876 0.18364524841308594
      vertex 0.13898800313472748 0.32112999260425673 0.17744064331054688
    endloop
  endfacet
  facet normal -0.028729349633257836 0.9887829190315757 0.1465706774939882
    outer loop
      vertex 0.15536899864673615 0.31660899147391425 0.2274169921875
      vertex 0.20148400962352753 0.3208369910717021 0.2079334259033203
      vertex 0.16986499726772308 0.32448499277234183 0.1771259307861328
    endloop
  endfacet
  facet normal -0.032763318585936646 0.9888281164113079 0.14541499630265592
    outer loop
      vertex 0.15536899864673615 0.31660899147391425 0.2274169921875
      vertex 0.16986499726772308 0.32448499277234183 0.1771259307861328
      vertex 0.15443401038646698 0.32301499322056876 0.18364524841308594
    endloop
  endfacet
  facet normal 0.0750322023406701 0.9962694805072444 0.04262969413137138
    outer loop
      vertex 0.20148400962352753 0.3208369910717021 0.2079334259033203
      vertex 0.22055701911449432 0.3213729932904254 0.1618366241455078
      vertex 0.17624600231647491 0.32471599057316886 0.16170120239257812
    endloop
  endfacet
  facet normal 0.07157416804769541 0.9964406948303275 0.04453178813313416
    outer loop
      vertex 0.20148400962352753 0.3208369910717021 0.2079334259033203
      vertex 0.17624600231647491 0.32471599057316886 0.16170120239257812
      vertex 0.16986499726772308 0.32448499277234183 0.1771259307861328
    endloop
  endfacet
  facet normal 0.07423054159122312 0.9921283979028571 -0.10085171674187575
    outer loop
      vertex 0.22055701911449432 0.3213729932904254 0.1618366241455078
      vertex 0.20141001045703888 0.3181559927761565 0.11609649658203125
      vertex 0.16983599960803986 0.32359899207949744 0.14640235900878906
    endloop
  endfacet
  facet normal 0.0751387490631185 0.9917463078605332 -0.10389143003265673
    outer loop
      vertex 0.22055701911449432 0.3213729932904254 0.1618366241455078
      vertex 0.16983599960803986 0.32359899207949744 0.14640235900878906
      vertex 0.17624600231647491 0.32471599057316886 0.16170120239257812
    endloop
  endfacet
  facet normal -0.031017230887845547 0.9779262219738148 -0.20663551428559182
    outer loop
      vertex 0.20141001045703888 0.3181559927761565 0.11609649658203125
      vertex 0.15523500740528107 0.31276399269700156 0.09750938415527344
      vertex 0.15438900887966156 0.32175599038601027 0.14019203186035156
    endloop
  endfacet
  facet normal -0.032444922282586705 0.9773068522242248 -0.20932903194171223
    outer loop
      vertex 0.20141001045703888 0.3181559927761565 0.11609649658203125
      vertex 0.15438900887966156 0.32175599038601027 0.14019203186035156
      vertex 0.16983599960803986 0.32359899207949744 0.14640235900878906
    endloop
  endfacet
  facet normal -0.18454510717454511 0.9607792796162756 -0.20699342810332405
    outer loop
      vertex 0.15523500740528107 0.31276399269700156 0.09750938415527344
      vertex 0.10908500850200653 0.30809799209237204 0.11699676513671875
      vertex 0.13895399868488312 0.32023699209094153 0.1467113494873047
    endloop
  endfacet
  facet normal -0.18170056400918588 0.9615000187603191 -0.20616163310046282
    outer loop
      vertex 0.15523500740528107 0.31276399269700156 0.09750938415527344
      vertex 0.13895399868488312 0.32023699209094153 0.1467113494873047
      vertex 0.15438900887966156 0.32175599038601027 0.14019203186035156
    endloop
  endfacet
  facet normal -0.2883938310329792 0.9522490054490685 -0.10025382707598389
    outer loop
      vertex 0.10908500850200653 0.30809799209237204 0.11699676513671875
      vertex 0.09002000093460083 0.30718199163675414 0.16313934326171875
      vertex 0.13257502019405365 0.31996499001979933 0.1621417999267578
    endloop
  endfacet
  facet normal -0.28621313858003206 0.952772016872057 -0.10152597288241008
    outer loop
      vertex 0.10908500850200653 0.30809799209237204 0.11699676513671875
      vertex 0.13257502019405365 0.31996499001979933 0.1621417999267578
      vertex 0.13895399868488312 0.32023699209094153 0.1467113494873047
    endloop
  endfacet
  facet normal -0.2853219140354515 0.957460270341677 0.04314204548221373
    outer loop
      vertex 0.09002000093460083 0.30718199163675414 0.16313934326171875
      vertex 0.10920099914073944 0.31083699315786467 0.2088775634765625
      vertex 0.13898800313472748 0.32112999260425673 0.17744064331054688
    endloop
  endfacet
  facet normal -0.28635408100163445 0.9569624393263114 0.04716174310121648
    outer loop
      vertex 0.09002000093460083 0.30718199163675414 0.16313934326171875
      vertex 0.13898800313472748 0.32112999260425673 0.17744064331054688
      vertex 0.13257502019405365 0.31996499001979933 0.1621417999267578
    endloop
  endfacet
  facet normal -0.29747082022678817 0.8299541143362676 0.47189753041301585
    outer loop
      vertex 0.07378900051116943 0.2741319909691821 0.2506980895996094
      vertex 0.1592310220003128 0.2852319926023494 0.2850360870361328
      vertex 0.15536899864673615 0.31660899147391425 0.2274169921875
    endloop
  endfacet
  facet normal -0.29501620872256246 0.827975236873896 0.47688829270027294
    outer loop
      vertex 0.07378900051116943 0.2741319909691821 0.2506980895996094
      vertex 0.15536899864673615 0.31660899147391425 0.2274169921875
      vertex 0.10920099914073944 0.31083699315786467 0.2088775634765625
    endloop
  endfacet
  facet normal 0.12463050999996068 0.8730384276166867 0.47145640294913055
    outer loop
      vertex 0.1592310220003128 0.2852319926023494 0.2850360870361328
      vertex 0.24455200135707855 0.2925169914960872 0.2489910125732422
      vertex 0.20148400962352753 0.3208369910717021 0.2079334259033203
    endloop
  endfacet
  facet normal 0.11781283805303776 0.8754052255174568 0.468813210486457
    outer loop
      vertex 0.1592310220003128 0.2852319926023494 0.2850360870361328
      vertex 0.20148400962352753 0.3208369910717021 0.2079334259033203
      vertex 0.15536899864673615 0.31660899147391425 0.2274169921875
    endloop
  endfacet
  facet normal 0.4205828394486577 0.8894798890113618 0.17870535024346718
    outer loop
      vertex 0.24455200135707855 0.2925169914960872 0.2489910125732422
      vertex 0.2798530012369156 0.2929659932851802 0.16367530822753906
      vertex 0.22055701911449432 0.3213729932904254 0.1618366241455078
    endloop
  endfacet
  facet normal 0.41362048498067594 0.8921720291349223 0.1815135389816026
    outer loop
      vertex 0.24455200135707855 0.2925169914960872 0.2489910125732422
      vertex 0.22055701911449432 0.3213729932904254 0.1618366241455078
      vertex 0.20148400962352753 0.3208369910717021 0.2079334259033203
    endloop
  endfacet
  facet normal 0.42422290707258814 0.8740924937270126 -0.23663735445819745
    outer loop
      vertex 0.2798530012369156 0.2929659932851802 0.16367530822753906
      vertex 0.24443499743938446 0.287217989563943 0.078948974609375
      vertex 0.20141001045703888 0.3181559927761565 0.11609649658203125
    endloop
  endfacet
  facet normal 0.4255064956565563 0.8726886511089132 -0.2394968483712941
    outer loop
      vertex 0.2798530012369156 0.2929659932851802 0.16367530822753906
      vertex 0.20141001045703888 0.3181559927761565 0.11609649658203125
      vertex 0.22055701911449432 0.3213729932904254 0.1618366241455078
    endloop
  endfacet
  facet normal 0.12483581054569483 0.8304056243777423 -0.5429940325705351
    outer loop
      vertex 0.24443499743938446 0.287217989563943 0.078948974609375
      vertex 0.15896500647068024 0.2775099948048602 0.044452667236328125
      vertex 0.15523500740528107 0.31276399269700156 0.09750938415527344
    endloop
  endfacet
  facet normal 0.12339627512489662 0.8281317203613497 -0.5467826012380534
    outer loop
      vertex 0.24443499743938446 0.287217989563943 0.078948974609375
      vertex 0.15523500740528107 0.31276399269700156 0.09750938415527344
      vertex 0.20141001045703888 0.3181559927761565 0.11609649658203125
    endloop
  endfacet
  facet normal -0.31001912025674 0.7808285067581758 -0.5423974447847578
    outer loop
      vertex 0.15896500647068024 0.2775099948048602 0.044452667236328125
      vertex 0.07353301346302032 0.26862999051809416 0.08049964904785156
      vertex 0.10908500850200653 0.30809799209237204 0.11699676513671875
    endloop
  endfacet
  facet normal -0.307747793644255 0.7823609607098231 -0.5414818765797206
    outer loop
      vertex 0.15896500647068024 0.2775099948048602 0.044452667236328125
      vertex 0.10908500850200653 0.30809799209237204 0.11699676513671875
      vertex 0.15523500740528107 0.31276399269700156 0.09750938415527344
    endloop
  endfacet
  facet normal -0.6061581727937344 0.7602282286933351 -0.23372058072227073
    outer loop
      vertex 0.07353301346302032 0.26862999051809416 0.08049964904785156
      vertex 0.03825901448726654 0.26678299158811675 0.16597557067871094
      vertex 0.09002000093460083 0.30718199163675414 0.16313934326171875
    endloop
  endfacet
  facet normal -0.6043874640657017 0.7613650112781721 -0.2346041621148668
    outer loop
      vertex 0.07353301346302032 0.26862999051809416 0.08049964904785156
      vertex 0.09002000093460083 0.30718199163675414 0.16313934326171875
      vertex 0.10908500850200653 0.30809799209237204 0.11699676513671875
    endloop
  endfacet
  facet normal -0.5958218869988411 0.7822184735990519 0.18201796211777943
    outer loop
      vertex 0.03825901448726654 0.26678299158811675 0.16597557067871094
      vertex 0.07378900051116943 0.2741319909691821 0.2506980895996094
      vertex 0.10920099914073944 0.31083699315786467 0.2088775634765625
    endloop
  endfacet
  facet normal -0.597812823605666 0.7791735238950741 0.18843685306636015
    outer loop
      vertex 0.03825901448726654 0.26678299158811675 0.16597557067871094
      vertex 0.10920099914073944 0.31083699315786467 0.2088775634765625
      vertex 0.09002000093460083 0.30718199163675414 0.16313934326171875
    endloop
  endfacet
  facet normal -0.37205204345134024 0.5695850395457587 0.7329052869841632
    outer loop
      vertex 0.05316200852394104 0.22189699113369094 0.2804126739501953
      vertex 0.16494901478290558 0.23695398867130385 0.3254585266113281
      vertex 0.1592310220003128 0.2852319926023494 0.2850360870361328
    endloop
  endfacet
  facet normal -0.3697571411063079 0.5654225868682552 0.7372767152569653
    outer loop
      vertex 0.05316200852394104 0.22189699113369094 0.2804126739501953
      vertex 0.1592310220003128 0.2852319926023494 0.2850360870361328
      vertex 0.07378900051116943 0.2741319909691821 0.2506980895996094
    endloop
  endfacet
  facet normal 0.25778858852600356 0.6340401136439469 0.7290666484733351
    outer loop
      vertex 0.16494901478290558 0.23695398867130385 0.3254585266113281
      vertex 0.2765570133924484 0.2457639947533618 0.2783336639404297
      vertex 0.24455200135707855 0.2925169914960872 0.2489910125732422
    endloop
  endfacet
  facet normal 0.2525811410324477 0.6385671896830719 0.7269351494150015
    outer loop
      vertex 0.16494901478290558 0.23695398867130385 0.3254585266113281
      vertex 0.24455200135707855 0.2925169914960872 0.2489910125732422
      vertex 0.1592310220003128 0.2852319926023494 0.2850360870361328
    endloop
  endfacet
  facet normal 0.7009136670524928 0.6522261570379823 0.2886538955470594
    outer loop
      vertex 0.2765570133924484 0.2457639947533618 0.2783336639404297
      vertex 0.3227340131998062 0.24556799232959853 0.16664886474609375
      vertex 0.2798530012369156 0.2929659932851802 0.16367530822753906
    endloop
  endfacet
  facet normal 0.6945674175638947 0.6580124097002074 0.29085352179258345
    outer loop
      vertex 0.2765570133924484 0.2457639947533618 0.2783336639404297
      vertex 0.2798530012369156 0.2929659932851802 0.16367530822753906
      vertex 0.24455200135707855 0.2925169914960872 0.2489910125732422
    endloop
  endfacet
  facet normal 0.7077356672788966 0.6209293236234856 -0.3369821958587358
    outer loop
      vertex 0.3227340131998062 0.24556799232959853 0.16664886474609375
      vertex 0.27639199793338776 0.23814098536968337 0.05563545227050781
      vertex 0.24443499743938446 0.287217989563943 0.078948974609375
    endloop
  endfacet
  facet normal 0.7083337948484026 0.6196166956954807 -0.3381395946810648
    outer loop
      vertex 0.3227340131998062 0.24556799232959853 0.16664886474609375
      vertex 0.24443499743938446 0.287217989563943 0.078948974609375
      vertex 0.2798530012369156 0.2929659932851802 0.16367530822753906
    endloop
  endfacet
  facet normal 0.2601612490867585 0.5507033033047117 -0.7931216780563346
    outer loop
      vertex 0.27639199793338776 0.23814098536968337 0.05563545227050781
      vertex 0.164560005068779 0.2257099896669398 0.010320663452148438
      vertex 0.15896500647068024 0.2775099948048602 0.044452667236328125
    endloop
  endfacet
  facet normal 0.2591728772582788 0.5469215769832322 -0.7960566615033378
    outer loop
      vertex 0.27639199793338776 0.23814098536968337 0.05563545227050781
      vertex 0.15896500647068024 0.2775099948048602 0.044452667236328125
      vertex 0.24443499743938446 0.287217989563943 0.078948974609375
    endloop
  endfacet
  facet normal -0.3833816905765079 0.4785486012744247 -0.7899428558756579
    outer loop
      vertex 0.164560005068779 0.2257099896669398 0.010320663452148438
      vertex 0.05278301239013672 0.2139319926500331 0.05743408203125
      vertex 0.07353301346302032 0.26862999051809416 0.08049964904785156
    endloop
  endfacet
  facet normal -0.3830422411794874 0.47904539971317334 -0.7898063981038907
    outer loop
      vertex 0.164560005068779 0.2257099896669398 0.010320663452148438
      vertex 0.07353301346302032 0.26862999051809416 0.08049964904785156
      vertex 0.15896500647068024 0.2775099948048602 0.044452667236328125
    endloop
  endfacet
  facet normal -0.827831842232682 0.45275121537047625 -0.3312261734316903
    outer loop
      vertex 0.05278301239013672 0.2139319926500331 0.05743408203125
      vertex 0.006652012467384338 0.21148899197578536 0.1693897247314453
      vertex 0.03825901448726654 0.26678299158811675 0.16597557067871094
    endloop
  endfacet
  facet normal -0.8272137801612225 0.4536280596348216 -0.3315704230225117
    outer loop
      vertex 0.05278301239013672 0.2139319926500331 0.05743408203125
      vertex 0.03825901448726654 0.26678299158811675 0.16597557067871094
      vertex 0.07353301346302032 0.26862999051809416 0.08049964904785156
    endloop
  endfacet
  facet normal -0.818456556047662 0.4920068498336021 0.296745893955444
    outer loop
      vertex 0.006652012467384338 0.21148899197578536 0.1693897247314453
      vertex 0.05316200852394104 0.22189699113369094 0.2804126739501953
      vertex 0.07378900051116943 0.2741319909691821 0.2506980895996094
    endloop
  endfacet
  facet normal -0.8196406537105984 0.48713552568819024 0.30147666310570925
    outer loop
      vertex 0.006652012467384338 0.21148899197578536 0.1693897247314453
      vertex 0.07378900051116943 0.2741319909691821 0.2506980895996094
      vertex 0.03825901448726654 0.26678299158811675 0.16597557067871094
    endloop
  endfacet
  facet normal -0.3917107788518509 0.21159811884938803 0.8954266591020599
    outer loop
      vertex 0.05043001472949982 0.16184699535369979 0.2931098937988281
      vertex 0.1716190129518509 0.17857998609542952 0.34217071533203125
      vertex 0.16494901478290558 0.23695398867130385 0.3254585266113281
    endloop
  endfacet
  facet normal -0.3895373704934004 0.20745965587240306 0.8973411436986445
    outer loop
      vertex 0.05043001472949982 0.16184699535369979 0.2931098937988281
      vertex 0.16494901478290558 0.23695398867130385 0.3254585266113281
      vertex 0.05316200852394104 0.22189699113369094 0.2804126739501953
    endloop
  endfacet
  facet normal 0.3531324702880672 0.29274919407467737 0.8885917891793025
    outer loop
      vertex 0.1716190129518509 0.17857998609542952 0.34217071533203125
      vertex 0.2926040142774582 0.18753099441528426 0.2911415100097656
      vertex 0.2765570133924484 0.2457639947533618 0.2783336639404297
    endloop
  endfacet
  facet normal 0.3518945516667105 0.2945757982684357 0.8884792195554145
    outer loop
      vertex 0.1716190129518509 0.17857998609542952 0.34217071533203125
      vertex 0.2765570133924484 0.2457639947533618 0.2783336639404297
      vertex 0.16494901478290558 0.23695398867130385 0.3254585266113281
    endloop
  endfacet
  facet normal 0.8778063858818255 0.3161753425342902 0.3598459415894697
    outer loop
      vertex 0.2926040142774582 0.18753099441528426 0.2911415100097656
      vertex 0.34263502061367035 0.18657599389553176 0.1699352264404297
      vertex 0.3227340131998062 0.24556799232959853 0.16664886474609375
    endloop
  endfacet
  facet normal 0.8754981495436458 0.32074800588072877 0.3614190184110235
    outer loop
      vertex 0.2926040142774582 0.18753099441528426 0.2911415100097656
      vertex 0.3227340131998062 0.24556799232959853 0.16664886474609375
      vertex 0.2765570133924484 0.2457639947533618 0.2783336639404297
    endloop
  endfacet
  facet normal 0.8803601920673993 0.27611275023873577 -0.38565228040120975
    outer loop
      vertex 0.34263502061367035 0.18657599389553176 0.1699352264404297
      vertex 0.29236601293087006 0.1784179955720912 0.04934120178222656
      vertex 0.27639199793338776 0.23814098536968337 0.05563545227050781
    endloop
  endfacet
  facet normal 0.8804159332363791 0.2755080149118848 -0.3859574046741793
    outer loop
      vertex 0.34263502061367035 0.18657599389553176 0.1699352264404297
      vertex 0.27639199793338776 0.23814098536968337 0.05563545227050781
      vertex 0.3227340131998062 0.24556799232959853 0.16664886474609375
    endloop
  endfacet
  facet normal 0.351419318115837 0.19400089233335838 -0.9158974378328943
    outer loop
      vertex 0.29236601293087006 0.1784179955720912 0.04934120178222656
      vertex 0.1711300164461136 0.16508398950100048 0
      vertex 0.164560005068779 0.2257099896669398 0.010320663452148438
    endloop
  endfacet
  facet normal 0.3504259749352699 0.19037522140329488 -0.9170381187095289
    outer loop
      vertex 0.29236601293087006 0.1784179955720912 0.04934120178222656
      vertex 0.164560005068779 0.2257099896669398 0.010320663452148438
      vertex 0.27639199793338776 0.23814098536968337 0.05563545227050781
    endloop
  endfacet
  facet normal -0.39563714117023413 0.11308531668549733 -0.9114181058530629
    outer loop
      vertex 0.1711300164461136 0.16508398950100048 0
      vertex 0.04998500645160675 0.15233799815178023 0.051006317138671875
      vertex 0.05278301239013672 0.2139319926500331 0.05743408203125
    endloop
  endfacet
  facet normal -0.3959680957287088 0.1122376972992704 -0.9113791562626049
    outer loop
      vertex 0.1711300164461136 0.16508398950100048 0
      vertex 0.05278301239013672 0.2139319926500331 0.05743408203125
      vertex 0.164560005068779 0.2257099896669398 0.010320663452148438
    endloop
  endfacet
  facet normal -0.922352618451997 0.0805418303061889 -0.37786063675073867
    outer loop
      vertex 0.04998500645160675 0.15233799815178023 0.051006317138671875
      vertex 0 0.1498789936304103 0.17249488830566406
      vertex 0.006652012467384338 0.21148899197578536 0.1693897247314453
    endloop
  endfacet
  facet normal -0.9221452539737321 0.08135691074356259 -0.3781919931040119
    outer loop
      vertex 0.04998500645160675 0.15233799815178023 0.051006317138671875
      vertex 0.006652012467384338 0.21148899197578536 0.1693897247314453
      vertex 0.05278301239013672 0.2139319926500331 0.05743408203125
    endloop
  endfacet
  facet normal -0.9200673724453856 0.1206668964099804 0.3727137377025792
    outer loop
      vertex 0 0.1498789936304103 0.17249488830566406
      vertex 0.05043001472949982 0.16184699535369979 0.2931098937988281
      vertex 0.05316200852394104 0.22189699113369094 0.2804126739501953
    endloop
  endfacet
  facet normal -0.9197736565311506 0.11816928148135337 0.3742358102393428
    outer loop
      vertex 0 0.1498789936304103 0.17249488830566406
      vertex 0.05316200852394104 0.22189699113369094 0.2804126739501953
      vertex 0.006652012467384338 0.21148899197578536 0.1693897247314453
    endloop
  endfacet
  facet normal -0.3471649067968787 -0.19019989062292275 0.9183139599808676
    outer loop
      vertex 0.0660800039768219 0.10272899270057784 0.2865619659423828
      vertex 0.1781889945268631 0.1182869970798503 0.3321666717529297
      vertex 0.1716190129518509 0.17857998609542952 0.34217071533203125
    endloop
  endfacet
  facet normal -0.3451588989320248 -0.19310146256227934 0.9184645663520944
    outer loop
      vertex 0.0660800039768219 0.10272899270057784 0.2865619659423828
      vertex 0.1716190129518509 0.17857998609542952 0.34217071533203125
      vertex 0.05043001472949982 0.16184699535369979 0.2931098937988281
    endloop
  endfacet
  facet normal 0.3925390132269941 -0.1074217515314289 0.9134405784684066
    outer loop
      vertex 0.1781889945268631 0.1182869970798503 0.3321666717529297
      vertex 0.29010601341724396 0.12637299299240218 0.2850227355957031
      vertex 0.2926040142774582 0.18753099441528426 0.2911415100097656
    endloop
  endfacet
  facet normal 0.3931402644632286 -0.10865489248788858 0.9130360599648999
    outer loop
      vertex 0.1781889945268631 0.1182869970798503 0.3321666717529297
      vertex 0.2926040142774582 0.18753099441528426 0.2911415100097656
      vertex 0.1716190129518509 0.17857998609542952 0.34217071533203125
    endloop
  endfacet
  facet normal 0.9215810641079595 -0.07663407578954161 0.3805463975726529
    outer loop
      vertex 0.29010601341724396 0.12637299299240218 0.2850227355957031
      vertex 0.3363550156354904 0.1250909864902507 0.1727619171142578
      vertex 0.34263502061367035 0.18657599389553176 0.1699352264404297
    endloop
  endfacet
  facet normal 0.9214821066665367 -0.07575272543101354 0.38096227068198585
    outer loop
      vertex 0.29010601341724396 0.12637299299240218 0.2850227355957031
      vertex 0.34263502061367035 0.18657599389553176 0.1699352264404297
      vertex 0.2926040142774582 0.18753099441528426 0.2911415100097656
    endloop
  endfacet
  facet normal 0.9203099999356391 -0.10981399724648054 -0.37546023761140673
    outer loop
      vertex 0.3363550156354904 0.1250909864902507 0.1727619171142578
      vertex 0.2898170202970505 0.11720398068428145 0.06099700927734375
      vertex 0.29236601293087006 0.1784179955720912 0.04934120178222656
    endloop
  endfacet
  facet normal 0.9199395092604723 -0.1112451573965682 -0.37594655771454283
    outer loop
      vertex 0.3363550156354904 0.1250909864902507 0.1727619171142578
      vertex 0.29236601293087006 0.1784179955720912 0.04934120178222656
      vertex 0.34263502061367035 0.18657599389553176 0.1699352264404297
    endloop
  endfacet
  facet normal 0.38907443502158 -0.1851688559633207 -0.9024043322113836
    outer loop
      vertex 0.2898170202970505 0.11720398068428145 0.06099700927734375
      vertex 0.1776760071516037 0.10479199886322127 0.015193939208984375
      vertex 0.1711300164461136 0.16508398950100048 0
    endloop
  endfacet
  facet normal 0.3879071830811427 -0.18796579303945316 -0.9023285864700855
    outer loop
      vertex 0.2898170202970505 0.11720398068428145 0.06099700927734375
      vertex 0.1711300164461136 0.16508398950100048 0
      vertex 0.29236601293087006 0.1784179955720912 0.04934120178222656
    endloop
  endfacet
  facet normal -0.3505497415420932 -0.26481492744372714 -0.898325070844483
    outer loop
      vertex 0.1776760071516037 0.10479199886322127 0.015193939208984375
      vertex 0.06565101444721222 0.09322500228881941 0.06231880187988281
      vertex 0.04998500645160675 0.15233799815178023 0.051006317138671875
    endloop
  endfacet
  facet normal -0.35045908317296254 -0.26446778987820346 -0.8984626976889498
    outer loop
      vertex 0.1776760071516037 0.10479199886322127 0.015193939208984375
      vertex 0.04998500645160675 0.15233799815178023 0.051006317138671875
      vertex 0.1711300164461136 0.16508398950100048 0
    endloop
  endfacet
  facet normal -0.8787443532151609 -0.306075215495203 -0.36623260935098845
    outer loop
      vertex 0.06565101444721222 0.09322500228881941 0.06231880187988281
      vertex 0.01943400502204895 0.09135198593139754 0.17477798461914062
      vertex 0 0.1498789936304103 0.17249488830566406
    endloop
  endfacet
  facet normal -0.8790326553845205 -0.30334695308185106 -0.36780730936673367
    outer loop
      vertex 0.06565101444721222 0.09322500228881941 0.06231880187988281
      vertex 0 0.1498789936304103 0.17249488830566406
      vertex 0.04998500645160675 0.15233799815178023 0.051006317138671875
    endloop
  endfacet
  facet normal -0.8767988267689496 -0.27574323415792795 0.39394096790346594
    outer loop
      vertex 0.01943400502204895 0.09135198593139754 0.17477798461914062
      vertex 0.0660800039768219 0.10272899270057784 0.2865619659423828
      vertex 0.05043001472949982 0.16184699535369979 0.2931098937988281
    endloop
  endfacet
  facet normal -0.8767847677622479 -0.27577022539062995 0.3939533650168534
    outer loop
      vertex 0.01943400502204895 0.09135198593139754 0.17477798461914062
      vertex 0.05043001472949982 0.16184699535369979 0.2931098937988281
      vertex 0 0.1498789936304103 0.17249488830566406
    endloop
  endfacet
  facet normal -0.24991454802350765 -0.5514048158381271 0.7959242726269422
    outer loop
      vertex 0.09776701033115387 0.053326994180680376 0.26191139221191406
      vertex 0.18365801870822906 0.06502899527549849 0.29698753356933594
      vertex 0.1781889945268631 0.1182869970798503 0.3321666717529297
    endloop
  endfacet
  facet normal -0.24635348997828344 -0.5546070512337152 0.7948087673757522
    outer loop
      vertex 0.09776701033115387 0.053326994180680376 0.26191139221191406
      vertex 0.1781889945268631 0.1182869970798503 0.3321666717529297
      vertex 0.0660800039768219 0.10272899270057784 0.2865619659423828
    endloop
  endfacet
  facet normal 0.3693712417745847 -0.4865321195118267 0.7917394662597228
    outer loop
      vertex 0.18365801870822906 0.06502899527549849 0.29698753356933594
      vertex 0.26940400898456573 0.07140800356865035 0.26090431213378906
      vertex 0.29010601341724396 0.12637299299240218 0.2850227355957031
    endloop
  endfacet
  facet normal 0.3689245674194715 -0.48560552280757874 0.7925162078930209
    outer loop
      vertex 0.18365801870822906 0.06502899527549849 0.29698753356933594
      vertex 0.29010601341724396 0.12637299299240218 0.2850227355957031
      vertex 0.1781889945268631 0.1182869970798503 0.3321666717529297
    endloop
  endfacet
  facet normal 0.8193587079027101 -0.45989550089566134 0.34226807627929595
    outer loop
      vertex 0.26940400898456573 0.07140800356865035 0.26090431213378906
      vertex 0.30481599271297455 0.0704250037670146 0.17481040954589844
      vertex 0.3363550156354904 0.1250909864902507 0.1727619171142578
    endloop
  endfacet
  facet normal 0.8195382191956487 -0.45912293554036154 0.342874958750892
    outer loop
      vertex 0.26940400898456573 0.07140800356865035 0.26090431213378906
      vertex 0.3363550156354904 0.1250909864902507 0.1727619171142578
      vertex 0.29010601341724396 0.12637299299240218 0.2850227355957031
    endloop
  endfacet
  facet normal 0.8220833200101232 -0.4803069284953907 -0.30575197366567747
    outer loop
      vertex 0.30481599271297455 0.0704250037670146 0.17481040954589844
      vertex 0.2691359966993332 0.06393900513649092 0.0890655517578125
      vertex 0.2898170202970505 0.11720398068428145 0.06099700927734375
    endloop
  endfacet
  facet normal 0.819328278650066 -0.48420760230851784 -0.306992132913787
    outer loop
      vertex 0.30481599271297455 0.0704250037670146 0.17481040954589844
      vertex 0.2898170202970505 0.11720398068428145 0.06099700927734375
      vertex 0.3363550156354904 0.1250909864902507 0.1727619171142578
    endloop
  endfacet
  facet normal 0.3709758796445175 -0.5380726698269434 -0.7568716527306868
    outer loop
      vertex 0.2691359966993332 0.06393900513649092 0.0890655517578125
      vertex 0.1832290142774582 0.054188996553422075 0.053890228271484375
      vertex 0.1776760071516037 0.10479199886322127 0.015193939208984375
    endloop
  endfacet
  facet normal 0.3685807946229394 -0.5413382849572022 -0.755712285909603
    outer loop
      vertex 0.2691359966993332 0.06393900513649092 0.0890655517578125
      vertex 0.1776760071516037 0.10479199886322127 0.015193939208984375
      vertex 0.2898170202970505 0.11720398068428145 0.06099700927734375
    endloop
  endfacet
  facet normal -0.2556826314859234 -0.6077985574022258 -0.751802703889928
    outer loop
      vertex 0.1832290142774582 0.054188996553422075 0.053890228271484375
      vertex 0.09743300080299377 0.04566499590873824 0.08996009826660156
      vertex 0.06565101444721222 0.09322500228881941 0.06231880187988281
    endloop
  endfacet
  facet normal -0.25490070920410784 -0.6048785341845365 -0.7544187082317149
    outer loop
      vertex 0.1832290142774582 0.054188996553422075 0.053890228271484375
      vertex 0.06565101444721222 0.09322500228881941 0.06231880187988281
      vertex 0.1776760071516037 0.10479199886322127 0.015193939208984375
    endloop
  endfacet
  facet normal -0.7011947263072026 -0.6489574761665945 -0.29526284887613446
    outer loop
      vertex 0.09743300080299377 0.04566499590873824 0.08996009826660156
      vertex 0.06203700602054596 0.044694006443024736 0.17615318298339844
      vertex 0.01943400502204895 0.09135198593139754 0.17477798461914062
    endloop
  endfacet
  facet normal -0.7034828972030037 -0.6443660972968422 -0.29984020076918433
    outer loop
      vertex 0.09743300080299377 0.04566499590873824 0.08996009826660156
      vertex 0.01943400502204895 0.09135198593139754 0.17477798461914062
      vertex 0.06565101444721222 0.09322500228881941 0.06231880187988281
    endloop
  endfacet
  facet normal -0.6973542228015065 -0.6235892641536059 0.3533178704414359
    outer loop
      vertex 0.06203700602054596 0.044694006443024736 0.17615318298339844
      vertex 0.09776701033115387 0.053326994180680376 0.26191139221191406
      vertex 0.0660800039768219 0.10272899270057784 0.2865619659423828
    endloop
  endfacet
  facet normal -0.6958303011517902 -0.6249239494126444 0.35396362729737024
    outer loop
      vertex 0.06203700602054596 0.044694006443024736 0.17615318298339844
      vertex 0.0660800039768219 0.10272899270057784 0.2865619659423828
      vertex 0.01943400502204895 0.09135198593139754 0.17477798461914062
    endloop
  endfacet
  facet normal -0.11767180268061184 -0.8257217803604165 0.5516673710600611
    outer loop
      vertex 0.14074499905109406 0.021329998970032793 0.2231903076171875
      vertex 0.18722499907016754 0.02741998434066878 0.2422199249267578
      vertex 0.18713600933551788 0.02835398912429915 0.24359893798828125
    endloop
  endfacet
  facet normal -0.11620715768046361 -0.8276935266651795 0.5490166868323636
    outer loop
      vertex 0.14074499905109406 0.021329998970032793 0.2231903076171875
      vertex 0.18713600933551788 0.02835398912429915 0.24359893798828125
      vertex 0.13966600596904755 0.022127985954285723 0.2241649627685547
    endloop
  endfacet
  facet normal 0.29272715674996375 -0.7838380715804046 0.5476391962252104
    outer loop
      vertex 0.18722499907016754 0.02741998434066878 0.2422199249267578
      vertex 0.2336300164461136 0.031118988990784746 0.22270965576171875
      vertex 0.23452802002429962 0.03212597966194258 0.22367095947265625
    endloop
  endfacet
  facet normal 0.2931620364642755 -0.7826962372544608 0.5490379044873199
    outer loop
      vertex 0.18722499907016754 0.02741998434066878 0.2422199249267578
      vertex 0.23452802002429962 0.03212597966194258 0.22367095947265625
      vertex 0.18713600933551788 0.02835398912429915 0.24359893798828125
    endloop
  endfacet
  facet normal 0.5901572075278854 -0.7680621803124896 0.24858591588525936
    outer loop
      vertex 0.2336300164461136 0.031118988990784746 0.22270965576171875
      vertex 0.25278399884700775 0.03074598312378035 0.1760845184326172
      vertex 0.2540910094976425 0.031740993261338335 0.176055908203125
    endloop
  endfacet
  facet normal 0.5921537534347042 -0.7662314875748703 0.2494859509912191
    outer loop
      vertex 0.2336300164461136 0.031118988990784746 0.22270965576171875
      vertex 0.2540910094976425 0.031740993261338335 0.176055908203125
      vertex 0.23452802002429962 0.03212597966194258 0.22367095947265625
    endloop
  endfacet
  facet normal 0.5961709087908995 -0.7815740656207814 -0.18363612787367192
    outer loop
      vertex 0.25278399884700775 0.03074598312378035 0.1760845184326172
      vertex 0.2334660142660141 0.02692198753357039 0.12964439392089844
      vertex 0.23436100780963898 0.02784398198127852 0.12862586975097656
    endloop
  endfacet
  facet normal 0.5930570567752789 -0.7842598283206953 -0.18226313146502623
    outer loop
      vertex 0.25278399884700775 0.03074598312378035 0.1760845184326172
      vertex 0.23436100780963898 0.02784398198127852 0.12862586975097656
      vertex 0.2540910094976425 0.031740993261338335 0.176055908203125
    endloop
  endfacet
  facet normal 0.2970705042977648 -0.8209035871524638 -0.48771550731598495
    outer loop
      vertex 0.2334660142660141 0.02692198753357039 0.12964439392089844
      vertex 0.18698202073574066 0.02142199873924361 0.11058807373046875
      vertex 0.1868870109319687 0.022232979536057573 0.10916519165039062
    endloop
  endfacet
  facet normal 0.2960220787939276 -0.8229729806948006 -0.4848570943204161
    outer loop
      vertex 0.2334660142660141 0.02692198753357039 0.12964439392089844
      vertex 0.1868870109319687 0.022232979536057573 0.10916519165039062
      vertex 0.23436100780963898 0.02784398198127852 0.12862586975097656
    endloop
  endfacet
  facet normal -0.1216026993897117 -0.8673994033018517 -0.48252570776356285
    outer loop
      vertex 0.18698202073574066 0.02142199873924361 0.11058807373046875
      vertex 0.14056499302387238 0.017076998949051958 0.130096435546875
      vertex 0.13948200643062592 0.017787992954255205 0.1290912628173828
    endloop
  endfacet
  facet normal -0.12278301011385187 -0.865724712953292 -0.48522680656505557
    outer loop
      vertex 0.18698202073574066 0.02142199873924361 0.11058807373046875
      vertex 0.13948200643062592 0.017787992954255205 0.1290912628173828
      vertex 0.1868870109319687 0.022232979536057573 0.10916519165039062
    endloop
  endfacet
  facet normal -0.4161910927427146 -0.8922727350186872 -0.17502668557650494
    outer loop
      vertex 0.14056499302387238 0.017076998949051958 0.130096435546875
      vertex 0.12141402065753937 0.016858994960785967 0.17674636840820312
      vertex 0.11992399394512177 0.01755699515342818 0.17673110961914062
    endloop
  endfacet
  facet normal -0.420200513730662 -0.890036341664517 -0.17682431613590663
    outer loop
      vertex 0.14056499302387238 0.017076998949051958 0.130096435546875
      vertex 0.11992399394512177 0.01755699515342818 0.17673110961914062
      vertex 0.13948200643062592 0.017787992954255205 0.1290912628173828
    endloop
  endfacet
  facet normal -0.4141990158065832 -0.8733057213755606 0.2564688915201402
    outer loop
      vertex 0.12141402065753937 0.016858994960785967 0.17674636840820312
      vertex 0.14074499905109406 0.021329998970032793 0.2231903076171875
      vertex 0.13966600596904755 0.022127985954285723 0.2241649627685547
    endloop
  endfacet
  facet normal -0.4122391197774898 -0.874417411703801 0.25583803125083937
    outer loop
      vertex 0.12141402065753937 0.016858994960785967 0.17674636840820312
      vertex 0.13966600596904755 0.022127985954285723 0.2241649627685547
      vertex 0.11992399394512177 0.01755699515342818 0.17673110961914062
    endloop
  endfacet
  facet normal -0.06240284662194032 -0.8986954751129106 0.43411096247970776
    outer loop
      vertex 0.16119800508022308 0.005685985088349443 0.20468902587890625
      vertex 0.18871600925922394 0.00922399759292708 0.21596908569335938
      vertex 0.18803901970386505 0.018078982830048662 0.23420333862304688
    endloop
  endfacet
  facet normal -0.05977867820497671 -0.8997998934264035 0.4321882245294273
    outer loop
      vertex 0.16119800508022308 0.005685985088349443 0.20468902587890625
      vertex 0.18803901970386505 0.018078982830048662 0.23420333862304688
      vertex 0.14744700491428375 0.012787997722626787 0.2175731658935547
    endloop
  endfacet
  facet normal 0.251099838284346 -0.8684156701863028 0.4275547859496484
    outer loop
      vertex 0.18871600925922394 0.00922399759292708 0.21596908569335938
      vertex 0.21618999540805817 0.011482000350953203 0.2044200897216797
      vertex 0.22856499254703522 0.021335005760193926 0.2171649932861328
    endloop
  endfacet
  facet normal 0.250626835217748 -0.867141226810639 0.43040943557742317
    outer loop
      vertex 0.18871600925922394 0.00922399759292708 0.21596908569335938
      vertex 0.22856499254703522 0.021335005760193926 0.2171649932861328
      vertex 0.18803901970386505 0.018078982830048662 0.23420333862304688
    endloop
  endfacet
  facet normal 0.4732966580837456 -0.8579474134068727 0.19979116415701356
    outer loop
      vertex 0.21618999540805817 0.011482000350953203 0.2044200897216797
      vertex 0.22752802073955536 0.011307001113892656 0.17680931091308594
      vertex 0.24529199302196503 0.02102097868919478 0.17644119262695312
    endloop
  endfacet
  facet normal 0.4746152350663336 -0.8568064579566881 0.20155166148321166
    outer loop
      vertex 0.21618999540805817 0.011482000350953203 0.2044200897216797
      vertex 0.24529199302196503 0.02102097868919478 0.17644119262695312
      vertex 0.22856499254703522 0.021335005760193926 0.2171649932861328
    endloop
  endfacet
  facet normal 0.47754884449850143 -0.8698159531750552 -0.12396494956364215
    outer loop
      vertex 0.22752802073955536 0.011307001113892656 0.17680931091308594
      vertex 0.21608801186084747 0.008946001529694658 0.1493053436279297
      vertex 0.22841902077198029 0.017629981040955645 0.13587570190429688
    endloop
  endfacet
  facet normal 0.4740789709765182 -0.8716606661332568 -0.12432542939387956
    outer loop
      vertex 0.22752802073955536 0.011307001113892656 0.17680931091308594
      vertex 0.22841902077198029 0.017629981040955645 0.13587570190429688
      vertex 0.24529199302196503 0.02102097868919478 0.17644119262695312
    endloop
  endfacet
  facet normal 0.25398849586283295 -0.9001692864700658 -0.35381506421477965
    outer loop
      vertex 0.21608801186084747 0.008946001529694658 0.1493053436279297
      vertex 0.18856899440288544 0.00561800599098311 0.1380176544189453
      vertex 0.18782399594783783 0.01279300451278792 0.11922836303710938
    endloop
  endfacet
  facet normal 0.251715624468647 -0.9015734217849367 -0.35185879203077997
    outer loop
      vertex 0.21608801186084747 0.008946001529694658 0.1493053436279297
      vertex 0.18782399594783783 0.01279300451278792 0.11922836303710938
      vertex 0.22841902077198029 0.017629981040955645 0.13587570190429688
    endloop
  endfacet
  facet normal -0.06260196538100912 -0.9345332960314684 -0.35032629438709684
    outer loop
      vertex 0.18856899440288544 0.00561800599098311 0.1380176544189453
      vertex 0.16109199821949005 0.003129988908768755 0.1495647430419922
      vertex 0.14729000627994537 0.009040981531144243 0.1362628936767578
    endloop
  endfacet
  facet normal -0.062340592586472725 -0.9332075781889623 -0.3538887770566609
    outer loop
      vertex 0.18856899440288544 0.00561800599098311 0.1380176544189453
      vertex 0.14729000627994537 0.009040981531144243 0.1362628936767578
      vertex 0.18782399594783783 0.01279300451278792 0.11922836303710938
    endloop
  endfacet
  facet normal -0.2865473022517193 -0.9506671460831464 -0.11883863399748114
    outer loop
      vertex 0.16109199821949005 0.003129988908768755 0.1495647430419922
      vertex 0.14975400269031525 0.0030950009822856006 0.1771831512451172
      vertex 0.13056601583957672 0.008901000022889238 0.1770038604736328
    endloop
  endfacet
  facet normal -0.28911665509456497 -0.9494953097786106 -0.12194349697852044
    outer loop
      vertex 0.16109199821949005 0.003129988908768755 0.1495647430419922
      vertex 0.13056601583957672 0.008901000022889238 0.1770038604736328
      vertex 0.14729000627994537 0.009040981531144243 0.1362628936767578
    endloop
  endfacet
  facet normal -0.2880134627331551 -0.9347899046741177 0.2078847743434125
    outer loop
      vertex 0.14975400269031525 0.0030950009822856006 0.1771831512451172
      vertex 0.16119800508022308 0.005685985088349443 0.20468902587890625
      vertex 0.14744700491428375 0.012787997722626787 0.2175731658935547
    endloop
  endfacet
  facet normal -0.28504943310047803 -0.9356162489094182 0.20825238405782043
    outer loop
      vertex 0.14975400269031525 0.0030950009822856006 0.1771831512451172
      vertex 0.14744700491428375 0.012787997722626787 0.2175731658935547
      vertex 0.13056601583957672 0.008901000022889238 0.1770038604736328
    endloop
  endfacet
  facet normal 0.004262152289759075 -0.9585014348754273 0.28505584259861455
    outer loop
      vertex 0.16119800508022308 0.005685985088349443 0.20468902587890625
      vertex 0.17722700536251068 0.0011319816112528858 0.18913650512695312
      vertex 0.1893949955701828 0.0026699900627146778 0.19412612915039062
    endloop
  endfacet
  facet normal 0.0052724030614002375 -0.9577543212404298 0.2875393223739007
    outer loop
      vertex 0.16119800508022308 0.005685985088349443 0.20468902587890625
      vertex 0.1893949955701828 0.0026699900627146778 0.19412612915039062
      vertex 0.18871600925922394 0.00922399759292708 0.21596908569335938
    endloop
  endfacet
  facet normal 0.19992644323577288 -0.9367473618513676 0.2872869599539736
    outer loop
      vertex 0.18871600925922394 0.00922399759292708 0.21596908569335938
      vertex 0.1893949955701828 0.0026699900627146778 0.19412612915039062
      vertex 0.20154400169849396 0.0036969780921946582 0.18902015686035156
    endloop
  endfacet
  facet normal 0.1973886828298952 -0.9376013521698561 0.2862541044246117
    outer loop
      vertex 0.18871600925922394 0.00922399759292708 0.21596908569335938
      vertex 0.20154400169849396 0.0036969780921946582 0.18902015686035156
      vertex 0.21618999540805817 0.011482000350953203 0.2044200897216797
    endloop
  endfacet
  facet normal 0.3417095034306474 -0.9286355917543742 0.1444664424431637
    outer loop
      vertex 0.21618999540805817 0.011482000350953203 0.2044200897216797
      vertex 0.20154400169849396 0.0036969780921946582 0.18902015686035156
      vertex 0.2065570205450058 0.0036419928073893604 0.17680931091308594
    endloop
  endfacet
  facet normal 0.3396465770004405 -0.9292525392713697 0.14536134627057937
    outer loop
      vertex 0.21618999540805817 0.011482000350953203 0.2044200897216797
      vertex 0.2065570205450058 0.0036419928073893604 0.17680931091308594
      vertex 0.22752802073955536 0.011307001113892656 0.17680931091308594
    endloop
  endfacet
  facet normal 0.3426797529966067 -0.937551125764973 -0.05973670113938452
    outer loop
      vertex 0.22752802073955536 0.011307001113892656 0.17680931091308594
      vertex 0.2065570205450058 0.0036419928073893604 0.17680931091308594
      vertex 0.20149801671504974 0.0025680065155039844 0.1646442413330078
    endloop
  endfacet
  facet normal 0.34380441613594404 -0.9369542539785801 -0.06257195375617713
    outer loop
      vertex 0.22752802073955536 0.011307001113892656 0.17680931091308594
      vertex 0.20149801671504974 0.0025680065155039844 0.1646442413330078
      vertex 0.21608801186084747 0.008946001529694658 0.1493053436279297
    endloop
  endfacet
  facet normal 0.20220062558895271 -0.9574774217219887 -0.20579575774065198
    outer loop
      vertex 0.21608801186084747 0.008946001529694658 0.1493053436279297
      vertex 0.20149801671504974 0.0025680065155039844 0.1646442413330078
      vertex 0.18932901322841644 0.0010710060596476612 0.1596527099609375
    endloop
  endfacet
  facet normal 0.20116711640338397 -0.9571681036490729 -0.2082330728649628
    outer loop
      vertex 0.21608801186084747 0.008946001529694658 0.1493053436279297
      vertex 0.18932901322841644 0.0010710060596476612 0.1596527099609375
      vertex 0.18856899440288544 0.00561800599098311 0.1380176544189453
    endloop
  endfacet
  facet normal -0.00019905390104937328 -0.9786217719410464 -0.2056681498446244
    outer loop
      vertex 0.18856899440288544 0.00561800599098311 0.1380176544189453
      vertex 0.18932901322841644 0.0010710060596476612 0.1596527099609375
      vertex 0.17718000710010529 1.0547118733938987e-15 0.16476058959960938
    endloop
  endfacet
  facet normal 0.002701901431649011 -0.9788661642571561 -0.20448406344049344
    outer loop
      vertex 0.18856899440288544 0.00561800599098311 0.1380176544189453
      vertex 0.17718000710010529 1.0547118733938987e-15 0.16476058959960938
      vertex 0.16109199821949005 0.003129988908768755 0.1495647430419922
    endloop
  endfacet
  facet normal -0.13931754239390157 -0.9886549498734313 -0.05614278646528568
    outer loop
      vertex 0.16109199821949005 0.003129988908768755 0.1495647430419922
      vertex 0.17718000710010529 1.0547118733938987e-15 0.16476058959960938
      vertex 0.17216701805591583 0.000012993812562089868 0.176971435546875
    endloop
  endfacet
  facet normal -0.1365351596002137 -0.988976458248632 -0.057303710376693275
    outer loop
      vertex 0.16109199821949005 0.003129988908768755 0.1495647430419922
      vertex 0.17216701805591583 0.000012993812562089868 0.176971435546875
      vertex 0.14975400269031525 0.0030950009822856006 0.1771831512451172
    endloop
  endfacet
  facet normal -0.13342411789577485 -0.9802952638727069 0.14566811728197182
    outer loop
      vertex 0.14975400269031525 0.0030950009822856006 0.1771831512451172
      vertex 0.17216701805591583 0.000012993812562089868 0.176971435546875
      vertex 0.17722700536251068 0.0011319816112528858 0.18913650512695312
    endloop
  endfacet
  facet normal -0.1345113863009238 -0.9797586920764091 0.14825515929008343
    outer loop
      vertex 0.14975400269031525 0.0030950009822856006 0.1771831512451172
      vertex 0.17722700536251068 0.0011319816112528858 0.18913650512695312
      vertex 0.16119800508022308 0.005685985088349443 0.20468902587890625
    endloop
  endfacet
  facet normal -0.2146313577796908 -0.6485988089644523 0.73024171701399
    outer loop
      vertex 0.14074499905109406 0.021329998970032793 0.2231903076171875
      vertex 0.14744700491428375 0.012787997722626787 0.2175731658935547
      vertex 0.18803901970386505 0.018078982830048662 0.23420333862304688
    endloop
  endfacet
  facet normal -0.21486758423105431 -0.6467642814724069 0.7317977080164928
    outer loop
      vertex 0.14074499905109406 0.021329998970032793 0.2231903076171875
      vertex 0.18803901970386505 0.018078982830048662 0.23420333862304688
      vertex 0.18722499907016754 0.02741998434066878 0.2422199249267578
    endloop
  endfacet
  facet normal 0.3523991371089212 -0.5916081922219476 0.7251307434254646
    outer loop
      vertex 0.18722499907016754 0.02741998434066878 0.2422199249267578
      vertex 0.18803901970386505 0.018078982830048662 0.23420333862304688
      vertex 0.22856499254703522 0.021335005760193926 0.2171649932861328
    endloop
  endfacet
  facet normal 0.35184716101557184 -0.5927205154525268 0.7244901419943361
    outer loop
      vertex 0.18722499907016754 0.02741998434066878 0.2422199249267578
      vertex 0.22856499254703522 0.021335005760193926 0.2171649932861328
      vertex 0.2336300164461136 0.031118988990784746 0.22270965576171875
    endloop
  endfacet
  facet normal 0.7577372292090744 -0.5711446556362941 0.3156391512608242
    outer loop
      vertex 0.2336300164461136 0.031118988990784746 0.22270965576171875
      vertex 0.22856499254703522 0.021335005760193926 0.2171649932861328
      vertex 0.24529199302196503 0.02102097868919478 0.17644119262695312
    endloop
  endfacet
  facet normal 0.7572422204523093 -0.5717917103488988 0.31565560273934246
    outer loop
      vertex 0.2336300164461136 0.031118988990784746 0.22270965576171875
      vertex 0.24529199302196503 0.02102097868919478 0.17644119262695312
      vertex 0.25278399884700775 0.03074598312378035 0.1760845184326172
    endloop
  endfacet
  facet normal 0.7589066629578782 -0.5944058314115631 -0.26597440572744213
    outer loop
      vertex 0.25278399884700775 0.03074598312378035 0.1760845184326172
      vertex 0.24529199302196503 0.02102097868919478 0.17644119262695312
      vertex 0.22841902077198029 0.017629981040955645 0.13587570190429688
    endloop
  endfacet
  facet normal 0.7601184352142284 -0.5922012545778705 -0.2674278192781543
    outer loop
      vertex 0.25278399884700775 0.03074598312378035 0.1760845184326172
      vertex 0.22841902077198029 0.017629981040955645 0.13587570190429688
      vertex 0.2334660142660141 0.02692198753357039 0.12964439392089844
    endloop
  endfacet
  facet normal 0.3542727474469089 -0.6459118716231348 -0.6762312285843635
    outer loop
      vertex 0.2334660142660141 0.02692198753357039 0.12964439392089844
      vertex 0.22841902077198029 0.017629981040955645 0.13587570190429688
      vertex 0.18782399594783783 0.01279300451278792 0.11922836303710938
    endloop
  endfacet
  facet normal 0.35413467534745774 -0.6442343396900263 -0.6779017239104107
    outer loop
      vertex 0.2334660142660141 0.02692198753357039 0.12964439392089844
      vertex 0.18782399594783783 0.01279300451278792 0.11922836303710938
      vertex 0.18698202073574066 0.02142199873924361 0.11058807373046875
    endloop
  endfacet
  facet normal -0.2202523901894872 -0.7008411514709009 -0.6784619112527686
    outer loop
      vertex 0.18698202073574066 0.02142199873924361 0.11058807373046875
      vertex 0.18782399594783783 0.01279300451278792 0.11922836303710938
      vertex 0.14729000627994537 0.009040981531144243 0.1362628936767578
    endloop
  endfacet
  facet normal -0.2187882934995868 -0.702645066936239 -0.6770683809909505
    outer loop
      vertex 0.18698202073574066 0.02142199873924361 0.11058807373046875
      vertex 0.14729000627994537 0.009040981531144243 0.1362628936767578
      vertex 0.14056499302387238 0.017076998949051958 0.130096435546875
    endloop
  endfacet
  facet normal -0.6317519712987448 -0.7296095857742512 -0.26183830717921236
    outer loop
      vertex 0.14056499302387238 0.017076998949051958 0.130096435546875
      vertex 0.14729000627994537 0.009040981531144243 0.1362628936767578
      vertex 0.13056601583957672 0.008901000022889238 0.1770038604736328
    endloop
  endfacet
  facet normal -0.629098844950954 -0.7319545374135541 -0.2616814828012968
    outer loop
      vertex 0.14056499302387238 0.017076998949051958 0.130096435546875
      vertex 0.13056601583957672 0.008901000022889238 0.1770038604736328
      vertex 0.12141402065753937 0.016858994960785967 0.17674636840820312
    endloop
  endfacet
  facet normal -0.6251099535231626 -0.7082881037415427 0.32797180992347386
    outer loop
      vertex 0.12141402065753937 0.016858994960785967 0.17674636840820312
      vertex 0.13056601583957672 0.008901000022889238 0.1770038604736328
      vertex 0.14744700491428375 0.012787997722626787 0.2175731658935547
    endloop
  endfacet
  facet normal -0.6259661289360535 -0.7072291771579666 0.3286233351441698
    outer loop
      vertex 0.12141402065753937 0.016858994960785967 0.17674636840820312
      vertex 0.14744700491428375 0.012787997722626787 0.2175731658935547
      vertex 0.14074499905109406 0.021329998970032793 0.2231903076171875
    endloop
  endfacet
  facet normal 0.06458983069248518 -0.9870638930520339 0.1467413534218603
    outer loop
      vertex 0.1893949955701828 0.0026699900627146778 0.19412612915039062
      vertex 0.17722700536251068 0.0011319816112528858 0.18913650512695312
      vertex 0.18549801409244537 0.0004439949989329395 0.18086814880371094
    endloop
  endfacet
  facet normal 0.06312510479536261 -0.9870938043050816 0.14717690935433916
    outer loop
      vertex 0.1893949955701828 0.0026699900627146778 0.19412612915039062
      vertex 0.18549801409244537 0.0004439949989329395 0.18086814880371094
      vertex 0.1892540007829666 0.0009139776229868946 0.18240928649902344
    endloop
  endfacet
  facet normal 0.14368746772814947 -0.9789448013021773 0.1449861635512601
    outer loop
      vertex 0.20154400169849396 0.0036969780921946582 0.18902015686035156
      vertex 0.1893949955701828 0.0026699900627146778 0.19412612915039062
      vertex 0.1892540007829666 0.0009139776229868946 0.18240928649902344
    endloop
  endfacet
  facet normal 0.14446502434696215 -0.9790376494159891 0.1435797261678912
    outer loop
      vertex 0.20154400169849396 0.0036969780921946582 0.18902015686035156
      vertex 0.1892540007829666 0.0009139776229868946 0.18240928649902344
      vertex 0.19300399720668793 0.0012359917163859424 0.1808319091796875
    endloop
  endfacet
  facet normal 0.006450260699624432 -0.99601660670528 0.08893432017059966
    outer loop
      vertex 0.17722700536251068 0.0011319816112528858 0.18913650512695312
      vertex 0.17216701805591583 0.000012993812562089868 0.176971435546875
      vertex 0.1839360147714615 0.00010198354721174807 0.17711448669433594
    endloop
  endfacet
  facet normal 0.005560239798078372 -0.996065822434855 0.08844185157810525
    outer loop
      vertex 0.17722700536251068 0.0011319816112528858 0.18913650512695312
      vertex 0.1839360147714615 0.00010198354721174807 0.17711448669433594
      vertex 0.18549801409244537 0.0004439949989329395 0.18086814880371094
    endloop
  endfacet
  facet normal 0.19884213630774528 -0.9762483963790066 0.08602832903172053
    outer loop
      vertex 0.2065570205450058 0.0036419928073893604 0.17680931091308594
      vertex 0.20154400169849396 0.0036969780921946582 0.18902015686035156
      vertex 0.19300399720668793 0.0012359917163859424 0.1808319091796875
    endloop
  endfacet
  facet normal 0.19852308431143487 -0.9764161766921127 0.08485301933008645
    outer loop
      vertex 0.2065570205450058 0.0036419928073893604 0.17680931091308594
      vertex 0.19300399720668793 0.0012359917163859424 0.1808319091796875
      vertex 0.1945510059595108 0.0012229979038249073 0.17706298828125
    endloop
  endfacet
  facet normal 0.007174083062136056 -0.9999662284431237 0.004009302364780986
    outer loop
      vertex 0.17216701805591583 0.000012993812562089868 0.176971435546875
      vertex 0.17718000710010529 1.0547118733938987e-15 0.16476058959960938
      vertex 0.18548400700092316 0.00009399652481184573 0.17334556579589844
    endloop
  endfacet
  facet normal 0.007497865697020886 -0.9999583771203816 0.0051986572076078656
    outer loop
      vertex 0.17216701805591583 0.000012993812562089868 0.176971435546875
      vertex 0.18548400700092316 0.00009399652481184573 0.17334556579589844
      vertex 0.1839360147714615 0.00010198354721174807 0.17711448669433594
    endloop
  endfacet
  facet normal 0.19759960717299405 -0.9802730801967535 0.004368465021902217
    outer loop
      vertex 0.20149801671504974 0.0025680065155039844 0.1646442413330078
      vertex 0.2065570205450058 0.0036419928073893604 0.17680931091308594
      vertex 0.1945510059595108 0.0012229979038249073 0.17706298828125
    endloop
  endfacet
  facet normal 0.1990441755832425 -0.9799766762973141 0.0052086543037899585
    outer loop
      vertex 0.20149801671504974 0.0025680065155039844 0.1646442413330078
      vertex 0.1945510059595108 0.0012229979038249073 0.17706298828125
      vertex 0.1929900199174881 0.0008859932422648487 0.173309326171875
    endloop
  endfacet
  facet normal 0.06554720718893912 -0.9964394727599996 -0.05302773571919054
    outer loop
      vertex 0.17718000710010529 1.0547118733938987e-15 0.16476058959960938
      vertex 0.18932901322841644 0.0010710060596476612 0.1596527099609375
      vertex 0.18923400342464447 0.00042000412941084475 0.1717681884765625
    endloop
  endfacet
  facet normal 0.06484271240893695 -0.996549656709978 -0.051809307645222194
    outer loop
      vertex 0.17718000710010529 1.0547118733938987e-15 0.16476058959960938
      vertex 0.18923400342464447 0.00042000412941084475 0.1717681884765625
      vertex 0.18548400700092316 0.00009399652481184573 0.17334556579589844
    endloop
  endfacet
  facet normal 0.14278416472250266 -0.9884043537904709 -0.051667356353303155
    outer loop
      vertex 0.18932901322841644 0.0010710060596476612 0.1596527099609375
      vertex 0.20149801671504974 0.0025680065155039844 0.1646442413330078
      vertex 0.1929900199174881 0.0008859932422648487 0.173309326171875
    endloop
  endfacet
  facet normal 0.14392807580601136 -0.9882224786363442 -0.05197154714475444
    outer loop
      vertex 0.18932901322841644 0.0010710060596476612 0.1596527099609375
      vertex 0.1929900199174881 0.0008859932422648487 0.173309326171875
      vertex 0.18923400342464447 0.00042000412941084475 0.1717681884765625
    endloop
  endfacet
  facet normal 0.10504097970521845 -0.9934766100686094 0.044391641433407916
    outer loop
      vertex 0.18548400700092316 0.00009399652481184573 0.17334556579589844
      vertex 0.18923400342464447 0.00042000412941084475 0.1717681884765625
      vertex 0.1929900199174881 0.0008859932422648487 0.173309326171875
    endloop
  endfacet
  facet normal 0.10504103935753799 -0.9934272776479892 0.04548212918931188
    outer loop
      vertex 0.18548400700092316 0.00009399652481184573 0.17334556579589844
      vertex 0.1929900199174881 0.0008859932422648487 0.173309326171875
      vertex 0.18924401700496674 0.0006629824638377246 0.17708969116210938
    endloop
  endfacet
  facet normal 0.10520526303147541 -0.9934175042897408 0.045315723553980156
    outer loop
      vertex 0.1839360147714615 0.00010198354721174807 0.17711448669433594
      vertex 0.18548400700092316 0.00009399652481184573 0.17334556579589844
      vertex 0.18924401700496674 0.0006629824638377246 0.17708969116210938
    endloop
  endfacet
  facet normal 0.10520494818316257 -0.9933520266584833 0.04672975509524928
    outer loop
      vertex 0.1839360147714615 0.00010198354721174807 0.17711448669433594
      vertex 0.18924401700496674 0.0006629824638377246 0.17708969116210938
      vertex 0.18549801409244537 0.0004439949989329395 0.18086814880371094
    endloop
  endfacet
  facet normal 0.10505935675503288 -0.9933759717697614 0.04654793517118403
    outer loop
      vertex 0.1945510059595108 0.0012229979038249073 0.17706298828125
      vertex 0.19300399720668793 0.0012359917163859424 0.1808319091796875
      vertex 0.18924401700496674 0.0006629824638377246 0.17708969116210938
    endloop
  endfacet
  facet normal 0.10505920888255661 -0.9934245244077634 0.04550029597904309
    outer loop
      vertex 0.1945510059595108 0.0012229979038249073 0.17706298828125
      vertex 0.18924401700496674 0.0006629824638377246 0.17708969116210938
      vertex 0.1929900199174881 0.0008859932422648487 0.173309326171875
    endloop
  endfacet
  facet normal 0.10504133734589609 -0.9933598272069144 0.04693155803971526
    outer loop
      vertex 0.19300399720668793 0.0012359917163859424 0.1808319091796875
      vertex 0.1892540007829666 0.0009139776229868946 0.18240928649902344
      vertex 0.18549801409244537 0.0004439949989329395 0.18086814880371094
    endloop
  endfacet
  facet normal 0.1050413870550323 -0.9933770183775242 0.04656615041996021
    outer loop
      vertex 0.19300399720668793 0.0012359917163859424 0.1808319091796875
      vertex 0.18549801409244537 0.0004439949989329395 0.18086814880371094
      vertex 0.18924401700496674 0.0006629824638377246 0.17708969116210938
    endloop
  endfacet
  facet normal -0.41203783266654476 -0.8734050787603911 0.25959274421102707
    outer loop
      vertex 0.09776701033115387 0.053326994180680376 0.26191139221191406
      vertex 0.06203700602054596 0.044694006443024736 0.17615318298339844
      vertex 0.11992399394512177 0.01755699515342818 0.17673110961914062
    endloop
  endfacet
  facet normal -0.4170148288708375 -0.8716434578053417 0.25755837196055864
    outer loop
      vertex 0.09776701033115387 0.053326994180680376 0.26191139221191406
      vertex 0.11992399394512177 0.01755699515342818 0.17673110961914062
      vertex 0.13966600596904755 0.022127985954285723 0.2241649627685547
    endloop
  endfacet
  facet normal -0.41973532014417575 -0.889133359623727 -0.18238456576062081
    outer loop
      vertex 0.06203700602054596 0.044694006443024736 0.17615318298339844
      vertex 0.09743300080299377 0.04566499590873824 0.08996009826660156
      vertex 0.13948200643062592 0.017787992954255205 0.1290912628173828
    endloop
  endfacet
  facet normal -0.416457755865329 -0.89209508246419 -0.175297750763733
    outer loop
      vertex 0.06203700602054596 0.044694006443024736 0.17615318298339844
      vertex 0.13948200643062592 0.017787992954255205 0.1290912628173828
      vertex 0.11992399394512177 0.01755699515342818 0.17673110961914062
    endloop
  endfacet
  facet normal -0.12063631868629277 -0.8628494156617984 -0.4908541173362127
    outer loop
      vertex 0.09743300080299377 0.04566499590873824 0.08996009826660156
      vertex 0.1832290142774582 0.054188996553422075 0.053890228271484375
      vertex 0.1868870109319687 0.022232979536057573 0.10916519165039062
    endloop
  endfacet
  facet normal -0.12267952418644268 -0.8658603748720112 -0.48501087160174927
    outer loop
      vertex 0.09743300080299377 0.04566499590873824 0.08996009826660156
      vertex 0.1868870109319687 0.022232979536057573 0.10916519165039062
      vertex 0.13948200643062592 0.017787992954255205 0.1290912628173828
    endloop
  endfacet
  facet normal 0.2938824008280829 -0.8205095100552857 -0.4903032514601111
    outer loop
      vertex 0.1832290142774582 0.054188996553422075 0.053890228271484375
      vertex 0.2691359966993332 0.06393900513649092 0.0890655517578125
      vertex 0.23436100780963898 0.02784398198127852 0.12862586975097656
    endloop
  endfacet
  facet normal 0.2984835598368324 -0.8175772135555889 -0.49241757115461593
    outer loop
      vertex 0.1832290142774582 0.054188996553422075 0.053890228271484375
      vertex 0.23436100780963898 0.02784398198127852 0.12862586975097656
      vertex 0.1868870109319687 0.022232979536057573 0.10916519165039062
    endloop
  endfacet
endsolid Standard Male Figure
