solid Standard Male Figure
  facet normal 0.10831838024023682 0.9937405183037737 -0.02732966855779303
    outer loop
      vertex 0.18820497393608093 0.3223059847950946 0.16190719604492188
      vertex 0.21003997325897217 0.31993198767304526 0.1621265411376953
      vertex 0.2036609947681427 0.32020298764109717 0.146697998046875
    endloop
  endfacet
  facet normal 0.10903167804150504 0.9936823967566473 -0.026596758438173856
    outer loop
      vertex 0.18820497393608093 0.3223059847950946 0.16190719604492188
      vertex 0.2036609947681427 0.32020298764109717 0.146697998046875
      vertex 0.18822699785232544 0.3217219859361659 0.14017868041992188
    endloop
  endfacet
  facet normal 0.10789138389188721 0.9938067329514606 -0.026601256027444533
    outer loop
      vertex 0.18820497393608093 0.3223059847950946 0.16190719604492188
      vertex 0.18822699785232544 0.3217219859361659 0.14017868041992188
      vertex 0.17278197407722473 0.3235649876296531 0.14638900756835938
    endloop
  endfacet
  facet normal 0.10842429220971493 0.9937342543466003 -0.027136775730156968
    outer loop
      vertex 0.18820497393608093 0.3223059847950946 0.16190719604492188
      vertex 0.17278197407722473 0.3235649876296531 0.14638900756835938
      vertex 0.16637298464775085 0.3246819861233245 0.16168594360351562
    endloop
  endfacet
  facet normal 0.1084443754415136 0.9936485828860628 -0.03003849469629057
    outer loop
      vertex 0.18820497393608093 0.3223059847950946 0.16190719604492188
      vertex 0.16637298464775085 0.3246819861233245 0.16168594360351562
      vertex 0.1727529764175415 0.32445198670029746 0.1771106719970703
    endloop
  endfacet
  facet normal 0.1076861958492993 0.9937071876472593 -0.03081733995141218
    outer loop
      vertex 0.18820497393608093 0.3223059847950946 0.16190719604492188
      vertex 0.1727529764175415 0.32445198670029746 0.1771106719970703
      vertex 0.1881829798221588 0.3229819871485244 0.18362808227539062
    endloop
  endfacet
  facet normal 0.10833832566860618 0.9936535336110219 -0.030256608098938986
    outer loop
      vertex 0.20362699031829834 0.32109698653221236 0.17742347717285156
      vertex 0.21003997325897217 0.31993198767304526 0.1621265411376953
      vertex 0.18820497393608093 0.3223059847950946 0.16190719604492188
    endloop
  endfacet
  facet normal 0.10889107605631401 0.9935760423068646 -0.03081203837991713
    outer loop
      vertex 0.20362699031829834 0.32109698653221236 0.17742347717285156
      vertex 0.18820497393608093 0.3223059847950946 0.16190719604492188
      vertex 0.1881829798221588 0.3229819871485244 0.18362808227539062
    endloop
  endfacet
  facet normal 0.11762196464624594 -0.8255926322275997 0.5518712522357551
    outer loop
      vertex 0.15548399090766907 0.028354972600937944 0.2435741424560547
      vertex 0.20295000076293945 0.022127985954285723 0.22414207458496094
      vertex 0.24484498798847198 0.053325980901719194 0.2618846893310547
    endloop
  endfacet
  facet normal 0.11556262736642536 -0.8222173850437894 0.5573184465706497
    outer loop
      vertex 0.15548399090766907 0.028354972600937944 0.2435741424560547
      vertex 0.24484498798847198 0.053325980901719194 0.2618846893310547
      vertex 0.15896198153495789 0.06502798199653731 0.29695701599121094
    endloop
  endfacet
  facet normal -0.29490629199007373 -0.7785089487450806 0.5540343813054338
    outer loop
      vertex 0.10809698700904846 0.03212499618530379 0.2236480712890625
      vertex 0.15548399090766907 0.028354972600937944 0.2435741424560547
      vertex 0.15896198153495789 0.06502798199653731 0.29695701599121094
    endloop
  endfacet
  facet normal -0.2905024521288133 -0.7814063943551872 0.5522792519803477
    outer loop
      vertex 0.10809698700904846 0.03212499618530379 0.2236480712890625
      vertex 0.15896198153495789 0.06502798199653731 0.29695701599121094
      vertex 0.07322397828102112 0.07140398025512801 0.2608795166015625
    endloop
  endfacet
  facet normal -0.593984101519446 -0.7645631082368465 0.25025215416724944
    outer loop
      vertex 0.08853599429130554 0.03173798322677718 0.17603683471679688
      vertex 0.10809698700904846 0.03212499618530379 0.2236480712890625
      vertex 0.07322397828102112 0.07140398025512801 0.2608795166015625
    endloop
  endfacet
  facet normal -0.5907744383076051 -0.7665519181012905 0.25176123589140115
    outer loop
      vertex 0.08853599429130554 0.03173798322677718 0.17603683471679688
      vertex 0.07322397828102112 0.07140398025512801 0.2608795166015625
      vertex 0.037815988063812256 0.07041898369789229 0.17479324340820312
    endloop
  endfacet
  facet normal -0.5934049267048223 -0.783960028259464 -0.1824205773860637
    outer loop
      vertex 0.1082639992237091 0.02783998847007857 0.1286144256591797
      vertex 0.08853599429130554 0.03173798322677718 0.17603683471679688
      vertex 0.037815988063812256 0.07041898369789229 0.17479324340820312
    endloop
  endfacet
  facet normal -0.5956285047925705 -0.7807673455479374 -0.1887565532758925
    outer loop
      vertex 0.1082639992237091 0.02783998847007857 0.1286144256591797
      vertex 0.037815988063812256 0.07041898369789229 0.17479324340820312
      vertex 0.07349297404289246 0.06392997503280745 0.08905410766601562
    endloop
  endfacet
  facet normal 0.17752168756106879 0.9731951386438057 0.1462096869757062
    outer loop
      vertex 0.20362699031829834 0.32109698653221236 0.17742347717285156
      vertex 0.1881829798221588 0.3229819871485244 0.18362808227539062
      vertex 0.18724799156188965 0.31657698750496016 0.22739601135253906
    endloop
  endfacet
  facet normal 0.18067318648589173 0.9724690969167238 0.14717695209171044
    outer loop
      vertex 0.20362699031829834 0.32109698653221236 0.17742347717285156
      vertex 0.18724799156188965 0.31657698750496016 0.22739601135253906
      vertex 0.23341098427772522 0.3108059875667106 0.20885848999023438
    endloop
  endfacet
  facet normal 0.031204766158725677 0.9883383877796121 0.14904191964067
    outer loop
      vertex 0.1881829798221588 0.3229819871485244 0.18362808227539062
      vertex 0.1727529764175415 0.32445198670029746 0.1771106719970703
      vertex 0.14113697409629822 0.320804987102748 0.2079143524169922
    endloop
  endfacet
  facet normal 0.02926962404861844 0.9889475637851682 0.1453478764600064
    outer loop
      vertex 0.1881829798221588 0.3229819871485244 0.18362808227539062
      vertex 0.14113697409629822 0.320804987102748 0.2079143524169922
      vertex 0.18724799156188965 0.31657698750496016 0.22739601135253906
    endloop
  endfacet
  facet normal -0.07501833327671525 0.9961260200894513 0.045882477844312125
    outer loop
      vertex 0.1727529764175415 0.32445198670029746 0.1771106719970703
      vertex 0.16637298464775085 0.3246819861233245 0.16168594360351562
      vertex 0.12206599116325378 0.32133898511529074 0.1618213653564453
    endloop
  endfacet
  facet normal -0.07389837604589108 0.9963759550240892 0.042118716357628906
    outer loop
      vertex 0.1727529764175415 0.32445198670029746 0.1771106719970703
      vertex 0.12206599116325378 0.32133898511529074 0.1618213653564453
      vertex 0.14113697409629822 0.320804987102748 0.2079143524169922
    endloop
  endfacet
  facet normal -0.07239060990722865 0.9920673502425965 -0.10277145605610895
    outer loop
      vertex 0.16637298464775085 0.3246819861233245 0.16168594360351562
      vertex 0.17278197407722473 0.3235649876296531 0.14638900756835938
      vertex 0.14121097326278687 0.31812198460102187 0.11608505249023438
    endloop
  endfacet
  facet normal -0.07515813897166268 0.9920192703179206 -0.10123745089746582
    outer loop
      vertex 0.16637298464775085 0.3246819861233245 0.16168594360351562
      vertex 0.14121097326278687 0.31812198460102187 0.11608505249023438
      vertex 0.12206599116325378 0.32133898511529074 0.1618213653564453
    endloop
  endfacet
  facet normal 0.03356591595949563 0.9778271985023435 -0.20670582757836953
    outer loop
      vertex 0.17278197407722473 0.3235649876296531 0.14638900756835938
      vertex 0.18822699785232544 0.3217219859361659 0.14017868041992188
      vertex 0.18738198280334473 0.3127289861440669 0.09749984741210938
    endloop
  endfacet
  facet normal 0.030657814213309667 0.9777427003432672 -0.20755555967768785
    outer loop
      vertex 0.17278197407722473 0.3235649876296531 0.14638900756835938
      vertex 0.18738198280334473 0.3127289861440669 0.09749984741210938
      vertex 0.14121097326278687 0.31812198460102187 0.11608505249023438
    endloop
  endfacet
  facet normal 0.18275358255856178 0.9607295365025045 -0.20880585660774395
    outer loop
      vertex 0.18822699785232544 0.3217219859361659 0.14017868041992188
      vertex 0.2036609947681427 0.32020298764109717 0.146697998046875
      vertex 0.23352697491645813 0.3080639876425277 0.11698532104492188
    endloop
  endfacet
  facet normal 0.18420379965359274 0.9610264659953174 -0.20614822785978573
    outer loop
      vertex 0.18822699785232544 0.3217219859361659 0.14017868041992188
      vertex 0.23352697491645813 0.3080639876425277 0.11698532104492188
      vertex 0.18738198280334473 0.3127289861440669 0.09749984741210938
    endloop
  endfacet
  facet normal 0.2883806654993482 0.9520127673506344 -0.10250991448411004
    outer loop
      vertex 0.2036609947681427 0.32020298764109717 0.146697998046875
      vertex 0.21003997325897217 0.31993198767304526 0.1621265411376953
      vertex 0.25259098410606384 0.30714998394250975 0.16312408447265625
    endloop
  endfacet
  facet normal 0.28766421537552495 0.9524973278127353 -0.09999069807728125
    outer loop
      vertex 0.2036609947681427 0.32020298764109717 0.146697998046875
      vertex 0.25259098410606384 0.30714998394250975 0.16312408447265625
      vertex 0.23352697491645813 0.3080639876425277 0.11698532104492188
    endloop
  endfacet
  facet normal 0.2828780227490353 0.958070076863983 0.04562622122681199
    outer loop
      vertex 0.21003997325897217 0.31993198767304526 0.1621265411376953
      vertex 0.20362699031829834 0.32109698653221236 0.17742347717285156
      vertex 0.23341098427772522 0.3108059875667106 0.20885848999023438
    endloop
  endfacet
  facet normal 0.28648032062492707 0.9570920161995148 0.04363368448557618
    outer loop
      vertex 0.21003997325897217 0.31993198767304526 0.1621265411376953
      vertex 0.23341098427772522 0.3108059875667106 0.20885848999023438
      vertex 0.25259098410606384 0.30714998394250975 0.16312408447265625
    endloop
  endfacet
  facet normal 0.2935392414019455 0.831162889739239 0.47223189692934564
    outer loop
      vertex 0.23341098427772522 0.3108059875667106 0.20885848999023438
      vertex 0.18724799156188965 0.31657698750496016 0.22739601135253906
      vertex 0.18338698148727417 0.2852059826254855 0.28501129150390625
    endloop
  endfacet
  facet normal 0.2982578678104742 0.8282672507432426 0.47435809852407956
    outer loop
      vertex 0.23341098427772522 0.3108059875667106 0.20885848999023438
      vertex 0.18338698148727417 0.2852059826254855 0.28501129150390625
      vertex 0.26882098615169525 0.27410598844289885 0.2506752014160156
    endloop
  endfacet
  facet normal -0.12064544942635377 0.8718077966579952 0.47475871894999966
    outer loop
      vertex 0.18724799156188965 0.31657698750496016 0.22739601135253906
      vertex 0.14113697409629822 0.320804987102748 0.2079143524169922
      vertex 0.09807297587394714 0.29248898476362334 0.24896812438964844
    endloop
  endfacet
  facet normal -0.1231008553342903 0.8750125863306487 0.46818709206781345
    outer loop
      vertex 0.18724799156188965 0.31657698750496016 0.22739601135253906
      vertex 0.09807297587394714 0.29248898476362334 0.24896812438964844
      vertex 0.18338698148727417 0.2852059826254855 0.28501129150390625
    endloop
  endfacet
  facet normal -0.4199994722331419 0.8886611273361021 0.18407021509633337
    outer loop
      vertex 0.14113697409629822 0.320804987102748 0.2079143524169922
      vertex 0.12206599116325378 0.32133898511529074 0.1618213653564453
      vertex 0.06277498602867126 0.2929359897971164 0.16366004943847656
    endloop
  endfacet
  facet normal -0.4171284318021911 0.8913924547681796 0.1772663616273644
    outer loop
      vertex 0.14113697409629822 0.320804987102748 0.2079143524169922
      vertex 0.06277498602867126 0.2929359897971164 0.16366004943847656
      vertex 0.09807297587394714 0.29248898476362334 0.24896812438964844
    endloop
  endfacet
  facet normal -0.42280047015388256 0.8742816169092418 -0.23847728774920618
    outer loop
      vertex 0.12206599116325378 0.32133898511529074 0.1618213653564453
      vertex 0.14121097326278687 0.31812198460102187 0.11608505249023438
      vertex 0.09818997979164124 0.2871859893202792 0.07894325256347656
    endloop
  endfacet
  facet normal -0.42567211099748575 0.8732304539323804 -0.23721683802797974
    outer loop
      vertex 0.12206599116325378 0.32133898511529074 0.1618213653564453
      vertex 0.09818997979164124 0.2871859893202792 0.07894325256347656
      vertex 0.06277498602867126 0.2929359897971164 0.16366004943847656
    endloop
  endfacet
  facet normal -0.12169584516423851 0.83063343974248 -0.5433582704361252
    outer loop
      vertex 0.14121097326278687 0.31812198460102187 0.11608505249023438
      vertex 0.18738198280334473 0.3127289861440669 0.09749984741210938
      vertex 0.18365198373794556 0.27747798711061583 0.04444694519042969
    endloop
  endfacet
  facet normal -0.12575584363655334 0.829042745491321 -0.5448610776514244
    outer loop
      vertex 0.14121097326278687 0.31812198460102187 0.11608505249023438
      vertex 0.18365198373794556 0.27747798711061583 0.04444694519042969
      vertex 0.09818997979164124 0.2871859893202792 0.07894325256347656
    endloop
  endfacet
  facet normal 0.3084696409261872 0.7805844015835128 -0.5436308238422269
    outer loop
      vertex 0.18738198280334473 0.3127289861440669 0.09749984741210938
      vertex 0.23352697491645813 0.3080639876425277 0.11698532104492188
      vertex 0.26907698810100555 0.26859998703003035 0.08049201965332031
    endloop
  endfacet
  facet normal 0.3096225481195161 0.7817941264830224 -0.5412317631963465
    outer loop
      vertex 0.18738198280334473 0.3127289861440669 0.09749984741210938
      vertex 0.26907698810100555 0.26859998703003035 0.08049201965332031
      vertex 0.18365198373794556 0.27747798711061583 0.04444694519042969
    endloop
  endfacet
  facet normal 0.6059735369367635 0.7598794031404613 -0.2353282074364341
    outer loop
      vertex 0.23352697491645813 0.3080639876425277 0.11698532104492188
      vertex 0.25259098410606384 0.30714998394250975 0.16312408447265625
      vertex 0.3043469935655594 0.2667549848556529 0.16596031188964844
    endloop
  endfacet
  facet normal 0.6052830203294417 0.7610382336247247 -0.2333522493189805
    outer loop
      vertex 0.23352697491645813 0.3080639876425277 0.11698532104492188
      vertex 0.3043469935655594 0.2667549848556529 0.16596031188964844
      vertex 0.26907698810100555 0.26859998703003035 0.08049201965332031
    endloop
  endfacet
  facet normal 0.5926855030034124 0.7836841049078201 0.1859115871709466
    outer loop
      vertex 0.25259098410606384 0.30714998394250975 0.16312408447265625
      vertex 0.23341098427772522 0.3108059875667106 0.20885848999023438
      vertex 0.26882098615169525 0.27410598844289885 0.2506752014160156
    endloop
  endfacet
  facet normal 0.598577115778079 0.7797993560689405 0.18335321306500707
    outer loop
      vertex 0.25259098410606384 0.30714998394250975 0.16312408447265625
      vertex 0.26882098615169525 0.27410598844289885 0.2506752014160156
      vertex 0.3043469935655594 0.2667549848556529 0.16596031188964844
    endloop
  endfacet
  facet normal 0.36899718193584796 0.5705845628202535 0.7336718179094948
    outer loop
      vertex 0.26882098615169525 0.27410598844289885 0.2506752014160156
      vertex 0.18338698148727417 0.2852059826254855 0.28501129150390625
      vertex 0.1776689887046814 0.2369349896907817 0.3254280090332031
    endloop
  endfacet
  facet normal 0.37263735518943114 0.5656448917059347 0.7356543060462618
    outer loop
      vertex 0.26882098615169525 0.27410598844289885 0.2506752014160156
      vertex 0.1776689887046814 0.2369349896907817 0.3254280090332031
      vertex 0.28944598138332367 0.22187799215316878 0.28038597106933594
    endloop
  endfacet
  facet normal -0.25474952974406845 0.6331301523474385 0.7309233114928578
    outer loop
      vertex 0.18338698148727417 0.2852059826254855 0.28501129150390625
      vertex 0.09807297587394714 0.29248898476362334 0.24896812438964844
      vertex 0.06607097387313843 0.2457419857382785 0.2783069610595703
    endloop
  endfacet
  facet normal -0.25617616672892896 0.6382090910665601 0.725990996969017
    outer loop
      vertex 0.18338698148727417 0.2852059826254855 0.28501129150390625
      vertex 0.06607097387313843 0.2457419857382785 0.2783069610595703
      vertex 0.1776689887046814 0.2369349896907817 0.3254280090332031
    endloop
  endfacet
  facet normal -0.6998111810787413 0.6514828362678055 0.29297512673541615
    outer loop
      vertex 0.09807297587394714 0.29248898476362334 0.24896812438964844
      vertex 0.06277498602867126 0.2929359897971164 0.16366004943847656
      vertex 0.019898980855941772 0.24554298818111525 0.16663169860839844
    endloop
  endfacet
  facet normal -0.6969330348547401 0.6572136035124321 0.2869749541098756
    outer loop
      vertex 0.09807297587394714 0.29248898476362334 0.24896812438964844
      vertex 0.019898980855941772 0.24554298818111525 0.16663169860839844
      vertex 0.06607097387313843 0.2457419857382785 0.2783069610595703
    endloop
  endfacet
  facet normal -0.7072530761260296 0.621028751888825 -0.33781115380886545
    outer loop
      vertex 0.06277498602867126 0.2929359897971164 0.16366004943847656
      vertex 0.09818997979164124 0.2871859893202792 0.07894325256347656
      vertex 0.0662359893321991 0.23811398446560011 0.055629730224609375
    endloop
  endfacet
  facet normal -0.7085388896776291 0.6198615330589503 -0.3372600208269586
    outer loop
      vertex 0.06277498602867126 0.2929359897971164 0.16366004943847656
      vertex 0.0662359893321991 0.23811398446560011 0.055629730224609375
      vertex 0.019898980855941772 0.24554298818111525 0.16663169860839844
    endloop
  endfacet
  facet normal -0.25782570187940684 0.5508678519897534 -0.7937698136705543
    outer loop
      vertex 0.09818997979164124 0.2871859893202792 0.07894325256347656
      vertex 0.18365198373794556 0.27747798711061583 0.04444694519042969
      vertex 0.17805799841880798 0.22568298876285656 0.010318756103515625
    endloop
  endfacet
  facet normal -0.2611932420038136 0.5477064672609251 -0.7948557831783666
    outer loop
      vertex 0.09818997979164124 0.2871859893202792 0.07894325256347656
      vertex 0.17805799841880798 0.22568298876285656 0.010318756103515625
      vertex 0.0662359893321991 0.23811398446560011 0.055629730224609375
    endloop
  endfacet
  facet normal 0.3831121049504212 0.4785072484614111 -0.7900986825772757
    outer loop
      vertex 0.18365198373794556 0.27747798711061583 0.04444694519042969
      vertex 0.26907698810100555 0.26859998703003035 0.08049201965332031
      vertex 0.2898239940404892 0.21390698850154982 0.05742835998535156
    endloop
  endfacet
  facet normal 0.3833330753318279 0.478953405493954 -0.7897210828655818
    outer loop
      vertex 0.18365198373794556 0.27747798711061583 0.04444694519042969
      vertex 0.2898239940404892 0.21390698850154982 0.05742835998535156
      vertex 0.17805799841880798 0.22568298876285656 0.010318756103515625
    endloop
  endfacet
  facet normal 0.8276629578428527 0.45265569186620697 -0.3317783188153588
    outer loop
      vertex 0.26907698810100555 0.26859998703003035 0.08049201965332031
      vertex 0.3043469935655594 0.2667549848556529 0.16596031188964844
      vertex 0.33595098555088043 0.21146798133850203 0.1693706512451172
    endloop
  endfacet
  facet normal 0.8274730938921525 0.4535075441857676 -0.3310878829723961
    outer loop
      vertex 0.26907698810100555 0.26859998703003035 0.08049201965332031
      vertex 0.33595098555088043 0.21146798133850203 0.1693706512451172
      vertex 0.2898239940404892 0.21390698850154982 0.05742835998535156
    endloop
  endfacet
  facet normal 0.816746191705282 0.49304060902514496 0.2997275699481664
    outer loop
      vertex 0.3043469935655594 0.2667549848556529 0.16596031188964844
      vertex 0.26882098615169525 0.27410598844289885 0.2506752014160156
      vertex 0.28944598138332367 0.22187799215316878 0.28038597106933594
    endloop
  endfacet
  facet normal 0.820665633414586 0.48750738913274644 0.2980678843371242
    outer loop
      vertex 0.3043469935655594 0.2667549848556529 0.16596031188964844
      vertex 0.28944598138332367 0.22187799215316878 0.28038597106933594
      vertex 0.33595098555088043 0.21146798133850203 0.1693706512451172
    endloop
  endfacet
  facet normal 0.389698867208748 0.2120451232703535 0.8961984482208609
    outer loop
      vertex 0.28944598138332367 0.22187799215316878 0.28038597106933594
      vertex 0.1776689887046814 0.2369349896907817 0.3254280090332031
      vertex 0.17099899053573608 0.17856799066066847 0.34213829040527344
    endloop
  endfacet
  facet normal 0.39156063707007366 0.20735956085658558 0.8964832848517825
    outer loop
      vertex 0.28944598138332367 0.22187799215316878 0.28038597106933594
      vertex 0.17099899053573608 0.17856799066066847 0.34213829040527344
      vertex 0.2921769917011261 0.16183498501777754 0.29308128356933594
    endloop
  endfacet
  facet normal -0.3522733719029848 0.29259259316845243 0.8889842776287227
    outer loop
      vertex 0.1776689887046814 0.2369349896907817 0.3254280090332031
      vertex 0.06607097387313843 0.2457419857382785 0.2783069610595703
      vertex 0.050025999546051025 0.18751598894596205 0.29111289978027344
    endloop
  endfacet
  facet normal -0.3528097275119966 0.2945821603290265 0.8881140957043718
    outer loop
      vertex 0.1776689887046814 0.2369349896907817 0.3254280090332031
      vertex 0.050025999546051025 0.18751598894596205 0.29111289978027344
      vertex 0.17099899053573608 0.17856799066066847 0.34213829040527344
    endloop
  endfacet
  facet normal -0.8769698347082583 0.31601614797053446 0.3620189266235057
    outer loop
      vertex 0.06607097387313843 0.2457419857382785 0.2783069610595703
      vertex 0.019898980855941772 0.24554298818111525 0.16663169860839844
      vertex 0 0.1865569800138484 0.16991806030273438
    endloop
  endfacet
  facet normal -0.8764698130113874 0.3205343285899236 0.3592470056593238
    outer loop
      vertex 0.06607097387313843 0.2457419857382785 0.2783069610595703
      vertex 0 0.1865569800138484 0.16991806030273438
      vertex 0.050025999546051025 0.18751598894596205 0.29111289978027344
    endloop
  endfacet
  facet normal -0.8802449052990796 0.2760920806312275 -0.385930135785914
    outer loop
      vertex 0.019898980855941772 0.24554298818111525 0.16663169860839844
      vertex 0.0662359893321991 0.23811398446560011 0.055629730224609375
      vertex 0.05026400089263916 0.1783959865570079 0.04933738708496094
    endloop
  endfacet
  facet normal -0.8805172174013141 0.27555464690565745 -0.3856929691199282
    outer loop
      vertex 0.019898980855941772 0.24554298818111525 0.16663169860839844
      vertex 0.05026400089263916 0.1783959865570079 0.04933738708496094
      vertex 0 0.1865569800138484 0.16991806030273438
    endloop
  endfacet
  facet normal -0.3498241283664443 0.1939193608848034 -0.9165251555122135
    outer loop
      vertex 0.0662359893321991 0.23811398446560011 0.055629730224609375
      vertex 0.17805799841880798 0.22568298876285656 0.010318756103515625
      vertex 0.17148900032043457 0.16506297886371715 0
    endloop
  endfacet
  facet normal -0.351981916018217 0.1906962598403561 -0.916375287357229
    outer loop
      vertex 0.0662359893321991 0.23811398446560011 0.055629730224609375
      vertex 0.17148900032043457 0.16506297886371715 0
      vertex 0.05026400089263916 0.1783959865570079 0.04933738708496094
    endloop
  endfacet
  facet normal 0.3960116759066709 0.11309611781255138 -0.9112540922713704
    outer loop
      vertex 0.17805799841880798 0.22568298876285656 0.010318756103515625
      vertex 0.2898239940404892 0.21390698850154982 0.05742835998535156
      vertex 0.29262198507785797 0.15231898427009688 0.05100059509277344
    endloop
  endfacet
  facet normal 0.3955967756182306 0.11229325022416585 -0.9115335523580863
    outer loop
      vertex 0.17805799841880798 0.22568298876285656 0.010318756103515625
      vertex 0.29262198507785797 0.15231898427009688 0.05100059509277344
      vertex 0.17148900032043457 0.16506297886371715 0
    endloop
  endfacet
  facet normal 0.9221976713233412 0.08050153040293034 -0.37824721890397656
    outer loop
      vertex 0.2898239940404892 0.21390698850154982 0.05742835998535156
      vertex 0.33595098555088043 0.21146798133850203 0.1693706512451172
      vertex 0.3426029831171036 0.1498639881610881 0.17247772216796875
    endloop
  endfacet
  facet normal 0.9222960287774705 0.08133358393093064 -0.3778291722806187
    outer loop
      vertex 0.2898239940404892 0.21390698850154982 0.05742835998535156
      vertex 0.3426029831171036 0.1498639881610881 0.17247772216796875
      vertex 0.29262198507785797 0.15231898427009688 0.05100059509277344
    endloop
  endfacet
  facet normal 0.9195673675302322 0.1208773877141356 0.3738776721240858
    outer loop
      vertex 0.33595098555088043 0.21146798133850203 0.1693706512451172
      vertex 0.28944598138332367 0.22187799215316878 0.28038597106933594
      vertex 0.2921769917011261 0.16183498501777754 0.29308128356933594
    endloop
  endfacet
  facet normal 0.9202569446260558 0.1181840947441093 0.3730411178637442
    outer loop
      vertex 0.33595098555088043 0.21146798133850203 0.1693706512451172
      vertex 0.2921769917011261 0.16183498501777754 0.29308128356933594
      vertex 0.3426029831171036 0.1498639881610881 0.17247772216796875
    endloop
  endfacet
  facet normal 0.3457317551826163 -0.1901460198219033 0.9188656292430551
    outer loop
      vertex 0.2921769917011261 0.16183498501777754 0.29308128356933594
      vertex 0.17099899053573608 0.17856799066066847 0.34213829040527344
      vertex 0.16443097591400146 0.11828199028968917 0.3321342468261719
    endloop
  endfacet
  facet normal 0.3465353783760502 -0.19338028778336105 0.9178874091252107
    outer loop
      vertex 0.2921769917011261 0.16183498501777754 0.29308128356933594
      vertex 0.16443097591400146 0.11828199028968917 0.3321342468261719
      vertex 0.2765289843082428 0.10272297263145552 0.28653526306152344
    endloop
  endfacet
  facet normal -0.39312175677708755 -0.1074326512916993 0.9131886496145977
    outer loop
      vertex 0.17099899053573608 0.17856799066066847 0.34213829040527344
      vertex 0.050025999546051025 0.18751598894596205 0.29111289978027344
      vertex 0.05252400040626526 0.12636499106884108 0.28499412536621094
    endloop
  endfacet
  facet normal -0.39256579971182076 -0.10878141403198292 0.9132681407220012
    outer loop
      vertex 0.17099899053573608 0.17856799066066847 0.34213829040527344
      vertex 0.05252400040626526 0.12636499106884108 0.28499412536621094
      vertex 0.16443097591400146 0.11828199028968917 0.3321342468261719
    endloop
  endfacet
  facet normal -0.9214202814407096 -0.07659294104491135 0.3809438099402772
    outer loop
      vertex 0.050025999546051025 0.18751598894596205 0.29111289978027344
      vertex 0 0.1865569800138484 0.16991806030273438
      vertex 0.00627899169921875 0.12507899105548964 0.1727447509765625
    endloop
  endfacet
  facet normal -0.9216455803917323 -0.07572896304582427 0.380571344560243
    outer loop
      vertex 0.050025999546051025 0.18751598894596205 0.29111289978027344
      vertex 0.00627899169921875 0.12507899105548964 0.1727447509765625
      vertex 0.05252400040626526 0.12636499106884108 0.28499412536621094
    endloop
  endfacet
  facet normal -0.920042771575463 -0.10993632845843625 -0.37607885098316696
    outer loop
      vertex 0 0.1865569800138484 0.16991806030273438
      vertex 0.05026400089263916 0.1783959865570079 0.04933738708496094
      vertex 0.052813977003097534 0.11718899011612044 0.06099128723144531
    endloop
  endfacet
  facet normal -0.9201949598174466 -0.11124008551995539 -0.37532236717264933
    outer loop
      vertex 0 0.1865569800138484 0.16991806030273438
      vertex 0.052813977003097534 0.11718899011612044 0.06099128723144531
      vertex 0.00627899169921875 0.12507899105548964 0.1727447509765625
    endloop
  endfacet
  facet normal -0.3878556617975299 -0.18541672471221873 -0.9028779672849446
    outer loop
      vertex 0.05026400089263916 0.1783959865570079 0.04933738708496094
      vertex 0.17148900032043457 0.16506297886371715 0
      vertex 0.16494399309158325 0.10477697849273787 0.015192031860351562
    endloop
  endfacet
  facet normal -0.38914212028890777 -0.1879175507756385 -0.9018067444455816
    outer loop
      vertex 0.05026400089263916 0.1783959865570079 0.04933738708496094
      vertex 0.16494399309158325 0.10477697849273787 0.015192031860351562
      vertex 0.052813977003097534 0.11718899011612044 0.06099128723144531
    endloop
  endfacet
  facet normal 0.3503951727942175 -0.2647780425657522 -0.8983962439021876
    outer loop
      vertex 0.17148900032043457 0.16506297886371715 0
      vertex 0.29262198507785797 0.15231898427009688 0.05100059509277344
      vertex 0.27695798873901367 0.09321299195289717 0.06231117248535156
    endloop
  endfacet
  facet normal 0.3506148708931655 -0.2644619542867039 -0.8984036325858362
    outer loop
      vertex 0.17148900032043457 0.16506297886371715 0
      vertex 0.27695798873901367 0.09321299195289717 0.06231117248535156
      vertex 0.16494399309158325 0.10477697849273787 0.015192031860351562
    endloop
  endfacet
  facet normal 0.8782408435311202 -0.30596514153736076 -0.3675300707666914
    outer loop
      vertex 0.29262198507785797 0.15231898427009688 0.05100059509277344
      vertex 0.3426029831171036 0.1498639881610881 0.17247772216796875
      vertex 0.3231709897518158 0.09134399890899764 0.1747608184814453
    endloop
  endfacet
  facet normal 0.879601853696626 -0.3032469151212745 -0.36652678952961937
    outer loop
      vertex 0.29262198507785797 0.15231898427009688 0.05100059509277344
      vertex 0.3231709897518158 0.09134399890899764 0.1747608184814453
      vertex 0.27695798873901367 0.09321299195289717 0.06231117248535156
    endloop
  endfacet
  facet normal 0.8767912731589615 -0.2757299605512308 0.3939670699014119
    outer loop
      vertex 0.3426029831171036 0.1498639881610881 0.17247772216796875
      vertex 0.2921769917011261 0.16183498501777754 0.29308128356933594
      vertex 0.2765289843082428 0.10272297263145552 0.28653526306152344
    endloop
  endfacet
  facet normal 0.8767867622831993 -0.2757741005507142 0.3939462132707828
    outer loop
      vertex 0.3426029831171036 0.1498639881610881 0.17247772216796875
      vertex 0.2765289843082428 0.10272297263145552 0.28653526306152344
      vertex 0.3231709897518158 0.09134399890899764 0.1747608184814453
    endloop
  endfacet
  facet normal 0.24746461936141015 -0.5515876954264215 0.7965627887483081
    outer loop
      vertex 0.2765289843082428 0.10272297263145552 0.28653526306152344
      vertex 0.16443097591400146 0.11828199028968917 0.3321342468261719
      vertex 0.15896198153495789 0.06502798199653731 0.29695701599121094
    endloop
  endfacet
  facet normal 0.24842072292685458 -0.5553824717812628 0.7936229926474119
    outer loop
      vertex 0.2765289843082428 0.10272297263145552 0.28653526306152344
      vertex 0.15896198153495789 0.06502798199653731 0.29695701599121094
      vertex 0.24484498798847198 0.053325980901719194 0.2618846893310547
    endloop
  endfacet
  facet normal -0.3687909102412546 -0.4864271595296895 0.7920744175866968
    outer loop
      vertex 0.16443097591400146 0.11828199028968917 0.3321342468261719
      vertex 0.05252400040626526 0.12636499106884108 0.28499412536621094
      vertex 0.07322397828102112 0.07140398025512801 0.2608795166015625
    endloop
  endfacet
  facet normal -0.369509295076001 -0.4854405256337717 0.7923448598462944
    outer loop
      vertex 0.16443097591400146 0.11828199028968917 0.3321342468261719
      vertex 0.07322397828102112 0.07140398025512801 0.2608795166015625
      vertex 0.15896198153495789 0.06502798199653731 0.29695701599121094
    endloop
  endfacet
  facet normal -0.8192009493704074 -0.45980571702989576 0.34276596554682376
    outer loop
      vertex 0.05252400040626526 0.12636499106884108 0.28499412536621094
      vertex 0.00627899169921875 0.12507899105548964 0.1727447509765625
      vertex 0.037815988063812256 0.07041898369789229 0.17479324340820312
    endloop
  endfacet
  facet normal -0.8197877206884531 -0.4590041087570024 0.34243732441517044
    outer loop
      vertex 0.05252400040626526 0.12636499106884108 0.28499412536621094
      vertex 0.037815988063812256 0.07041898369789229 0.17479324340820312
      vertex 0.07322397828102112 0.07140398025512801 0.2608795166015625
    endloop
  endfacet
  facet normal -0.8209083535552292 -0.4809594183935896 -0.3078758076266189
    outer loop
      vertex 0.00627899169921875 0.12507899105548964 0.1727447509765625
      vertex 0.052813977003097534 0.11718899011612044 0.06099128723144531
      vertex 0.07349297404289246 0.06392997503280745 0.08905410766601562
    endloop
  endfacet
  facet normal -0.8200368281311617 -0.48454759889747206 -0.30455414118228297
    outer loop
      vertex 0.00627899169921875 0.12507899105548964 0.1727447509765625
      vertex 0.07349297404289246 0.06392997503280745 0.08905410766601562
      vertex 0.037815988063812256 0.07041898369789229 0.17479324340820312
    endloop
  endfacet
  facet normal -0.36898756102523345 -0.5386998223425927 -0.7573973073735532
    outer loop
      vertex 0.052813977003097534 0.11718899011612044 0.06099128723144531
      vertex 0.16494399309158325 0.10477697849273787 0.015192031860351562
      vertex 0.15939098596572876 0.05417999625206099 0.05388450622558594
    endloop
  endfacet
  facet normal -0.3704567304529627 -0.5414907725409328 -0.7546850694926491
    outer loop
      vertex 0.052813977003097534 0.11718899011612044 0.06099128723144531
      vertex 0.15939098596572876 0.05417999625206099 0.05388450622558594
      vertex 0.07349297404289246 0.06392997503280745 0.08905410766601562
    endloop
  endfacet
  facet normal 0.25397054680658243 -0.6072905300919968 -0.7527929153594282
    outer loop
      vertex 0.16494399309158325 0.10477697849273787 0.015192031860351562
      vertex 0.27695798873901367 0.09321299195289717 0.06231117248535156
      vertex 0.2451789826154709 0.04565897583961592 0.08995246887207031
    endloop
  endfacet
  facet normal 0.25689319935922245 -0.6047029578812448 -0.7538834239142391
    outer loop
      vertex 0.16494399309158325 0.10477697849273787 0.015192031860351562
      vertex 0.2451789826154709 0.04565897583961592 0.08995246887207031
      vertex 0.15939098596572876 0.05417999625206099 0.05388450622558594
    endloop
  endfacet
  facet normal 0.7003727551804786 -0.6483155640744734 -0.29860497849115397
    outer loop
      vertex 0.27695798873901367 0.09321299195289717 0.06231117248535156
      vertex 0.3231709897518158 0.09134399890899764 0.1747608184814453
      vertex 0.28057098388671875 0.0446899831295024 0.17613601684570312
    endloop
  endfacet
  facet normal 0.705234814663307 -0.6438355601311642 -0.29684950344812977
    outer loop
      vertex 0.27695798873901367 0.09321299195289717 0.06231117248535156
      vertex 0.28057098388671875 0.0446899831295024 0.17613601684570312
      vertex 0.2451789826154709 0.04565897583961592 0.08995246887207031
    endloop
  endfacet
  facet normal 0.6967768887085404 -0.6237052738887834 0.35425089793106274
    outer loop
      vertex 0.3231709897518158 0.09134399890899764 0.1747608184814453
      vertex 0.2765289843082428 0.10272297263145552 0.28653526306152344
      vertex 0.24484498798847198 0.053325980901719194 0.2618846893310547
    endloop
  endfacet
  facet normal 0.6960863334398779 -0.6251951511824203 0.3529799418327023
    outer loop
      vertex 0.3231709897518158 0.09134399890899764 0.1747608184814453
      vertex 0.24484498798847198 0.053325980901719194 0.2618846893310547
      vertex 0.28057098388671875 0.0446899831295024 0.17613601684570312
    endloop
  endfacet
  facet normal 0.11777307905495245 -0.825371608987893 0.5521695472648349
    outer loop
      vertex 0.20295000076293945 0.022127985954285723 0.22414207458496094
      vertex 0.15548399090766907 0.028354972600937944 0.2435741424560547
      vertex 0.1553950011730194 0.02742099761962996 0.24219703674316406
    endloop
  endfacet
  facet normal 0.11628859299928189 -0.8277263942345253 0.548949887900306
    outer loop
      vertex 0.20295000076293945 0.022127985954285723 0.22414207458496094
      vertex 0.1553950011730194 0.02742099761962996 0.24219703674316406
      vertex 0.20187097787857056 0.021329998970032793 0.22316741943359375
    endloop
  endfacet
  facet normal -0.29266533398114375 -0.7838182988627167 0.5477005355608685
    outer loop
      vertex 0.15548399090766907 0.028354972600937944 0.2435741424560547
      vertex 0.10809698700904846 0.03212499618530379 0.2236480712890625
      vertex 0.1089949905872345 0.031117975711823564 0.222686767578125
    endloop
  endfacet
  facet normal -0.293387959977152 -0.7822783516717438 0.5495125889788011
    outer loop
      vertex 0.15548399090766907 0.028354972600937944 0.2435741424560547
      vertex 0.1089949905872345 0.031117975711823564 0.222686767578125
      vertex 0.1553950011730194 0.02742099761962996 0.24219703674316406
    endloop
  endfacet
  facet normal -0.5902752913082525 -0.7679164700576476 0.2487556541772659
    outer loop
      vertex 0.10809698700904846 0.03212499618530379 0.2236480712890625
      vertex 0.08853599429130554 0.03173798322677718 0.17603683471679688
      vertex 0.08984199166297913 0.030743986368180376 0.17606735229492188
    endloop
  endfacet
  facet normal -0.5921993894588901 -0.7662097702665583 0.2494443245948599
    outer loop
      vertex 0.10809698700904846 0.03212499618530379 0.2236480712890625
      vertex 0.08984199166297913 0.030743986368180376 0.17606735229492188
      vertex 0.1089949905872345 0.031117975711823564 0.222686767578125
    endloop
  endfacet
  facet normal -0.5959056203960217 -0.7817753348657142 -0.1836404568063175
    outer loop
      vertex 0.08853599429130554 0.03173798322677718 0.17603683471679688
      vertex 0.1082639992237091 0.02783998847007857 0.1286144256591797
      vertex 0.10915899276733398 0.026918977499009233 0.12963104248046875
    endloop
  endfacet
  facet normal -0.5928285492194834 -0.7844958753283033 -0.18199047453974518
    outer loop
      vertex 0.08853599429130554 0.03173798322677718 0.17603683471679688
      vertex 0.10915899276733398 0.026918977499009233 0.12963104248046875
      vertex 0.08984199166297913 0.030743986368180376 0.17606735229492188
    endloop
  endfacet
  facet normal -0.296941331063497 -0.8210285337575104 -0.4875838314200247
    outer loop
      vertex 0.1082639992237091 0.02783998847007857 0.1286144256591797
      vertex 0.15573298931121826 0.022228986024857622 0.10915374755859375
      vertex 0.15563899278640747 0.02141797542572127 0.11057662963867188
    endloop
  endfacet
  facet normal -0.2961519319017071 -0.8229428224626734 -0.48482898447602674
    outer loop
      vertex 0.1082639992237091 0.02783998847007857 0.1286144256591797
      vertex 0.15563899278640747 0.02141797542572127 0.11057662963867188
      vertex 0.10915899276733398 0.026918977499009233 0.12963104248046875
    endloop
  endfacet
  facet normal 0.12131957086076868 -0.867646325954836 -0.4821528956495371
    outer loop
      vertex 0.15573298931121826 0.022228986024857622 0.10915374755859375
      vertex 0.20313400030136108 0.017784982919694048 0.12907791137695312
      vertex 0.20205098390579224 0.017074972391129595 0.1300830841064453
    endloop
  endfacet
  facet normal 0.12295633426842684 -0.8656660856431658 -0.4852875106887771
    outer loop
      vertex 0.15573298931121826 0.022228986024857622 0.10915374755859375
      vertex 0.20205098390579224 0.017074972391129595 0.1300830841064453
      vertex 0.15563899278640747 0.02141797542572127 0.11057662963867188
    endloop
  endfacet
  facet normal 0.4163658450484496 -0.8921534094291617 -0.17521922588863603
    outer loop
      vertex 0.20313400030136108 0.017784982919694048 0.12907791137695312
      vertex 0.22268998622894287 0.017555981874466997 0.1767139434814453
      vertex 0.22119998931884766 0.016857981681824785 0.176727294921875
    endloop
  endfacet
  facet normal 0.4198374364727201 -0.8902722496386657 -0.17649886248733634
    outer loop
      vertex 0.20313400030136108 0.017784982919694048 0.12907791137695312
      vertex 0.22119998931884766 0.016857981681824785 0.176727294921875
      vertex 0.20205098390579224 0.017074972391129595 0.1300830841064453
    endloop
  endfacet
  facet normal 0.41412440446262766 -0.8733176864127677 0.25654862351438273
    outer loop
      vertex 0.22268998622894287 0.017555981874466997 0.1767139434814453
      vertex 0.20295000076293945 0.022127985954285723 0.22414207458496094
      vertex 0.20187097787857056 0.021329998970032793 0.22316741943359375
    endloop
  endfacet
  facet normal 0.4119925646500834 -0.8745753270552686 0.25569537340205595
    outer loop
      vertex 0.22268998622894287 0.017555981874466997 0.1767139434814453
      vertex 0.20187097787857056 0.021329998970032793 0.22316741943359375
      vertex 0.22119998931884766 0.016857981681824785 0.176727294921875
    endloop
  endfacet
  facet normal 0.06076640998654236 -0.8987428969680442 0.43424491772136453
    outer loop
      vertex 0.19516900181770325 0.012789994478226763 0.21755218505859375
      vertex 0.1545809805393219 0.018079996109009844 0.23418045043945312
      vertex 0.1539049744606018 0.009224981069565874 0.21594810485839844
    endloop
  endfacet
  facet normal 0.061012408860653934 -0.9002061137365105 0.43116868944350417
    outer loop
      vertex 0.19516900181770325 0.012789994478226763 0.21755218505859375
      vertex 0.1539049744606018 0.009224981069565874 0.21594810485839844
      vertex 0.1814199984073639 0.005687981843949419 0.20466995239257812
    endloop
  endfacet
  facet normal -0.2499542687684126 -0.868235046683336 0.42859160891836573
    outer loop
      vertex 0.1545809805393219 0.018079996109009844 0.23418045043945312
      vertex 0.11405900120735168 0.02133598923683272 0.21714401245117188
      vertex 0.12643399834632874 0.011482983827591997 0.20440101623535156
    endloop
  endfacet
  facet normal -0.2521199421677943 -0.8667570861818098 0.43031115290557725
    outer loop
      vertex 0.1545809805393219 0.018079996109009844 0.23418045043945312
      vertex 0.12643399834632874 0.011482983827591997 0.20440101623535156
      vertex 0.1539049744606018 0.009224981069565874 0.21594810485839844
    endloop
  endfacet
  facet normal -0.47320092563016 -0.8577143661812752 0.20101480052228327
    outer loop
      vertex 0.11405900120735168 0.02133598923683272 0.21714401245117188
      vertex 0.09733399748802185 0.021019995212555986 0.1764240264892578
      vertex 0.11509600281715393 0.011306971311570269 0.17679214477539062
    endloop
  endfacet
  facet normal -0.4753726486098674 -0.856591179792017 0.20067983370573153
    outer loop
      vertex 0.11405900120735168 0.02133598923683272 0.21714401245117188
      vertex 0.11509600281715393 0.011306971311570269 0.17679214477539062
      vertex 0.12643399834632874 0.011482983827591997 0.20440101623535156
    endloop
  endfacet
  facet normal -0.4763495559398653 -0.8702745569331731 -0.12535268689047874
    outer loop
      vertex 0.09733399748802185 0.021019995212555986 0.1764240264892578
      vertex 0.114205002784729 0.01762798428535567 0.1358623504638672
      vertex 0.12653499841690063 0.008944988250733477 0.1492900848388672
    endloop
  endfacet
  facet normal -0.4742312245492438 -0.8718545539334347 -0.12236985923035291
    outer loop
      vertex 0.09733399748802185 0.021019995212555986 0.1764240264892578
      vertex 0.12653499841690063 0.008944988250733477 0.1492900848388672
      vertex 0.11509600281715393 0.011306971311570269 0.17679214477539062
    endloop
  endfacet
  facet normal -0.2524524669799103 -0.9005746925031499 -0.3538827138171832
    outer loop
      vertex 0.114205002784729 0.01762798428535567 0.1358623504638672
      vertex 0.15479597449302673 0.012790977954865557 0.11921501159667969
      vertex 0.1540519893169403 0.005616992712021929 0.1380023956298828
    endloop
  endfacet
  facet normal -0.25294269461719665 -0.9016488954548085 -0.35078378321255893
    outer loop
      vertex 0.114205002784729 0.01762798428535567 0.1358623504638672
      vertex 0.1540519893169403 0.005616992712021929 0.1380023956298828
      vertex 0.12653499841690063 0.008944988250733477 0.1492900848388672
    endloop
  endfacet
  facet normal 0.06124780132138691 -0.9341854403241099 -0.35149149338176666
    outer loop
      vertex 0.15479597449302673 0.012790977954865557 0.11921501159667969
      vertex 0.19532698392868042 0.009038984775544268 0.13624954223632812
      vertex 0.18152597546577454 0.003129988908768755 0.1495494842529297
    endloop
  endfacet
  facet normal 0.06421887256023363 -0.9331246107266244 -0.3537716739132434
    outer loop
      vertex 0.15479597449302673 0.012790977954865557 0.11921501159667969
      vertex 0.18152597546577454 0.003129988908768755 0.1495494842529297
      vertex 0.1540519893169403 0.005616992712021929 0.1380023956298828
    endloop
  endfacet
  facet normal 0.2864445972517373 -0.950450791709742 -0.12080060117240482
    outer loop
      vertex 0.19532698392868042 0.009038984775544268 0.13624954223632812
      vertex 0.2120489776134491 0.008901000022889238 0.1769866943359375
      vertex 0.19286298751831055 0.0030959844589243946 0.17716598510742188
    endloop
  endfacet
  facet normal 0.2904248346751116 -0.9492939322927169 -0.12039287983998502
    outer loop
      vertex 0.19532698392868042 0.009038984775544268 0.13624954223632812
      vertex 0.19286298751831055 0.0030959844589243946 0.17716598510742188
      vertex 0.18152597546577454 0.003129988908768755 0.1495494842529297
    endloop
  endfacet
  facet normal 0.2870134107209536 -0.9348368665732596 0.20905342609441932
    outer loop
      vertex 0.2120489776134491 0.008901000022889238 0.1769866943359375
      vertex 0.19516900181770325 0.012789994478226763 0.21755218505859375
      vertex 0.1814199984073639 0.005687981843949419 0.20466995239257812
    endloop
  endfacet
  facet normal 0.2851084080909015 -0.9359158523361977 0.20682048491791236
    outer loop
      vertex 0.2120489776134491 0.008901000022889238 0.1769866943359375
      vertex 0.1814199984073639 0.005687981843949419 0.20466995239257812
      vertex 0.19286298751831055 0.0030959844589243946 0.17716598510742188
    endloop
  endfacet
  facet normal -0.0031638970909552964 -0.9577739763872434 0.2875047824133813
    outer loop
      vertex 0.1539049744606018 0.009224981069565874 0.21594810485839844
      vertex 0.15322598814964294 0.0026709735393534717 0.1941070556640625
      vertex 0.16539299488067627 0.0011329948902140674 0.189117431640625
    endloop
  endfacet
  facet normal -0.00572527824207883 -0.9580644269092016 0.28649568073566806
    outer loop
      vertex 0.1539049744606018 0.009224981069565874 0.21594810485839844
      vertex 0.16539299488067627 0.0011329948902140674 0.189117431640625
      vertex 0.1814199984073639 0.005687981843949419 0.20466995239257812
    endloop
  endfacet
  facet normal -0.19896186910239294 -0.9376924364459115 0.284863246620923
    outer loop
      vertex 0.12643399834632874 0.011482983827591997 0.20440101623535156
      vertex 0.14107799530029297 0.00369799137115584 0.18900299072265625
      vertex 0.15322598814964294 0.0026709735393534717 0.1941070556640625
    endloop
  endfacet
  facet normal -0.19782492549234806 -0.9371671358755032 0.2873726818764317
    outer loop
      vertex 0.12643399834632874 0.011482983827591997 0.20440101623535156
      vertex 0.15322598814964294 0.0026709735393534717 0.1941070556640625
      vertex 0.1539049744606018 0.009224981069565874 0.21594810485839844
    endloop
  endfacet
  facet normal -0.33972139834709214 -0.9294903010946867 0.14365636663929926
    outer loop
      vertex 0.11509600281715393 0.011306971311570269 0.17679214477539062
      vertex 0.13606497645378113 0.0036429762840281543 0.17679214477539062
      vertex 0.14107799530029297 0.00369799137115584 0.18900299072265625
    endloop
  endfacet
  facet normal -0.34052971734427 -0.9288659635178004 0.1457653368382882
    outer loop
      vertex 0.11509600281715393 0.011306971311570269 0.17679214477539062
      vertex 0.14107799530029297 0.00369799137115584 0.18900299072265625
      vertex 0.12643399834632874 0.011482983827591997 0.20440101623535156
    endloop
  endfacet
  facet normal -0.34526109582588466 -0.9365280242748207 -0.060910060392435315
    outer loop
      vertex 0.12653499841690063 0.008944988250733477 0.1492900848388672
      vertex 0.14112398028373718 0.0025689899921427783 0.1646289825439453
      vertex 0.13606497645378113 0.0036429762840281543 0.17679214477539062
    endloop
  endfacet
  facet normal -0.3426216719886624 -0.9374255569645741 -0.061997701839271294
    outer loop
      vertex 0.12653499841690063 0.008944988250733477 0.1492900848388672
      vertex 0.13606497645378113 0.0036429762840281543 0.17679214477539062
      vertex 0.11509600281715393 0.011306971311570269 0.17679214477539062
    endloop
  endfacet
  facet normal -0.20320293470946393 -0.9567490339939964 -0.20818225975576393
    outer loop
      vertex 0.1540519893169403 0.005616992712021929 0.1380023956298828
      vertex 0.1532909870147705 0.0010709762573252735 0.159637451171875
      vertex 0.14112398028373718 0.0025689899921427783 0.1646289825439453
    endloop
  endfacet
  facet normal -0.20074881376680445 -0.9575065809115527 -0.20707742822985076
    outer loop
      vertex 0.1540519893169403 0.005616992712021929 0.1380023956298828
      vertex 0.14112398028373718 0.0025689899921427783 0.1646289825439453
      vertex 0.12653499841690063 0.008944988250733477 0.1492900848388672
    endloop
  endfacet
  facet normal -0.0010672660381539551 -0.979209352298451 -0.20284946466395193
    outer loop
      vertex 0.18152597546577454 0.003129988908768755 0.1495494842529297
      vertex 0.16543999314308167 1.0547118733938987e-15 0.16474342346191406
      vertex 0.1532909870147705 0.0010709762573252735 0.159637451171875
    endloop
  endfacet
  facet normal -0.002130550338999096 -0.978612032308919 -0.20570355119798078
    outer loop
      vertex 0.18152597546577454 0.003129988908768755 0.1495494842529297
      vertex 0.1532909870147705 0.0010709762573252735 0.159637451171875
      vertex 0.1540519893169403 0.005616992712021929 0.1380023956298828
    endloop
  endfacet
  facet normal 0.13654341535756376 -0.9891109565539199 -0.05491276124437309
    outer loop
      vertex 0.19286298751831055 0.0030959844589243946 0.17716598510742188
      vertex 0.17045199871063232 0.000013977289200883813 0.1769542694091797
      vertex 0.16543999314308167 1.0547118733938987e-15 0.16474342346191406
    endloop
  endfacet
  facet normal 0.1378085061585165 -0.9887715227682983 -0.05779006309754799
    outer loop
      vertex 0.19286298751831055 0.0030959844589243946 0.17716598510742188
      vertex 0.16543999314308167 1.0547118733938987e-15 0.16474342346191406
      vertex 0.18152597546577454 0.003129988908768755 0.1495494842529297
    endloop
  endfacet
  facet normal 0.13606815140786532 -0.9797726906549472 0.1467342251119745
    outer loop
      vertex 0.1814199984073639 0.005687981843949419 0.20466995239257812
      vertex 0.16539299488067627 0.0011329948902140674 0.189117431640625
      vertex 0.17045199871063232 0.000013977289200883813 0.1769542694091797
    endloop
  endfacet
  facet normal 0.13337183172312148 -0.9799767325608677 0.1478430185776279
    outer loop
      vertex 0.1814199984073639 0.005687981843949419 0.20466995239257812
      vertex 0.17045199871063232 0.000013977289200883813 0.1769542694091797
      vertex 0.19286298751831055 0.0030959844589243946 0.17716598510742188
    endloop
  endfacet
  facet normal 0.21546603424168728 -0.6467080570567891 0.7316714269574786
    outer loop
      vertex 0.1553950011730194 0.02742099761962996 0.24219703674316406
      vertex 0.1545809805393219 0.018079996109009844 0.23418045043945312
      vertex 0.19516900181770325 0.012789994478226763 0.21755218505859375
    endloop
  endfacet
  facet normal 0.2141462993399584 -0.6484098715025588 0.7305518469054992
    outer loop
      vertex 0.1553950011730194 0.02742099761962996 0.24219703674316406
      vertex 0.19516900181770325 0.012789994478226763 0.21755218505859375
      vertex 0.20187097787857056 0.021329998970032793 0.22316741943359375
    endloop
  endfacet
  facet normal -0.3521535914133039 -0.5927325012518218 0.7243314365775319
    outer loop
      vertex 0.1089949905872345 0.031117975711823564 0.222686767578125
      vertex 0.11405900120735168 0.02133598923683272 0.21714401245117188
      vertex 0.1545809805393219 0.018079996109009844 0.23418045043945312
    endloop
  endfacet
  facet normal -0.3520802104752954 -0.5917027349030727 0.7252085209785499
    outer loop
      vertex 0.1089949905872345 0.031117975711823564 0.222686767578125
      vertex 0.1545809805393219 0.018079996109009844 0.23418045043945312
      vertex 0.1553950011730194 0.02742099761962996 0.24219703674316406
    endloop
  endfacet
  facet normal -0.7572597475033356 -0.5718716537260315 0.31546867748769997
    outer loop
      vertex 0.08984199166297913 0.030743986368180376 0.17606735229492188
      vertex 0.09733399748802185 0.021019995212555986 0.1764240264892578
      vertex 0.11405900120735168 0.02133598923683272 0.21714401245117188
    endloop
  endfacet
  facet normal -0.7576260760410062 -0.5711792951686854 0.3158432232505732
    outer loop
      vertex 0.08984199166297913 0.030743986368180376 0.17606735229492188
      vertex 0.11405900120735168 0.02133598923683272 0.21714401245117188
      vertex 0.1089949905872345 0.031117975711823564 0.222686767578125
    endloop
  endfacet
  facet normal -0.7605036210693281 -0.5919832925831383 -0.266814586638111
    outer loop
      vertex 0.10915899276733398 0.026918977499009233 0.12963104248046875
      vertex 0.114205002784729 0.01762798428535567 0.1358623504638672
      vertex 0.09733399748802185 0.021019995212555986 0.1764240264892578
    endloop
  endfacet
  facet normal -0.7587140581227181 -0.5943445235285278 -0.2666600182978389
    outer loop
      vertex 0.10915899276733398 0.026918977499009233 0.12963104248046875
      vertex 0.09733399748802185 0.021019995212555986 0.1764240264892578
      vertex 0.08984199166297913 0.030743986368180376 0.17606735229492188
    endloop
  endfacet
  facet normal -0.3547242057735602 -0.6440243226545259 -0.6777930433898657
    outer loop
      vertex 0.15563899278640747 0.02141797542572127 0.11057662963867188
      vertex 0.15479597449302673 0.012790977954865557 0.11921501159667969
      vertex 0.114205002784729 0.01762798428535567 0.1358623504638672
    endloop
  endfacet
  facet normal -0.3537808444828162 -0.6458743618027022 -0.6765245175475738
    outer loop
      vertex 0.15563899278640747 0.02141797542572127 0.11057662963867188
      vertex 0.114205002784729 0.01762798428535567 0.1358623504638672
      vertex 0.10915899276733398 0.026918977499009233 0.12963104248046875
    endloop
  endfacet
  facet normal 0.2193500679602453 -0.7028151388679382 -0.6767100030765587
    outer loop
      vertex 0.20205098390579224 0.017074972391129595 0.1300830841064453
      vertex 0.19532698392868042 0.009038984775544268 0.13624954223632812
      vertex 0.15479597449302673 0.012790977954865557 0.11921501159667969
    endloop
  endfacet
  facet normal 0.21960866676611351 -0.7009320243283372 -0.678576694819524
    outer loop
      vertex 0.20205098390579224 0.017074972391129595 0.1300830841064453
      vertex 0.15479597449302673 0.012790977954865557 0.11921501159667969
      vertex 0.15563899278640747 0.02141797542572127 0.11057662963867188
    endloop
  endfacet
  facet normal 0.6292361858934022 -0.7321610214462575 -0.26077204803639603
    outer loop
      vertex 0.22119998931884766 0.016857981681824785 0.176727294921875
      vertex 0.2120489776134491 0.008901000022889238 0.1769866943359375
      vertex 0.19532698392868042 0.009038984775544268 0.13624954223632812
    endloop
  endfacet
  facet normal 0.6313130194376955 -0.7297266476892308 -0.26256978337329134
    outer loop
      vertex 0.22119998931884766 0.016857981681824785 0.176727294921875
      vertex 0.19532698392868042 0.009038984775544268 0.13624954223632812
      vertex 0.20205098390579224 0.017074972391129595 0.1300830841064453
    endloop
  endfacet
  facet normal 0.6261056364609 -0.7072392933858671 0.32833567257145624
    outer loop
      vertex 0.20187097787857056 0.021329998970032793 0.22316741943359375
      vertex 0.19516900181770325 0.012789994478226763 0.21755218505859375
      vertex 0.2120489776134491 0.008901000022889238 0.1769866943359375
    endloop
  endfacet
  facet normal 0.625061713668174 -0.7081545493345108 0.328351927606709
    outer loop
      vertex 0.20187097787857056 0.021329998970032793 0.22316741943359375
      vertex 0.2120489776134491 0.008901000022889238 0.1769866943359375
      vertex 0.22119998931884766 0.016857981681824785 0.176727294921875
    endloop
  endfacet
  facet normal -0.06374563006613498 -0.9872363158012035 0.14594845463634548
    outer loop
      vertex 0.15336698293685913 0.0009149909019480762 0.1823902130126953
      vertex 0.15712198615074158 0.0004449784755717334 0.18085098266601562
      vertex 0.16539299488067627 0.0011329948902140674 0.189117431640625
    endloop
  endfacet
  facet normal -0.06442007213862508 -0.9870146050276113 0.14714694617233046
    outer loop
      vertex 0.15336698293685913 0.0009149909019480762 0.1823902130126953
      vertex 0.16539299488067627 0.0011329948902140674 0.189117431640625
      vertex 0.15322598814964294 0.0026709735393534717 0.1941070556640625
    endloop
  endfacet
  facet normal -0.1449334116105125 -0.9787676360757712 0.14494212903632994
    outer loop
      vertex 0.14961698651313782 0.0012369751930247364 0.1808147430419922
      vertex 0.15336698293685913 0.0009149909019480762 0.1823902130126953
      vertex 0.15322598814964294 0.0026709735393534717 0.1941070556640625
    endloop
  endfacet
  facet normal -0.14351807411939915 -0.9790288264206566 0.1445860278119927
    outer loop
      vertex 0.14961698651313782 0.0012369751930247364 0.1808147430419922
      vertex 0.15322598814964294 0.0026709735393534717 0.1941070556640625
      vertex 0.14107799530029297 0.00369799137115584 0.18900299072265625
    endloop
  endfacet
  facet normal -0.006479446154252215 -0.996098544266939 0.08800969768621808
    outer loop
      vertex 0.15712198615074158 0.0004449784755717334 0.18085098266601562
      vertex 0.15868398547172546 0.00010299682617292971 0.1770954132080078
      vertex 0.17045199871063232 0.000013977289200883813 0.1769542694091797
    endloop
  endfacet
  facet normal -0.006167075919779962 -0.9960064480770603 0.08906807825207526
    outer loop
      vertex 0.15712198615074158 0.0004449784755717334 0.18085098266601562
      vertex 0.17045199871063232 0.000013977289200883813 0.1769542694091797
      vertex 0.16539299488067627 0.0011329948902140674 0.189117431640625
    endloop
  endfacet
  facet normal -0.19956384416121428 -0.9761668421651426 0.08527935483416985
    outer loop
      vertex 0.14806997776031494 0.0012239813804637012 0.1770458221435547
      vertex 0.14961698651313782 0.0012369751930247364 0.1808147430419922
      vertex 0.14107799530029297 0.00369799137115584 0.18900299072265625
    endloop
  endfacet
  facet normal -0.19854273919457388 -0.9763199145956946 0.08590811997111193
    outer loop
      vertex 0.14806997776031494 0.0012239813804637012 0.1770458221435547
      vertex 0.14107799530029297 0.00369799137115584 0.18900299072265625
      vertex 0.13606497645378113 0.0036429762840281543 0.17679214477539062
    endloop
  endfacet
  facet normal -0.006487414282352706 -0.9999674847598511 0.004789872543831023
    outer loop
      vertex 0.15868398547172546 0.00010299682617292971 0.1770954132080078
      vertex 0.1571369767189026 0.00009498000145063967 0.1733264923095703
      vertex 0.16543999314308167 1.0547118733938987e-15 0.16474342346191406
    endloop
  endfacet
  facet normal -0.007513535832560685 -0.9999628322149813 0.004228589349396964
    outer loop
      vertex 0.15868398547172546 0.00010299682617292971 0.1770954132080078
      vertex 0.16543999314308167 1.0547118733938987e-15 0.16474342346191406
      vertex 0.17045199871063232 0.000013977289200883813 0.1769542694091797
    endloop
  endfacet
  facet normal -0.19764354705131335 -0.9802567101109855 0.005814687555054662
    outer loop
      vertex 0.14963099360466003 0.0008869767189036426 0.1732921600341797
      vertex 0.14806997776031494 0.0012239813804637012 0.1770458221435547
      vertex 0.13606497645378113 0.0036429762840281543 0.17679214477539062
    endloop
  endfacet
  facet normal -0.19805205073837948 -0.9801826214781919 0.0041729786078588795
    outer loop
      vertex 0.14963099360466003 0.0008869767189036426 0.1732921600341797
      vertex 0.13606497645378113 0.0036429762840281543 0.17679214477539062
      vertex 0.14112398028373718 0.0025689899921427783 0.1646289825439453
    endloop
  endfacet
  facet normal -0.06407823932328546 -0.9965339652242059 -0.053047482501518584
    outer loop
      vertex 0.1571369767189026 0.00009498000145063967 0.1733264923095703
      vertex 0.15338698029518127 0.00041997432708845706 0.1717510223388672
      vertex 0.1532909870147705 0.0010709762573252735 0.159637451171875
    endloop
  endfacet
  facet normal -0.06574508238616647 -0.9964505205697651 -0.05257322701033783
    outer loop
      vertex 0.1571369767189026 0.00009498000145063967 0.1733264923095703
      vertex 0.1532909870147705 0.0010709762573252735 0.159637451171875
      vertex 0.16543999314308167 1.0547118733938987e-15 0.16474342346191406
    endloop
  endfacet
  facet normal -0.14371283014796232 -0.9883164677989646 -0.050765952450841506
    outer loop
      vertex 0.15338698029518127 0.00041997432708845706 0.1717510223388672
      vertex 0.14963099360466003 0.0008869767189036426 0.1732921600341797
      vertex 0.14112398028373718 0.0025689899921427783 0.1646289825439453
    endloop
  endfacet
  facet normal -0.14301305312265145 -0.9883547421293422 -0.05198240420545315
    outer loop
      vertex 0.15338698029518127 0.00041997432708845706 0.1717510223388672
      vertex 0.14112398028373718 0.0025689899921427783 0.1646289825439453
      vertex 0.1532909870147705 0.0010709762573252735 0.159637451171875
    endloop
  endfacet
  facet normal -0.10490276607648027 -0.9934468015568351 0.0453746861807085
    outer loop
      vertex 0.1533769965171814 0.0006639957427989063 0.17707061767578125
      vertex 0.14963099360466003 0.0008869767189036426 0.1732921600341797
      vertex 0.15338698029518127 0.00041997432708845706 0.1717510223388672
    endloop
  endfacet
  facet normal -0.1051573310263004 -0.9934199659020426 0.04537297740516376
    outer loop
      vertex 0.1533769965171814 0.0006639957427989063 0.17707061767578125
      vertex 0.15338698029518127 0.00041997432708845706 0.1717510223388672
      vertex 0.1571369767189026 0.00009498000145063967 0.1733264923095703
    endloop
  endfacet
  facet normal -0.10453654977685767 -0.9934565569306582 0.046001948352566095
    outer loop
      vertex 0.15712198615074158 0.0004449784755717334 0.18085098266601562
      vertex 0.1533769965171814 0.0006639957427989063 0.17707061767578125
      vertex 0.1571369767189026 0.00009498000145063967 0.1733264923095703
    endloop
  endfacet
  facet normal -0.10688626490314074 -0.993207251510787 0.04598567082737802
    outer loop
      vertex 0.15712198615074158 0.0004449784755717334 0.18085098266601562
      vertex 0.1571369767189026 0.00009498000145063967 0.1733264923095703
      vertex 0.15868398547172546 0.00010299682617292971 0.1770954132080078
    endloop
  endfacet
  facet normal -0.1055482146964565 -0.9933487298781232 0.0460203783547055
    outer loop
      vertex 0.14963099360466003 0.0008869767189036426 0.1732921600341797
      vertex 0.1533769965171814 0.0006639957427989063 0.17707061767578125
      vertex 0.14961698651313782 0.0012369751930247364 0.1808147430419922
    endloop
  endfacet
  facet normal -0.10380150019929942 -0.9935322279839808 0.04603216824745734
    outer loop
      vertex 0.14963099360466003 0.0008869767189036426 0.1732921600341797
      vertex 0.14961698651313782 0.0012369751930247364 0.1808147430419922
      vertex 0.14806997776031494 0.0012239813804637012 0.1770458221435547
    endloop
  endfacet
  facet normal -0.10520650275091252 -0.9933545989297236 0.046671539122791685
    outer loop
      vertex 0.1533769965171814 0.0006639957427989063 0.17707061767578125
      vertex 0.15712198615074158 0.0004449784755717334 0.18085098266601562
      vertex 0.15336698293685913 0.0009149909019480762 0.1823902130126953
    endloop
  endfacet
  facet normal -0.10490349857848337 -0.9933865458500737 0.04667361685206915
    outer loop
      vertex 0.1533769965171814 0.0006639957427989063 0.17707061767578125
      vertex 0.15336698293685913 0.0009149909019480762 0.1823902130126953
      vertex 0.14961698651313782 0.0012369751930247364 0.1808147430419922
    endloop
  endfacet
  facet normal 0.41241992233583646 -0.8743039811073924 0.25593428117441996
    outer loop
      vertex 0.20295000076293945 0.022127985954285723 0.22414207458496094
      vertex 0.22268998622894287 0.017555981874466997 0.1767139434814453
      vertex 0.28057098388671875 0.0446899831295024 0.17613601684570312
    endloop
  endfacet
  facet normal 0.4145761835425429 -0.8719202676929165 0.2605410424973623
    outer loop
      vertex 0.20295000076293945 0.022127985954285723 0.22414207458496094
      vertex 0.28057098388671875 0.0446899831295024 0.17613601684570312
      vertex 0.24484498798847198 0.053325980901719194 0.2618846893310547
    endloop
  endfacet
  facet normal 0.4232627147964129 -0.8883429424515394 -0.17803227476980477
    outer loop
      vertex 0.22268998622894287 0.017555981874466997 0.1767139434814453
      vertex 0.20313400030136108 0.017784982919694048 0.12907791137695312
      vertex 0.2451789826154709 0.04565897583961592 0.08995246887207031
    endloop
  endfacet
  facet normal 0.41598331883342654 -0.8912082560382717 -0.18084723614573217
    outer loop
      vertex 0.22268998622894287 0.017555981874466997 0.1767139434814453
      vertex 0.2451789826154709 0.04565897583961592 0.08995246887207031
      vertex 0.28057098388671875 0.0446899831295024 0.17613601684570312
    endloop
  endfacet
  facet normal 0.12523485911837423 -0.8624981961548217 -0.49031937723414504
    outer loop
      vertex 0.20313400030136108 0.017784982919694048 0.12907791137695312
      vertex 0.15573298931121826 0.022228986024857622 0.10915374755859375
      vertex 0.15939098596572876 0.05417999625206099 0.05388450622558594
    endloop
  endfacet
  facet normal 0.11924169228970424 -0.8647137434431101 -0.48790527843065035
    outer loop
      vertex 0.20313400030136108 0.017784982919694048 0.12907791137695312
      vertex 0.15939098596572876 0.05417999625206099 0.05388450622558594
      vertex 0.2451789826154709 0.04565897583961592 0.08995246887207031
    endloop
  endfacet
  facet normal -0.2970135831129445 -0.8208706584474559 -0.48780558990898226
    outer loop
      vertex 0.15573298931121826 0.022228986024857622 0.10915374755859375
      vertex 0.1082639992237091 0.02783998847007857 0.1286144256591797
      vertex 0.07349297404289246 0.06392997503280745 0.08905410766601562
    endloop
  endfacet
  facet normal -0.2947000898397653 -0.8187167950315217 -0.49280286787086336
    outer loop
      vertex 0.15573298931121826 0.022228986024857622 0.10915374755859375
      vertex 0.07349297404289246 0.06392997503280745 0.08905410766601562
      vertex 0.15939098596572876 0.05417999625206099 0.05388450622558594
    endloop
  endfacet
endsolid Standard Male Figure
